<svg width="95" height="94" viewBox="0 0 95 94" fill="none" xmlns="http://www.w3.org/2000/svg">
<path d="M47.0985 93.8244C73.0075 93.8244 93.9691 72.8211 93.9177 46.9122C93.8663 21.0033 72.8213 0 46.9123 0C21.0034 0 0.0416817 21.0033 0.0930987 46.9122C0.144516 72.8211 21.1896 93.8244 47.0985 93.8244Z" fill="url(#paint0_linear_3114_2761)"/>
<path d="M5.875 46.7512C5.875 24.091 24.3078 5.6582 46.968 5.6582C69.6282 5.6582 88.061 24.091 88.061 46.7512C88.061 69.4114 69.6282 87.8442 46.968 87.8442C24.3078 87.8442 5.875 69.4114 5.875 46.7512Z" fill="#47ACD3"/>
<path d="M63.49 35.8851C59.9367 32.3318 55.2125 30.375 50.1875 30.375C46.584 30.375 43.1208 31.3837 40.1094 33.3V32.3906C40.1094 32.2124 40.0386 32.0416 39.9126 31.9155L33.1939 25.1968C33.0018 25.0047 32.7128 24.9471 32.4617 25.0512C32.2107 25.1552 32.0469 25.4002 32.0469 25.6719V29.8871L30.4709 28.5232C30.2045 28.2926 29.8053 28.3071 29.5562 28.5562C29.3071 28.8053 29.2926 29.2046 29.5232 29.471L30.8871 31.0469H26.6719C26.4001 31.0469 26.1551 31.2106 26.0512 31.4616C25.9472 31.7126 26.0046 32.0017 26.1968 32.1939L32.9155 38.9126C33.0415 39.0386 33.2124 39.1094 33.3906 39.1094H34.2998C32.3829 42.1196 31.375 45.5774 31.375 49.1875C31.375 54.2125 33.3318 58.9367 36.8851 62.49C40.4383 66.0432 45.1626 68 50.1875 68C55.2125 68 59.9367 66.0432 63.49 62.49C67.0432 58.9367 69 54.2125 69 49.1875C69 44.1625 67.0432 39.4383 63.49 35.8851ZM47.2197 44.7947C47.5978 45.1888 47.5928 45.817 47.2049 46.2049C46.8169 46.5927 46.1888 46.5977 45.7947 46.2197L36.6327 35.6327L47.2197 44.7947ZM33.3906 27.294L38.7656 32.669V35.7015L33.3906 31.05V27.294ZM28.294 32.3906H32.05L36.7015 37.7656H33.669L28.294 32.3906ZM50.1875 66.6562C40.5553 66.6562 32.7188 58.8198 32.7188 49.1875C32.7188 45.5434 33.8237 42.0664 35.9174 39.1094H37.8643L38.6214 39.9842C36.5449 42.5925 35.4063 45.8396 35.4063 49.1875C35.4063 57.3379 42.0371 63.9688 50.1875 63.9688C58.3379 63.9688 64.9688 57.3379 64.9688 49.1875C64.9688 45.8035 63.7959 42.496 61.6663 39.8743C61.4324 39.5863 61.0093 39.5425 60.7212 39.7764C60.4333 40.0104 60.3894 40.4335 60.6233 40.7215C62.559 43.1046 63.625 46.1112 63.625 49.1875C63.625 56.597 57.5969 62.625 50.1875 62.625C42.7781 62.625 36.75 56.597 36.75 49.1875C36.75 46.2283 37.7284 43.3559 39.5176 41.0198L41.3232 43.1062C40.09 44.9004 39.4375 47.0011 39.4375 49.1875C39.4375 55.115 44.2599 59.9375 50.1875 59.9375C56.1151 59.9375 60.9375 55.115 60.9375 49.1875C60.9375 46.8408 60.1947 44.6109 58.7894 42.7391C58.5666 42.4425 58.1454 42.3823 57.8486 42.6051C57.5519 42.8279 57.492 43.2491 57.7148 43.5458C58.9441 45.1832 59.5938 47.134 59.5938 49.1875C59.5938 54.3741 55.3741 58.5938 50.1875 58.5938C45.0009 58.5938 40.7813 54.3741 40.7813 49.1875C40.7813 47.3926 41.2836 45.6639 42.2362 44.1612L44.1662 46.3913C44.0765 46.4614 44.0031 46.5548 43.9574 46.6678C43.6332 47.4688 43.4688 48.3166 43.4688 49.1875C43.4688 52.8922 46.4828 55.9063 50.1875 55.9063C53.8922 55.9063 56.9063 52.8922 56.9063 49.1875C56.9063 47.852 56.5151 46.5615 55.7753 45.4557C55.569 45.1472 55.1517 45.0644 54.8433 45.2708C54.5349 45.4772 54.4521 45.8945 54.6585 46.2029C55.2499 47.087 55.5625 48.119 55.5625 49.1875C55.5625 52.1513 53.1513 54.5625 50.1875 54.5625C47.2237 54.5625 44.8125 52.1513 44.8125 49.1875C44.8125 48.5722 44.9151 47.972 45.1171 47.3996C45.526 47.6948 46.0089 47.8427 46.4922 47.8427C46.8813 47.8427 47.2701 47.7464 47.6205 47.555C47.6429 47.5873 47.6681 47.6183 47.6968 47.6471L47.8732 47.8235C47.6365 48.2236 47.5 48.6898 47.5 49.1875C47.5 50.6694 48.7056 51.875 50.1875 51.875C51.6694 51.875 52.875 50.6694 52.875 49.1875C52.875 48.8165 52.5742 48.5156 52.2031 48.5156C51.8321 48.5156 51.5313 48.8165 51.5313 49.1875C51.5313 49.9284 50.9284 50.5313 50.1875 50.5313C49.4466 50.5313 48.8438 49.9284 48.8438 49.1875C48.8438 49.0675 48.8611 48.9517 48.8907 48.8409L49.7124 49.6626C49.8436 49.7938 50.0155 49.8594 50.1875 49.8594C50.3595 49.8594 50.5314 49.7938 50.6626 49.6626C50.9251 49.4002 50.9251 48.9749 50.6626 48.7124L49.841 47.8908C49.9518 47.8611 50.0676 47.8438 50.1876 47.8438C50.5586 47.8438 50.8595 47.543 50.8595 47.172C50.8595 46.8009 50.5586 46.5001 50.1876 46.5001C49.6899 46.5001 49.2237 46.6366 48.8235 46.8733L48.647 46.6968C48.6182 46.6681 48.5872 46.643 48.5549 46.6205C48.984 45.8352 48.9324 44.8553 48.3996 44.1171C48.9721 43.9151 49.5723 43.8125 50.1875 43.8125C51.2565 43.8125 52.289 44.1253 53.1731 44.7172C53.288 44.7939 53.4178 44.8308 53.5463 44.8308C53.763 44.8308 53.9757 44.7262 54.1052 44.5326C54.3116 44.2242 54.229 43.8069 53.9206 43.6004C52.8145 42.8601 51.5236 42.4688 50.1875 42.4688C49.3164 42.4688 48.4686 42.6332 47.6675 42.9575C47.5545 43.0032 47.4612 43.0765 47.3912 43.1661L45.1612 41.2363C46.6639 40.2836 48.3926 39.7813 50.1875 39.7813C52.242 39.7813 54.1936 40.4315 55.8313 41.6618C55.9522 41.7527 56.0938 41.7965 56.2343 41.7965C56.4384 41.7965 56.64 41.7039 56.772 41.5282C56.9949 41.2316 56.935 40.8104 56.6383 40.5875C54.7662 39.1809 52.5355 38.4375 50.1875 38.4375C48.0011 38.4375 45.9004 39.09 44.1062 40.3232L42.0197 38.5175C44.3559 36.7285 47.2284 35.75 50.1875 35.75C53.2676 35.75 56.2771 36.8184 58.6616 38.7583C58.9495 38.9925 59.3726 38.949 59.6068 38.6612C59.841 38.3733 59.7975 37.9501 59.5096 37.7159C56.8863 35.5816 53.5756 34.4063 50.1875 34.4063C46.8397 34.4063 43.5925 35.5448 40.9842 37.6215L40.1094 36.8644V34.9178C43.0666 32.8251 46.55 31.7188 50.1875 31.7188C59.8198 31.7188 67.6562 39.5553 67.6562 49.1875C67.6562 58.8198 59.8198 66.6562 50.1875 66.6562Z" fill="white"/>
<defs>
<linearGradient id="paint0_linear_3114_2761" x1="52.0979" y1="-6.0847" x2="41.3966" y2="103.068" gradientUnits="userSpaceOnUse">
<stop stop-color="white"/>
<stop offset="1" stop-color="#D7D6D6"/>
</linearGradient>
</defs>
</svg>
