<svg width="94" height="94" viewBox="0 0 94 94" fill="none" xmlns="http://www.w3.org/2000/svg">
<path d="M47.0926 93.8244C73.0016 93.8244 93.9633 72.8211 93.9119 46.9122C93.8604 21.0033 72.8154 0 46.9064 0C20.9975 0 0.0358223 21.0033 0.0872393 46.9122C0.138656 72.8211 21.1837 93.8244 47.0926 93.8244Z" fill="url(#paint0_linear_3216_8478)"/>
<path d="M5.86914 46.7512C5.86914 24.091 24.3019 5.6582 46.9621 5.6582C69.6224 5.6582 88.0551 24.091 88.0551 46.7512C88.0551 69.4114 69.6224 87.8442 46.9621 87.8442C24.3019 87.8442 5.86914 69.4114 5.86914 46.7512Z" fill="#75609F"/>
<path d="M36.8503 31.6978C36.6734 31.4484 36.7782 31.1296 37.0843 30.9856L37.9845 30.5623C38.2903 30.4189 38.6822 30.5037 38.8589 30.7531C39.0354 31.0025 38.9308 31.3213 38.6247 31.4653L37.7246 31.8886C37.6238 31.9359 37.5138 31.9585 37.405 31.9585C37.1838 31.9585 36.9685 31.865 36.8503 31.6978ZM42.0828 29.7593C42.1901 29.7593 42.299 29.7373 42.3989 29.691L43.3117 29.2679C43.6193 29.1254 43.726 28.8069 43.5515 28.5567C43.377 28.3064 42.986 28.2198 42.6785 28.3616L41.7658 28.7849C41.4582 28.9273 41.3512 29.2457 41.5257 29.496C41.6437 29.6647 41.8606 29.7593 42.0828 29.7593ZM42.0828 31.938C42.1901 31.938 42.299 31.9159 42.3989 31.8696L43.3117 31.4464C43.6193 31.304 43.726 30.9853 43.5515 30.7352C43.377 30.4852 42.986 30.3987 42.6785 30.5402L41.7658 30.9633C41.4582 31.1058 41.3512 31.4244 41.5257 31.6745C41.6437 31.8432 41.8606 31.938 42.0828 31.938ZM37.405 34.1368C37.5138 34.1368 37.6238 34.1143 37.7246 34.0669L38.6247 33.6438C38.9307 33.4997 39.0354 33.1807 38.8589 32.9315C38.6822 32.6821 38.2902 32.5973 37.9845 32.7407L37.0843 33.164C36.7783 33.3081 36.6734 33.6268 36.8503 33.8762C36.9685 34.0433 37.1838 34.1368 37.405 34.1368ZM37.405 36.3152C37.516 36.3152 37.628 36.2917 37.7302 36.2424L38.6303 35.8088C38.9347 35.6623 39.0354 35.3425 38.8557 35.0947C38.6747 34.8465 38.2823 34.7649 37.9788 34.9115L37.0786 35.3451C36.7744 35.4915 36.6734 35.8113 36.8532 36.0591C36.973 36.2237 37.1861 36.3152 37.405 36.3152ZM42.0828 34.1162C42.1922 34.1162 42.3035 34.0933 42.4052 34.045L43.3178 33.6114C43.6231 33.4665 43.726 33.1473 43.548 32.8985C43.3698 32.6495 42.9782 32.5659 42.6725 32.7108L41.7597 33.1444C41.4543 33.2894 41.3513 33.6086 41.5293 33.8575C41.6482 34.0235 41.8627 34.1162 42.0828 34.1162ZM37.405 38.4937C37.516 38.4937 37.628 38.4702 37.7302 38.4209L38.6303 37.9873C38.9347 37.8408 39.0354 37.521 38.8557 37.2734C38.6747 37.0251 38.2823 36.9436 37.9788 37.09L37.0786 37.5236C36.7744 37.6702 36.6734 37.9898 36.8532 38.2376C36.973 38.4023 37.1861 38.4937 37.405 38.4937ZM42.0828 36.2843C42.1901 36.2843 42.299 36.2623 42.3989 36.216L43.3117 35.7927C43.6193 35.6503 43.726 35.3318 43.5515 35.0816C43.377 34.8313 42.986 34.7449 42.6785 34.8865L41.7658 35.3097C41.4582 35.4522 41.3512 35.7706 41.5257 36.021C41.6437 36.1896 41.8606 36.2843 42.0828 36.2843ZM37.9845 39.2656L37.0843 39.6888C36.7783 39.8328 36.6734 40.1517 36.8503 40.401C36.9685 40.5682 37.1838 40.6617 37.405 40.6617C37.5138 40.6617 37.6238 40.6391 37.7246 40.5918L38.6247 40.1685C38.9307 40.0245 39.0354 39.7056 38.8589 39.4563C38.6823 39.2071 38.2903 39.122 37.9845 39.2656ZM42.678 37.0649L41.7653 37.4884C41.4582 37.6309 41.3512 37.9492 41.5256 38.1994C41.6442 38.3681 41.8606 38.4627 42.0827 38.4627C42.1899 38.4627 42.2993 38.4407 42.3992 38.3943L43.3121 37.9708C43.6192 37.8283 43.7259 37.5101 43.5514 37.2598C43.3759 37.0096 42.9849 36.9227 42.678 37.0649ZM32.042 36.7281C31.6882 36.7281 31.4017 36.9616 31.4017 37.2495V42.7627C31.4017 43.0506 31.6882 43.2841 32.042 43.2841C32.3957 43.2841 32.6822 43.0507 32.6822 42.7627V37.2495C32.6822 36.9616 32.3957 36.7281 32.042 36.7281ZM68 54.656C68 54.9441 67.7133 55.1774 67.3597 55.1774H66.2683L64.9665 57.5817C64.8642 57.7708 64.6345 57.8926 64.3807 57.8926H60.7871V59.4569C60.7871 60.2739 59.9708 60.9384 58.9675 60.9384H34.0326C33.0295 60.9384 32.2132 60.274 32.2132 59.4569V57.4178H29.9631C29.7023 57.4178 29.4679 57.289 29.37 57.0923L28.4167 55.1774H25.6404C25.2867 55.1774 25 54.9441 25 54.656C25 54.3679 25.2868 54.1345 25.6404 54.1345H28.2075V46.2006C28.2075 46.0144 28.3293 45.8422 28.5276 45.7491L29.4115 45.3331V36.4133C29.4115 36.2273 29.5336 36.0553 29.7313 35.962L32.8626 34.4857C33.0608 34.3918 33.3056 34.3916 33.5058 34.4866L34.5202 34.9686V30.0331C34.5202 29.8468 34.6422 29.6749 34.8401 29.5817L44.4236 25.0699C44.622 24.9768 44.8659 24.9766 45.0642 25.0698L52.6383 28.6351C52.6711 28.6478 52.7028 28.6622 52.7328 28.6793L60.0256 32.1124C60.2219 32.2057 60.3433 32.3772 60.3433 32.5624V47.446L64.4852 49.3936C64.683 49.4865 64.8052 49.6588 64.8052 49.8451V54.1345H65.8583H65.8621H67.3597C67.7134 54.1345 68 54.3679 68 54.656ZM63.5248 50.146L59.3814 48.1976C59.3675 48.1908 59.3528 48.1855 59.3397 48.178L44.7621 41.3232C44.7171 41.3076 44.6755 41.287 44.6368 41.264L43.2674 40.6202V54.1345H51.6339V47.047C51.6339 46.8677 51.747 46.7008 51.9339 46.6054C52.12 46.51 52.3537 46.4992 52.5522 46.5775L61.2234 49.9845C61.445 50.0712 61.5856 50.2538 61.5856 50.4539V54.1345H63.5246V50.146H63.5248ZM60.3051 54.1345V50.7813L57.2498 49.5809V54.1345H60.3051ZM55.9694 54.1345V49.078L52.9147 47.8776V54.1345H55.9694ZM29.4879 46.5015V49.7403L41.9871 46.7996V40.6205L29.4879 46.5015ZM29.4879 54.1345H41.9871V47.8849L29.4879 50.8254V54.1345ZM45.6509 40.5367L51.7226 43.3922V29.4043L45.6509 26.5497V40.5367ZM57.9478 32.3311L53.0032 30.0064V43.9943L59.0627 46.8439V32.8618L57.9478 32.3311ZM35.8008 30.334V42.3268L42.3072 39.2655C42.5055 39.1723 42.7494 39.1723 42.9475 39.2655L44.3703 39.9345V26.2995L35.8008 30.334ZM30.6919 44.7305L34.5203 42.9293V36.1759L33.1819 35.54L30.6919 36.7138V44.7305ZM59.5065 57.8926H58.1046L57.0625 58.7417C56.9423 58.8391 56.7795 58.8943 56.6098 58.8943H40.0157C39.8838 58.8943 39.7551 58.8609 39.6471 58.7991L37.2393 57.4179H33.4935V59.457C33.4935 59.6946 33.7404 59.8956 34.0325 59.8956H58.9674C59.2596 59.8956 59.5064 59.6946 59.5064 59.457L59.5065 57.8926ZM64.869 55.1774H29.7978L30.3941 56.375H37.4424C37.5744 56.375 37.7032 56.4085 37.8109 56.4703L40.2188 57.8514H56.3447L57.3865 57.0025C57.5067 56.9049 57.6696 56.8499 57.8391 56.8499H63.9633L64.869 55.1774ZM46.5064 62.3216C46.1527 62.3216 45.8662 62.5549 45.8662 62.843V67.4784C45.8662 67.7667 46.1528 68 46.5064 68C46.8601 68 47.1467 67.7666 47.1467 67.4784V62.843C47.1466 62.5549 46.8601 62.3216 46.5064 62.3216ZM39.1155 62.3216C38.7618 62.3216 38.4754 62.5549 38.4754 62.843V65.166C38.4754 65.454 38.7618 65.6874 39.1155 65.6874C39.4694 65.6874 39.7558 65.454 39.7558 65.166V62.843C39.7559 62.5549 39.4694 62.3216 39.1155 62.3216ZM53.8972 62.3216C53.5434 62.3216 53.2568 62.5549 53.2568 62.843V65.166C53.2568 65.454 53.5435 65.6874 53.8972 65.6874C54.2508 65.6874 54.5374 65.454 54.5374 65.166V62.843C54.5374 62.5549 54.2508 62.3216 53.8972 62.3216Z" fill="white"/>
<defs>
<linearGradient id="paint0_linear_3216_8478" x1="52.092" y1="-6.0847" x2="41.3907" y2="103.068" gradientUnits="userSpaceOnUse">
<stop stop-color="white"/>
<stop offset="1" stop-color="#D7D6D6"/>
</linearGradient>
</defs>
</svg>
