<svg xmlns="http://www.w3.org/2000/svg" width="19" height="19" viewBox="0 0 19 19" fill="none">
  <path d="M9.5 19C14.7467 19 19 14.7467 19 9.5C19 4.25329 14.7467 0 9.5 0C4.25329 0 0 4.25329 0 9.5C0 14.7467 4.25329 19 9.5 19Z" fill="#2A9BED"/>
  <mask id="mask0_657_68" style="mask-type:luminance" maskUnits="userSpaceOnUse" x="4" y="4" width="11" height="11">
    <path d="M14.3496 4.72949H4.64941V14.269H14.3496V4.72949Z" fill="white"/>
  </mask>
  <g mask="url(#mask0_657_68)">
    <path d="M8.02253 10.4313L13.914 4.80438C13.9591 4.75786 14.0201 4.73016 14.0848 4.72689C14.1495 4.72362 14.213 4.74501 14.2625 4.78675C14.3121 4.82849 14.3439 4.88746 14.3516 4.95177C14.3594 5.01608 14.3424 5.08093 14.3042 5.13323L8.25638 14.1495C8.23153 14.1875 8.1976 14.2187 8.15767 14.2403C8.11774 14.2619 8.07305 14.2732 8.02765 14.2732C7.98225 14.2732 7.93756 14.2619 7.89763 14.2403C7.85769 14.2187 7.82377 14.1875 7.79892 14.1495L4.69023 9.25184C4.65964 9.20441 4.6456 9.14819 4.6503 9.09195C4.655 9.0357 4.67817 8.98259 4.7162 8.94089C4.75424 8.89919 4.80499 8.87124 4.86057 8.86139C4.91614 8.85155 4.97341 8.86036 5.02346 8.88646L8.02253 10.4313Z" fill="white"/>
  </g>
</svg>