<svg width="95" height="94" viewBox="0 0 95 94" fill="none" xmlns="http://www.w3.org/2000/svg">
<path d="M47.5926 93.8244C73.5016 93.8244 94.4633 72.8211 94.4119 46.9122C94.3604 21.0033 73.3154 0 47.4064 0C21.4975 0 0.535822 21.0033 0.587239 46.9122C0.638656 72.8211 21.6837 93.8244 47.5926 93.8244Z" fill="url(#paint0_linear_3218_9013)"/>
<path d="M6.36914 46.7492C6.36914 24.089 24.8019 5.65625 47.4621 5.65625C70.1224 5.65625 88.5551 24.089 88.5551 46.7492C88.5551 69.4095 70.1224 87.8422 47.4621 87.8422C24.8019 87.8422 6.36914 69.4095 6.36914 46.7492Z" fill="#75609F"/>
<path d="M46.2967 37.5711C46.2967 37.4113 46.3586 37.258 46.4688 37.145C46.5791 37.032 46.7286 36.9685 46.8845 36.9685H54.6595C54.8154 36.9685 54.9649 37.032 55.0751 37.145C55.1854 37.258 55.2473 37.4113 55.2473 37.5711C55.2473 37.7309 55.1854 37.8842 55.0751 37.9972C54.9649 38.1102 54.8154 38.1737 54.6595 38.1737H46.8845C46.7286 38.1737 46.5791 38.1102 46.4688 37.9972C46.3586 37.8842 46.2967 37.7309 46.2967 37.5711ZM46.8845 41.1071H59.1637C59.3196 41.1071 59.4691 41.0436 59.5794 40.9306C59.6896 40.8176 59.7515 40.6643 59.7515 40.5045C59.7515 40.3447 59.6896 40.1914 59.5794 40.0784C59.4691 39.9654 59.3196 39.9019 59.1637 39.9019H46.8847C46.7288 39.9019 46.5793 39.9654 46.469 40.0784C46.3588 40.1914 46.2968 40.3447 46.2968 40.5045C46.2968 40.6643 46.3588 40.8176 46.469 40.9306C46.5793 41.0436 46.7288 41.1071 46.8847 41.1071H46.8845ZM59.1635 42.8322H46.8847C46.7288 42.8322 46.5793 42.8957 46.469 43.0087C46.3588 43.1217 46.2968 43.275 46.2968 43.4348C46.2968 43.5947 46.3588 43.7479 46.469 43.8609C46.5793 43.974 46.7288 44.0374 46.8847 44.0374H59.1637C59.3196 44.0374 59.4691 43.974 59.5794 43.8609C59.6896 43.7479 59.7515 43.5947 59.7515 43.4348C59.7515 43.275 59.6896 43.1217 59.5794 43.0087C59.4691 42.8957 59.3196 42.8322 59.1637 42.8322H59.1635ZM59.1635 45.7629H46.8847C46.7288 45.7629 46.5793 45.8264 46.469 45.9394C46.3588 46.0524 46.2968 46.2057 46.2968 46.3655C46.2968 46.5254 46.3588 46.6786 46.469 46.7916C46.5793 46.9047 46.7288 46.9681 46.8847 46.9681H59.1637C59.3196 46.9681 59.4691 46.9047 59.5794 46.7916C59.6896 46.6786 59.7515 46.5254 59.7515 46.3655C59.7515 46.2057 59.6896 46.0524 59.5794 45.9394C59.4691 45.8264 59.3196 45.7629 59.1637 45.7629H59.1635ZM65.2983 58.1001V63.6836C65.2973 64.5629 64.9562 65.4058 64.3497 66.0275C63.7432 66.6492 62.9208 66.999 62.0631 67H37.5291C36.6713 66.999 35.849 66.6492 35.2425 66.0275C34.636 65.4058 34.2949 64.5629 34.2939 63.6836V49.2231L26.2034 42.0509C26.145 41.9992 26.0971 41.9361 26.0625 41.8654C26.0278 41.7946 26.0071 41.7176 26.0015 41.6386C25.996 41.5597 26.0056 41.4803 26.0299 41.4052C26.0543 41.3301 26.0928 41.2606 26.1433 41.2007L37.9485 27.2085C37.999 27.1486 38.0605 27.0995 38.1295 27.064C38.1986 27.0285 38.2738 27.0073 38.3508 27.0016C38.4278 26.9959 38.5052 27.0058 38.5785 27.0307C38.6518 27.0557 38.7196 27.0952 38.778 27.147L43.0071 30.8973L50.6259 27.3373C50.6961 27.3045 50.772 27.2862 50.8492 27.2834C50.9264 27.2806 51.0033 27.2934 51.0756 27.3212C51.148 27.3489 51.2143 27.3909 51.2708 27.4449C51.3272 27.4989 51.3728 27.5638 51.4048 27.6358L53.7143 32.8297H57.3568C57.5128 32.8298 57.6623 32.8933 57.7726 33.0063L62.4624 37.8135C62.5726 37.9266 62.6346 38.0799 62.6346 38.2397V47.0162C64.0056 46.8218 65.3983 47.1549 66.5438 47.9512C67.6893 48.7475 68.5064 49.9506 68.8375 51.3281C69.1685 52.7057 68.9901 54.1602 68.3365 55.4108C67.6829 56.6614 66.6005 57.6195 65.2983 58.1001ZM61.4585 47.3177V38.8425H58.4092C57.9743 38.842 57.5574 38.6647 57.2499 38.3495C56.9425 38.0343 56.7695 37.6069 56.769 37.1612V34.0352H44.5899V46.1497L46.8006 48.3651C47.3017 48.8676 47.6969 49.2232 48.2225 49.2232H58.9506C59.5944 48.3582 60.4639 47.6976 61.4585 47.3177ZM57.9448 37.1612C57.9449 37.2873 57.9939 37.4083 58.0809 37.4975C58.1679 37.5867 58.2859 37.6368 58.4089 37.637H60.6268L57.9448 34.888V37.1612ZM50.5786 28.6843L43.1835 32.1398C43.1613 32.152 43.1384 32.1628 43.1149 32.1719L35.2298 35.8564L38.9761 44.2818H41.6784C42.4095 44.2818 42.9693 44.6229 43.4138 45.0014V33.4325C43.4138 33.2726 43.4757 33.1194 43.586 33.0064C43.6962 32.8934 43.8457 32.8299 44.0016 32.8299H52.4215L50.5786 28.6843ZM34.2939 47.6294V47.1122C34.295 46.3614 34.5867 45.6417 35.1048 45.111C35.623 44.5804 36.3253 44.2821 37.0578 44.2816H37.6838L33.9161 35.8079C33.884 35.7359 33.8661 35.6581 33.8634 35.579C33.8607 35.4999 33.8733 35.421 33.9003 35.3469C33.9273 35.2728 33.9684 35.2048 34.021 35.1469C34.0737 35.0891 34.137 35.0424 34.2072 35.0096L41.8302 31.4474L38.4533 28.4529L27.4175 41.5338L34.2939 47.6294ZM64.1223 58.3908C63.3326 58.4975 62.5298 58.43 61.7676 58.1927C61.0054 57.9555 60.3015 57.554 59.703 57.0152C59.1045 56.4764 58.6253 55.8127 58.2974 55.0685C57.9695 54.3244 57.8006 53.517 57.8019 52.7005C57.8013 51.919 57.9573 51.1458 58.2602 50.4287H48.2223C47.1764 50.4287 46.4839 49.7341 45.9782 49.227L43.606 46.8496C43.5953 46.8395 43.5848 46.8292 43.5748 46.8183L43.1028 46.3449C42.584 45.8269 42.2042 45.4869 41.6785 45.4869H37.0578C36.6371 45.487 36.2337 45.6582 35.936 45.9629C35.6383 46.2676 35.4707 46.6809 35.47 47.1122V63.6836C35.4706 64.2433 35.6877 64.7798 36.0737 65.1755C36.4597 65.5712 36.9831 65.7938 37.5291 65.7945H62.0631C62.6091 65.7938 63.1325 65.5713 63.5185 65.1755C63.9046 64.7798 64.1217 64.2433 64.1223 63.6836V58.3908ZM67.8241 52.7005C67.8241 51.8038 67.5647 50.9272 67.0787 50.1815C66.5927 49.4359 65.9019 48.8548 65.0937 48.5116C64.2855 48.1684 63.3962 48.0786 62.5382 48.2536C61.6801 48.4285 60.892 48.8603 60.2734 49.4944C59.6548 50.1285 59.2336 50.9363 59.0629 51.8158C58.8922 52.6953 58.9798 53.607 59.3146 54.4355C59.6494 55.2639 60.2163 55.972 60.9437 56.4702C61.671 56.9684 62.5262 57.2344 63.401 57.2344C64.5737 57.233 65.6979 56.7549 66.5271 55.9049C67.3563 55.055 67.8227 53.9025 67.8241 52.7005ZM66.3949 50.4222C66.3403 50.3662 66.2755 50.3218 66.2042 50.2915C66.1329 50.2612 66.0564 50.2456 65.9792 50.2456C65.902 50.2456 65.8256 50.2612 65.7542 50.2915C65.6829 50.3218 65.6181 50.3662 65.5635 50.4222L62.3655 53.7003L61.2387 52.5452C61.1284 52.4322 60.9789 52.3687 60.823 52.3687C60.667 52.3687 60.5175 52.4322 60.4073 52.5452C60.297 52.6582 60.2351 52.8115 60.2351 52.9713C60.2351 53.1311 60.297 53.2844 60.4073 53.3974L61.9499 54.9787C62.0045 55.0346 62.0693 55.079 62.1406 55.1093C62.212 55.1396 62.2884 55.1552 62.3656 55.1552C62.4428 55.1552 62.5193 55.1396 62.5906 55.1093C62.6619 55.079 62.7267 55.0346 62.7813 54.9787L66.3949 51.2744C66.4495 51.2184 66.4928 51.152 66.5224 51.0789C66.5519 51.0058 66.5671 50.9274 66.5671 50.8483C66.5671 50.7691 66.5519 50.6908 66.5224 50.6177C66.4928 50.5445 66.4495 50.4781 66.3949 50.4222ZM60.9752 62.0319H38.617C38.461 62.0319 38.3115 62.0954 38.2013 62.2084C38.091 62.3214 38.0291 62.4747 38.0291 62.6345C38.0291 62.7943 38.091 62.9476 38.2013 63.0606C38.3115 63.1736 38.461 63.2371 38.617 63.2371H60.9752C61.1311 63.2371 61.2807 63.1736 61.3909 63.0606C61.5012 62.9476 61.5631 62.7943 61.5631 62.6345C61.5631 62.4747 61.5012 62.3214 61.3909 62.2084C61.2807 62.0954 61.1311 62.0319 60.9752 62.0319ZM38.617 59.1211H44.3518C44.5077 59.1211 44.6573 59.0576 44.7675 58.9446C44.8778 58.8316 44.9397 58.6783 44.9397 58.5185C44.9397 58.3587 44.8778 58.2054 44.7675 58.0924C44.6573 57.9794 44.5077 57.9159 44.3518 57.9159H38.617C38.461 57.9159 38.3115 57.9794 38.2013 58.0924C38.091 58.2054 38.0291 58.3587 38.0291 58.5185C38.0291 58.6783 38.091 58.8316 38.2013 58.9446C38.3115 59.0576 38.461 59.1211 38.617 59.1211Z" fill="white"/>
<defs>
<linearGradient id="paint0_linear_3218_9013" x1="52.592" y1="-6.0847" x2="41.8907" y2="103.068" gradientUnits="userSpaceOnUse">
<stop stop-color="white"/>
<stop offset="1" stop-color="#D7D6D6"/>
</linearGradient>
</defs>
</svg>
