<svg width="95" height="94" viewBox="0 0 95 94" fill="none" xmlns="http://www.w3.org/2000/svg">
<path d="M47.5985 93.8244C73.5075 93.8244 94.4691 72.8211 94.4177 46.9122C94.3663 21.0033 73.3213 0 47.4123 0C21.5034 0 0.541682 21.0033 0.593099 46.9122C0.644516 72.8211 21.6896 93.8244 47.5985 93.8244Z" fill="url(#paint0_linear_3037_979)"/>
<path d="M6.375 46.7512C6.375 24.091 24.8078 5.6582 47.468 5.6582C70.1282 5.6582 88.561 24.091 88.561 46.7512C88.561 69.4114 70.1282 87.8442 47.468 87.8442C24.8078 87.8442 6.375 69.4114 6.375 46.7512Z" fill="#477FD3"/>
<path d="M26.6658 37.8985L28.4553 38.0261C28.6445 38.7148 28.9197 39.377 29.278 40.0026L28.1005 41.3614C27.8547 41.6452 27.8698 42.0716 28.1357 42.3375L30.1624 44.3643C30.4283 44.6316 30.8547 44.6452 31.1385 44.3994L32.4973 43.2219C33.1236 43.5802 33.7851 43.8554 34.4738 44.0446L34.6014 45.8341C34.6286 46.2097 34.9411 46.4999 35.3166 46.4999H38.1833C38.5588 46.4999 38.8713 46.2097 38.8985 45.8341L39.0261 44.0446C39.7148 43.8554 40.377 43.5802 41.0026 43.2219L42.3614 44.3994C42.6452 44.6452 43.0716 44.6316 43.3375 44.3643L45.3643 42.3375C45.6301 42.0716 45.6452 41.6459 45.3994 41.3614L44.2219 40.0026C44.5802 39.3763 44.8554 38.7148 45.0446 38.0261L46.8341 37.8985C47.2097 37.8713 47.4999 37.5588 47.4999 37.1833V34.3166C47.4999 33.9411 47.2097 33.6286 46.8341 33.6014L45.0446 33.4738C44.8554 32.7851 44.5802 32.1229 44.2219 31.4973L45.3994 30.1385C45.6452 29.8547 45.6301 29.4283 45.3643 29.1624L43.3375 27.1357C43.0716 26.8691 42.6452 26.8554 42.3614 27.1005L41.0026 28.278C40.3763 27.9197 39.7148 27.6445 39.0261 27.4553L38.8985 25.6658C38.8713 25.2902 38.5588 25 38.1833 25H35.3166C34.9411 25 34.6286 25.2902 34.6014 25.6658L34.4738 27.4553C33.7851 27.6445 33.1229 27.9197 32.4973 28.278L31.1378 27.1005C30.8389 26.8404 30.386 26.8741 30.1273 27.1729C29.8678 27.4718 29.9001 27.9247 30.1996 28.1834L31.9555 29.7049C32.1977 29.9142 32.5503 29.9378 32.8191 29.7622C33.5823 29.2598 34.4165 28.913 35.2966 28.7317C35.6112 28.6672 35.8441 28.4013 35.867 28.0809L35.9838 26.4333H37.5161L37.6336 28.0802C37.6565 28.4006 37.8895 28.6665 38.2041 28.731C39.0848 28.9123 39.9183 29.2591 40.6816 29.7615C40.9496 29.9378 41.3015 29.9142 41.5452 29.7042L42.7964 28.6199L43.88 29.7035L42.7957 30.9548C42.5857 31.197 42.5621 31.5503 42.7384 31.8183C43.2408 32.5816 43.5876 33.4158 43.769 34.2958C43.8335 34.6105 44.0993 34.8434 44.4197 34.8663L46.0666 34.9838V36.5161L44.4197 36.6336C44.0993 36.6565 43.8335 36.8895 43.769 37.2041C43.5876 38.0848 43.2408 38.9183 42.7384 39.6816C42.5621 39.9496 42.5857 40.3022 42.7957 40.5452L43.88 41.7964L42.7964 42.88L41.5452 41.7957C41.3022 41.585 40.9496 41.5621 40.6816 41.7384C39.9183 42.2408 39.0841 42.5876 38.2041 42.769C37.8895 42.8335 37.6565 43.0993 37.6336 43.4197L37.5161 45.0666H35.9838L35.8663 43.4197C35.8434 43.0993 35.6105 42.8335 35.2958 42.769C34.4151 42.5876 33.5816 42.2408 32.8183 41.7384C32.5496 41.5621 32.197 41.585 31.9548 41.7957L30.7035 42.88L29.6199 41.7964L30.7042 40.5452C30.9142 40.3029 30.9378 39.9496 30.7615 39.6816C30.2591 38.9183 29.9123 38.0841 29.731 37.2041C29.6665 36.8895 29.4006 36.6565 29.0802 36.6336L27.4333 36.5161V34.9838L29.0802 34.8663C29.4006 34.8434 29.6665 34.6105 29.731 34.2958C29.9123 33.4151 30.2591 32.5816 30.7615 31.8183C30.9378 31.5503 30.9142 31.1977 30.7042 30.9548L29.1834 29.1996C28.9254 28.9001 28.4718 28.8678 28.1729 29.1273C27.8734 29.3867 27.8411 29.8389 28.1005 30.1378L29.278 31.4966C28.9197 32.1229 28.6445 32.7844 28.4553 33.4731L26.6658 33.6007C26.2902 33.6286 26 33.9411 26 34.3166V37.1833C26 37.5588 26.2902 37.8713 26.6658 37.8985Z" fill="white"/>
<path d="M36.7509 41.4842C39.9121 41.4842 42.4842 38.9121 42.4842 35.7509C42.4842 32.5897 39.9121 30.0176 36.7509 30.0176C33.5897 30.0176 31.0176 32.5897 31.0176 35.7509C31.0176 38.9121 33.5897 41.4842 36.7509 41.4842ZM36.0342 31.5154V32.1676C36.0342 32.5632 36.3553 32.8842 36.7509 32.8842C37.1465 32.8842 37.4676 32.5632 37.4676 32.1676V31.5154C39.2642 31.8186 40.6825 33.2375 40.9864 35.0342H40.3342C39.9386 35.0342 39.6175 35.3553 39.6175 35.7509C39.6175 36.1465 39.9386 36.4676 40.3342 36.4676H40.9864C40.6832 38.2642 39.2642 39.6825 37.4676 39.9864V39.3342C37.4676 38.9386 37.1465 38.6175 36.7509 38.6175C36.3553 38.6175 36.0342 38.9386 36.0342 39.3342V39.9864C34.2375 39.6832 32.8193 38.2642 32.5154 36.4676H33.1676C33.5632 36.4676 33.8842 36.1465 33.8842 35.7509C33.8842 35.3553 33.5632 35.0342 33.1676 35.0342H32.5154C32.8193 33.2375 34.2375 31.8193 36.0342 31.5154Z" fill="white"/>
<path d="M37.6765 37.6896C37.8163 37.8294 37.9997 37.8996 38.1832 37.8996C38.3667 37.8996 38.5501 37.8294 38.6899 37.6896C38.9701 37.4094 38.9701 36.9565 38.6899 36.6762L37.4665 35.4529V34.3163C37.4665 33.9207 37.1455 33.5996 36.7499 33.5996C36.3543 33.5996 36.0332 33.9207 36.0332 34.3163V35.7496C36.0332 35.9395 36.1085 36.1223 36.2432 36.2563L37.6765 37.6896Z" fill="white"/>
<path d="M68.001 25.5036C67.3753 25.0335 66.5526 24.8808 65.803 25.0951L55.7697 27.9618C54.4403 28.3416 53.6663 29.7327 54.0468 31.0628C54.4266 32.3908 55.8191 33.164 57.1471 32.7849L60.8157 31.7372L57.8623 36.045C56.2104 38.453 54.2654 40.6704 52.0832 42.634C51.7893 42.8992 51.765 43.3521 52.0301 43.6467C52.2946 43.9405 52.7468 43.9642 53.0421 43.7004C55.3089 41.6601 57.3284 39.3574 59.0448 36.8563L63.1234 30.908C63.2939 30.6586 63.2896 30.3289 63.1133 30.0838C62.9363 29.8387 62.6246 29.7312 62.335 29.8136L56.7544 31.4082C56.1839 31.5702 55.5869 31.2391 55.425 30.6708C55.2616 30.101 55.5934 29.5048 56.1631 29.3414L66.1964 26.4747C66.5175 26.3837 66.8701 26.4482 67.1388 26.6496C67.4069 26.8502 67.5667 27.1713 67.5667 27.5074V38.2574C67.5667 38.8501 67.0844 39.3324 66.4917 39.3324C65.899 39.3324 65.4167 38.8501 65.4167 38.2574V33.6765C65.4167 33.3626 65.2124 33.0845 64.9122 32.992C64.6126 32.8996 64.2872 33.0121 64.1088 33.2715L60.8164 38.0725C53.5143 48.7214 41.4507 55.3534 28.5078 55.8156C27.9266 55.8156 27.455 55.3606 27.4342 54.7793C27.4127 54.1867 27.8778 53.6871 28.4698 53.6656C36.4635 53.3811 44.3898 50.5023 50.7903 45.5602C51.1035 45.3187 51.1615 44.8686 50.92 44.5547C50.6785 44.2422 50.2291 44.1827 49.9145 44.4257C43.7491 49.1865 36.1152 51.9593 28.4189 52.233C27.7488 52.2574 27.1289 52.5405 26.6724 53.0307C26.2159 53.5209 25.978 54.1601 26.0016 54.8295C26.0503 56.1861 27.1504 57.249 28.5078 57.249C28.5164 57.249 28.5902 57.2482 28.5981 57.2475C41.9538 56.7702 54.441 49.9053 61.9989 38.883L63.9834 35.9884V38.2574C63.9834 39.6405 65.1085 40.7657 66.4917 40.7657C67.8748 40.7657 69 39.6405 69 38.2574V27.5074C69 26.7248 68.6266 25.9759 68.001 25.5036Z" fill="white"/>
<path d="M36.0342 60.834H31.7342C31.3386 60.834 31.0176 61.155 31.0176 61.5506V67.284C31.0176 67.6796 31.3386 68.0006 31.7342 68.0006H36.0342C36.4298 68.0006 36.7509 67.6796 36.7509 67.284V61.5506C36.7509 61.155 36.4298 60.834 36.0342 60.834ZM35.3176 66.5673H32.4509V62.2673H35.3176V66.5673Z" fill="white"/>
<path d="M43.917 57.9668H39.6171C39.2215 57.9668 38.9004 58.2879 38.9004 58.6835V67.2834C38.9004 67.679 39.2215 68.0001 39.6171 68.0001H43.917C44.3126 68.0001 44.6337 67.679 44.6337 67.2834V58.6835C44.6337 58.2879 44.3126 57.9668 43.917 57.9668ZM43.2004 66.5668H40.3337V59.4001H43.2004V66.5668Z" fill="white"/>
<path d="M51.7998 55.0996H47.4999C47.1043 55.0996 46.7832 55.4207 46.7832 55.8163V67.2829C46.7832 67.6785 47.1043 67.9996 47.4999 67.9996H51.7998C52.1962 67.9996 52.5165 67.6785 52.5165 67.2829V64.4162C52.5165 64.0206 52.1962 63.6996 51.7998 63.6996C51.4035 63.6996 51.0832 64.0206 51.0832 64.4162V66.5662H48.2165V56.5329H51.0832V61.5496C51.0832 61.9452 51.4035 62.2662 51.7998 62.2662C52.1962 62.2662 52.5165 61.9452 52.5165 61.5496V55.8163C52.5165 55.4207 52.1962 55.0996 51.7998 55.0996Z" fill="white"/>
<path d="M59.6827 50.084H55.3827C54.9864 50.084 54.666 50.405 54.666 50.8006V67.2839C54.666 67.6795 54.9864 68.0006 55.3827 68.0006H59.6827C60.079 68.0006 60.3993 67.6795 60.3993 67.2839V50.8006C60.3993 50.405 60.079 50.084 59.6827 50.084ZM58.966 66.5672H56.0993V51.5173H58.966V66.5672Z" fill="white"/>
<path d="M67.5674 44.3496H63.2674C62.8711 44.3496 62.5508 44.6707 62.5508 45.0663V67.2829C62.5508 67.6784 62.8711 67.9995 63.2674 67.9995H67.5674C67.9637 67.9995 68.2841 67.6784 68.2841 67.2829V55.0996C68.2841 54.704 67.9637 54.3829 67.5674 54.3829C67.1711 54.3829 66.8508 54.704 66.8508 55.0996V66.5662H63.9841V45.7829H66.8508V52.2329C66.8508 52.6285 67.1711 52.9496 67.5674 52.9496C67.9637 52.9496 68.2841 52.6285 68.2841 52.2329V45.0663C68.2841 44.6707 67.9637 44.3496 67.5674 44.3496Z" fill="white"/>
<defs>
<linearGradient id="paint0_linear_3037_979" x1="52.5979" y1="-6.0847" x2="41.8966" y2="103.068" gradientUnits="userSpaceOnUse">
<stop stop-color="white"/>
<stop offset="1" stop-color="#D7D6D6"/>
</linearGradient>
</defs>
</svg>
