<svg width="95" height="95" viewBox="0 0 95 95" fill="none" xmlns="http://www.w3.org/2000/svg">
<path d="M47.0985 94.4729C73.0075 94.4729 93.9691 73.4696 93.9177 47.5607C93.8663 21.6518 72.8213 0.648438 46.9123 0.648438C21.0034 0.648438 0.0416817 21.6518 0.0930987 47.5607C0.144516 73.4696 21.1896 94.4729 47.0985 94.4729Z" fill="url(#paint0_linear_3243_2406)"/>
<path d="M5.875 47.3996C5.875 24.7394 24.3078 6.30664 46.968 6.30664C69.6282 6.30664 88.061 24.7394 88.061 47.3996C88.061 70.0599 69.6282 88.4926 46.968 88.4926C24.3078 88.4926 5.875 70.0599 5.875 47.3996Z" fill="#75609F"/>
<path d="M47.4955 33.9773C40.2837 33.9773 34.4158 39.8434 34.4158 47.0544C34.4158 52.0634 37.2464 56.4227 41.3923 58.6197V67.3519C41.3923 67.8454 41.6707 68.2799 42.117 68.485C42.5633 68.6925 43.0746 68.6233 43.4509 68.3036L47.4947 64.863L51.5385 68.3044C51.7713 68.5018 52.0556 68.6039 52.3442 68.6039C52.5214 68.6039 52.7002 68.5651 52.869 68.4866C53.3178 68.2799 53.5962 67.8454 53.5962 67.3527V58.6206C57.7413 56.4244 60.5727 52.0643 60.5727 47.0544C60.5727 39.8443 54.7065 33.9773 47.4955 33.9773ZM52.2472 67.1359L48.3046 63.7805C47.8347 63.379 47.153 63.3789 46.6856 63.7797L42.7413 67.1359V59.239C44.2161 59.8161 45.8191 60.1333 47.4955 60.1333C49.1711 60.1333 50.7741 59.8161 52.2472 59.239V67.1359ZM47.4955 58.7851C41.027 58.7851 35.7649 53.523 35.7649 47.0544C35.7649 40.5876 41.027 35.3263 47.4955 35.3263C53.9624 35.3263 59.2236 40.5876 59.2236 47.0544C59.2236 53.523 53.9624 58.7851 47.4955 58.7851ZM47.4955 37.5149C42.2351 37.5149 37.9559 41.7949 37.9559 47.0544C37.9559 52.314 42.236 56.594 47.4955 56.594C52.7542 56.594 57.0334 52.3148 57.0334 47.0544C57.0334 41.794 52.7542 37.5149 47.4955 37.5149ZM47.4955 55.2458C42.9793 55.2458 39.3041 51.5715 39.3041 47.0544C39.3041 42.5373 42.9784 38.8631 47.4955 38.8631C52.0109 38.8631 55.6843 42.5373 55.6843 47.0544C55.6843 51.5715 52.0109 55.2458 47.4955 55.2458ZM49.6385 44.644L48.6421 41.5595C48.4809 41.06 48.0203 40.7242 47.4955 40.7242C46.9699 40.7242 46.5076 41.06 46.3464 41.5595L45.35 44.644L42.1069 44.6398C41.5804 44.6398 41.1189 44.9747 40.9578 45.4751C40.7983 45.9754 40.9755 46.517 41.399 46.8224L44.0271 48.7224L43.0198 51.8019C42.8535 52.2996 43.0273 52.843 43.4517 53.1543C43.4542 53.156 43.4568 53.1577 43.4593 53.1602C43.6711 53.3112 43.9174 53.3863 44.1638 53.3863C44.4135 53.3863 44.6633 53.3087 44.8742 53.1535L47.4955 51.2442L50.1118 53.1526C50.5353 53.4639 51.1065 53.4648 51.5317 53.156C51.9595 52.8472 52.135 52.303 51.9696 51.8061L50.9614 48.7232L53.5886 46.8233C54.0122 46.5179 54.1902 45.9762 54.0299 45.4734C53.8687 44.9747 53.4072 44.6398 52.8799 44.6398L49.6385 44.644ZM50.0831 47.6923C49.6629 48.0011 49.4875 48.5419 49.6478 49.0439L50.5497 51.8019L48.2042 50.0917C47.7773 49.7821 47.2061 49.7829 46.7843 50.0926L44.438 51.8019L45.3416 49.0396C45.5002 48.5427 45.3247 48.0011 44.9003 47.6897L42.5481 45.9889L45.4454 45.9931C45.9752 45.9981 46.4401 45.6615 46.6012 45.1578L47.4938 42.3956L48.3856 45.1553C48.5459 45.6581 49.0049 45.9931 49.5237 45.9931H49.5364L52.4395 45.9889L50.0831 47.6923ZM35.8341 58.2139H34.3441C34.3357 58.2139 34.3298 58.2071 34.3298 58.2012C34.291 55.0113 33.2254 53.8917 32.3387 53.5137C31.4157 53.1206 30.4766 53.4378 29.9552 53.9271C29.4085 54.4409 29.476 55.2011 29.5418 55.9359C29.6439 57.0791 29.757 58.3582 28.0342 59.4398C27.7861 59.0348 27.3407 58.764 26.8319 58.764H24.7446C23.9668 58.764 23.334 59.3967 23.334 60.1746V67.1916C23.334 67.9695 23.9668 68.6022 24.7446 68.6022H26.8328C27.2976 68.6022 27.7093 68.3753 27.9667 68.0277C28.3885 68.2656 28.8466 68.382 29.3562 68.382H35.0697C36.1935 68.382 37.1882 67.7509 37.6666 66.7351C38.2943 65.4063 39.6323 61.506 38.312 59.4381C37.9509 58.8745 37.2261 58.2012 35.8341 58.2139ZM26.8943 67.1916C26.8943 67.2236 26.864 67.254 26.8319 67.254H24.7446C24.7126 67.254 24.6822 67.2236 24.6822 67.1916V60.1746C24.6822 60.1417 24.7109 60.1122 24.7446 60.1122H26.8328C26.8657 60.1122 26.8952 60.1409 26.8952 60.1746V67.1916H26.8943ZM36.4457 66.1606C36.1884 66.7073 35.6729 67.0338 35.0688 67.0338H29.3554C28.9968 67.0338 28.7108 66.9376 28.429 66.7208L28.2434 66.5791V60.874C31.1997 59.3259 31.0048 57.1424 30.8858 55.8161C30.8571 55.4972 30.8141 55.0146 30.8791 54.9109C31.0419 54.7581 31.4241 54.5903 31.8105 54.7556C32.1514 54.9007 32.9486 55.5293 32.9816 58.2181C32.9908 58.9597 33.6025 59.563 34.345 59.563H35.84H35.8619C36.6946 59.563 37.0102 59.9055 37.1755 60.1645C37.9635 61.3997 37.2582 64.4395 36.4457 66.1606ZM46.8214 31.3947V26.0804C46.8214 25.7074 47.1234 25.4062 47.4955 25.4062C47.8676 25.4062 48.1696 25.7083 48.1696 26.0804V31.3947C48.1696 31.7677 47.8676 32.0689 47.4955 32.0689C47.1234 32.0689 46.8214 31.7668 46.8214 31.3947ZM36.4221 29.2282C36.2357 28.9059 36.3462 28.4933 36.6685 28.3068C36.9908 28.1204 37.4033 28.2309 37.5898 28.5532L40.2465 33.1547C40.433 33.477 40.3225 33.8895 40.0002 34.076C39.8939 34.1376 39.7783 34.1663 39.6636 34.1663C39.4307 34.1663 39.2037 34.0456 39.0789 33.8288L36.4221 29.2282ZM28.7454 36.2308C28.9319 35.9085 29.3444 35.798 29.6667 35.9836L34.2707 38.6403C34.593 38.8268 34.7035 39.2394 34.5179 39.5616C34.393 39.7785 34.1661 39.8991 33.9332 39.8991C33.8185 39.8991 33.7029 39.8696 33.5966 39.8088L28.9926 37.1521C28.6695 36.9656 28.5589 36.5531 28.7454 36.2308ZM54.7411 33.1547L57.3979 28.5532C57.5843 28.2309 57.9969 28.1204 58.3192 28.3068C58.6415 28.4933 58.752 28.9059 58.5655 29.2282L55.9088 33.8296C55.7839 34.0456 55.5569 34.1671 55.3241 34.1671C55.2093 34.1671 55.0938 34.1376 54.9875 34.0768C54.6652 33.8895 54.5546 33.4778 54.7411 33.1547ZM65.9967 37.1521L61.3927 39.8088C61.2864 39.8704 61.1708 39.8991 61.0561 39.8991C60.8232 39.8991 60.5963 39.7785 60.4714 39.5616C60.285 39.2394 60.3955 38.8268 60.7186 38.6403L65.3226 35.9836C65.6449 35.7971 66.0575 35.9076 66.2439 36.2308C66.4296 36.5531 66.319 36.9656 65.9967 37.1521Z" fill="white"/>
<defs>
<linearGradient id="paint0_linear_3243_2406" x1="52.0979" y1="-5.43626" x2="41.3966" y2="103.716" gradientUnits="userSpaceOnUse">
<stop stop-color="white"/>
<stop offset="1" stop-color="#D7D6D6"/>
</linearGradient>
</defs>
</svg>
