<svg width="95" height="95" viewBox="0 0 95 95" fill="none" xmlns="http://www.w3.org/2000/svg">
<path d="M47.0985 94.6486C73.0075 94.6486 93.9691 73.6453 93.9177 47.7364C93.8663 21.8275 72.8213 0.824219 46.9123 0.824219C21.0034 0.824219 0.0416817 21.8275 0.0930987 47.7364C0.144516 73.6453 21.1896 94.6486 47.0985 94.6486Z" fill="url(#paint0_linear_3243_2397)"/>
<path d="M5.875 47.5754C5.875 24.9152 24.3078 6.48242 46.968 6.48242C69.6282 6.48242 88.061 24.9152 88.061 47.5754C88.061 70.2356 69.6282 88.6684 46.968 88.6684C24.3078 88.6684 5.875 70.2356 5.875 47.5754Z" fill="#47ACD3"/>
<path d="M42.8537 30.6748C43.0199 31.0532 42.8445 31.487 42.4753 31.6532C39.4387 32.9822 37.3436 35.9358 37.159 39.1662C37.1313 39.5631 36.8082 39.8676 36.4206 39.8676C36.4021 39.8676 36.3929 39.8676 36.3744 39.8676C35.9683 39.84 35.6545 39.4892 35.673 39.0831C35.8945 35.2897 38.3312 31.8378 41.8754 30.2872C42.2538 30.1302 42.6876 30.2964 42.8537 30.6748ZM37.3528 41.6674C37.2605 41.2706 36.8636 41.0214 36.4575 41.1137C36.0606 41.206 35.8114 41.6028 35.9037 41.9997C36.1068 42.895 36.4298 43.7534 36.8636 44.5656C37.0021 44.8148 37.2513 44.9532 37.5189 44.9532C37.6389 44.9532 37.7589 44.9256 37.8697 44.8609C38.2296 44.6671 38.3681 44.2149 38.1743 43.8549C37.8051 43.1719 37.5282 42.4335 37.3528 41.6674ZM61.7286 37.3756C61.784 38.1232 61.6732 38.8985 61.3686 39.6184C60.3165 42.0828 57.3076 43.338 54.8432 42.2674C52.9326 41.4367 51.6497 39.4154 51.8158 37.3202C51.8528 36.7849 51.9727 36.2588 52.185 35.7512C53.2095 33.2776 56.2369 32.05 58.7105 33.0838C60.4549 33.8129 61.5902 35.5481 61.7286 37.3756ZM60.2426 37.4587C60.1965 36.5819 59.8365 35.7143 59.1074 35.0589C57.9536 34.0252 56.1631 33.9052 54.8709 34.7544C53.8372 35.4374 53.2372 36.6557 53.3018 37.8925C53.4218 40.1722 55.8677 41.7505 57.9906 40.9568C59.5042 40.3937 60.3165 38.9078 60.2426 37.4587ZM68.8817 41.289L67.8203 43.7995C67.5526 44.4364 66.7957 44.741 66.1589 44.4641L63.6392 43.4026C63.27 43.8457 62.8639 44.2426 62.4301 44.6025C62.4301 44.6025 63.4638 47.1315 63.4638 47.1407C63.7222 47.7776 63.4084 48.5344 62.7716 48.7836C62.2639 48.9867 61.7655 49.1989 61.2671 49.4205C60.7964 49.6235 60.3165 49.9004 59.7904 49.9004C59.292 49.9004 58.8305 49.6143 58.6274 49.1343L57.5844 46.5869C57.4552 46.5961 57.326 46.5961 57.1968 46.6054C56.3846 47.9437 55.3508 49.1251 54.1141 50.1035C52.2589 51.571 51.1882 53.6938 51.1882 55.9367V58.3918H51.6036C52.2958 58.3918 52.8588 58.9548 52.8588 59.647V66.0894C52.8588 66.7816 52.2958 67.3447 51.6036 67.3447H50.8283V67.7692C50.8283 69.5967 49.3423 71.0827 47.5148 71.0827H44.312C42.4846 71.0827 40.9986 69.5967 40.9986 67.7692V67.3447H40.214C39.5218 67.3447 38.9588 66.7816 38.9588 66.0894C38.9588 63.9389 38.9588 61.7976 38.9588 59.647C38.9588 58.9548 39.5218 58.3918 40.214 58.3918H40.6294V56.7858C40.4355 56.9796 40.1494 57.0904 39.8541 57.0812C39.5587 57.0719 39.2726 56.9427 39.0695 56.7212L37.8974 55.4936C37.6297 55.6229 37.3528 55.7244 37.0759 55.8075L37.039 57.5334C37.0298 58.1241 36.5314 58.6041 35.9406 58.6041C35.9314 58.6041 35.9222 58.6041 35.913 58.6041L34.0393 58.5672C33.4394 58.5487 32.9687 58.0687 32.9687 57.4596L33.0056 55.7244C33.0056 55.6875 32.1841 55.3921 32.2026 55.3736L30.9566 56.5643C30.5135 56.9796 29.8398 56.9704 29.4152 56.5458L28.1046 55.1798C27.6892 54.7368 27.6985 54.0538 28.123 53.6385L29.3783 52.4386C29.2583 52.1802 29.1475 51.9033 29.0645 51.6264L27.3385 51.5894C26.7386 51.5802 26.2494 51.0634 26.2679 50.4634L26.3048 48.5898C26.3232 47.9806 26.8401 47.5007 27.4308 47.5191L29.1475 47.556C29.2491 47.2791 29.3598 47.0115 29.4983 46.753L28.3076 45.5163C27.8831 45.0825 27.8923 44.3995 28.3261 43.9657L29.6921 42.6643C30.1351 42.2489 30.8181 42.2582 31.2427 42.6827L32.4426 43.938C32.7102 43.8088 32.9779 43.7072 33.2548 43.6242C32.7933 42.1105 32.5995 40.5322 32.6918 38.9354C33.0794 32.2808 38.3958 26.946 45.0597 26.5306C46.7948 26.4199 48.53 26.6599 50.1453 27.2044C50.2745 26.9367 50.496 26.7152 50.7821 26.5952L53.3018 25.5707C53.9387 25.3123 54.6863 25.6261 54.9447 26.263L55.9785 28.8012C56.5415 28.7458 57.1137 28.755 57.6767 28.8104L58.7474 26.2814C59.0058 25.6538 59.7442 25.34 60.3903 25.6077C60.3903 25.6077 62.9008 26.6599 62.9008 26.6691C63.5376 26.9367 63.833 27.6936 63.5653 28.3212L62.5039 30.8409C62.9469 31.2009 63.3438 31.607 63.6945 32.05L66.242 30.9978C66.888 30.7394 67.6264 31.044 67.8849 31.6901C67.8849 31.6901 68.9094 34.2006 68.9094 34.2098C69.1678 34.8467 68.854 35.5943 68.2171 35.8527L65.6882 36.8772C65.7436 37.4494 65.7343 38.0125 65.6789 38.5755L68.2079 39.6461C68.8355 39.9046 69.1401 40.6429 68.8817 41.289ZM40.5371 54.8199C40.5832 54.7368 40.5832 54.5522 40.4725 54.4507L39.3741 53.297C39.1341 53.0478 39.0972 52.6601 39.2911 52.374C39.3649 52.2632 39.4295 52.1617 39.4849 52.0509C39.2357 51.6541 38.9496 51.2756 38.6265 50.9341C38.6265 50.9434 38.6173 50.9526 38.6173 50.9618C38.5619 51.1187 38.4973 51.2664 38.4235 51.4049C37.7589 52.6601 36.3744 53.4723 34.9531 53.3708C33.6147 53.2693 32.4333 52.4847 31.8519 51.2756C31.4458 50.3896 31.3904 49.3743 31.7226 48.4606C32.138 47.3161 33.1533 46.4208 34.3347 46.1439C34.2701 46.1623 33.827 45.1286 33.7717 45.0086C33.3932 45.1194 33.0333 45.2763 32.6825 45.4886C32.3872 45.6639 31.9995 45.6178 31.7596 45.3594L30.4489 43.9841L29.6459 44.7502L30.9566 46.1162C31.1965 46.3654 31.2335 46.7531 31.0396 47.0392C30.7535 47.4822 30.5412 47.9621 30.4028 48.4882C30.3197 48.8205 30.0151 49.0605 29.6644 49.0513L27.7631 49.0143L27.7538 50.0942L29.6552 50.1404C29.9967 50.1496 30.292 50.3896 30.3659 50.7218C30.4766 51.2479 30.6705 51.7464 30.9381 52.1986C31.1135 52.494 31.0581 52.8724 30.8089 53.1124L29.4337 54.423L30.1997 55.226L31.575 53.9153C31.8242 53.6754 32.2118 53.6385 32.4979 53.8323C32.9225 54.1184 33.4209 54.3399 33.9286 54.4599C34.2701 54.543 34.5008 54.8476 34.5008 55.1983L34.4639 57.0996L35.5715 57.1273L35.6084 55.2352C35.6176 54.8937 35.8576 54.5984 36.1991 54.5245C36.7159 54.4138 37.2051 54.2199 37.6758 53.9523C37.9712 53.7769 38.3496 53.8323 38.5896 54.0815L39.9002 55.4475C39.891 55.4383 40.5371 54.8199 40.5371 54.8199ZM34.2424 47.7406C33.2917 48.2021 32.7656 49.3374 33.0887 50.3619C33.4486 51.4972 34.7039 52.134 35.8391 51.7925C36.2545 51.6633 36.6237 51.3956 36.8913 51.0541C37.0205 50.888 37.1313 50.7034 37.2051 50.5003C37.242 50.3988 37.4266 49.8635 37.3343 49.7896C36.5498 49.1159 35.8484 48.3683 35.2392 47.5376C34.99 47.5284 34.75 47.556 34.5193 47.6299C34.4177 47.6576 34.3254 47.6945 34.2424 47.7406ZM49.333 67.3447H42.4753V67.7692C42.4753 68.7753 43.2968 69.5967 44.3028 69.5967H47.5055C48.5116 69.5967 49.333 68.7753 49.333 67.7692V67.3447ZM51.3728 63.6066H40.4448V65.8494H51.3728V63.6066ZM40.4448 59.8778V62.1206H51.3728V59.8778H40.4448ZM52.5265 49.5035L50.6621 48.719C50.0253 48.4513 49.7207 47.7129 49.9883 47.0761L51.0498 44.5471C50.616 44.1872 50.2191 43.7811 49.8591 43.338C49.8591 43.338 47.3302 44.3718 47.3209 44.3718C46.6841 44.6302 45.9457 44.3164 45.678 43.6888L44.6443 41.1506C44.4228 40.5783 44.6351 39.9507 45.115 39.6277C45.1889 39.5815 45.2627 39.5446 45.3365 39.5077L47.8655 38.474C47.8101 37.9017 47.8194 37.3387 47.8747 36.7664L45.355 35.705C44.7182 35.4466 44.4136 34.7082 44.6812 34.0621L45.7427 31.5516C46.0011 30.924 46.7672 30.6194 47.3856 30.8779L49.9145 31.9485C50.2745 31.5147 50.6806 31.1086 51.1236 30.7579L50.3391 28.8381C48.7054 28.1643 46.961 27.8782 45.1427 27.9889C39.328 28.3489 34.51 33.1853 34.1685 38.9908C34.0855 40.4584 34.2608 41.9074 34.7039 43.3011C35.3961 45.4793 36.7529 47.4361 38.5342 48.8667L38.6634 48.9682C39.6141 49.7066 40.3894 50.6111 40.9709 51.6448C42.1615 53.7769 42.0969 56.029 42.0969 58.3826H49.6745V55.9274C49.693 53.5092 50.7175 51.211 52.5265 49.5035ZM67.4141 40.9291L64.5714 39.7292C64.2483 39.5908 64.073 39.2585 64.1283 38.917C64.2668 38.1325 64.2668 37.3295 64.1376 36.5265C64.0822 36.185 64.2668 35.8527 64.5898 35.7235L67.4418 34.5605L66.5835 32.4654L63.7222 33.6283C63.3992 33.7575 63.03 33.6468 62.8362 33.3699C62.3747 32.7146 61.8117 32.1423 61.1564 31.6716C60.8795 31.4686 60.7687 31.0994 60.9072 30.7763L62.107 27.9336L60.0303 27.0475L58.8305 29.8903C58.692 30.2041 58.3597 30.3887 58.0182 30.3333C57.2245 30.2041 56.4215 30.1949 55.6277 30.3241C55.2862 30.3794 54.954 30.1949 54.8247 29.8718L53.6618 27.0198L51.5574 27.869C51.8066 28.4873 52.065 29.115 52.3143 29.7334C52.3604 29.8534 52.988 31.247 52.9419 31.284C51.9358 31.9947 51.1328 32.7884 50.4129 33.7852L47.0256 32.3546L46.1488 34.4405C46.7487 34.7451 47.3763 34.9943 48.0039 35.2343C48.1424 35.2897 49.5546 35.7235 49.5361 35.8712C49.3238 37.0803 49.3238 38.2155 49.5176 39.4338L46.1211 40.8183L46.9702 42.9135C47.6532 42.6366 48.327 42.3597 49.01 42.0828C49.0746 42.0551 50.3391 41.4829 50.3668 41.529C51.0775 42.535 51.8805 43.3473 52.868 44.058C52.3973 45.184 51.9174 46.31 51.4467 47.4361L53.5326 48.3129L54.9632 44.9163C55.96 45.1009 56.9199 45.2117 57.9352 45.0455C58.2767 44.9902 58.6182 45.184 58.7474 45.4978L59.9103 48.359L62.0147 47.5007L60.8518 44.6487C60.7226 44.3256 60.8241 43.9657 61.1102 43.7626C61.7655 43.3011 62.3378 42.7289 62.8177 42.0736C63.0208 41.7967 63.39 41.6951 63.7038 41.8244L66.5465 43.0242L67.4141 40.9291ZM28.5384 30.3702L32.2118 32.6223C32.3318 32.6961 32.4703 32.733 32.5995 32.733C32.8487 32.733 33.0887 32.6038 33.2363 32.3823C33.4486 32.0316 33.3379 31.5793 32.9871 31.3578L29.3137 29.1057C28.9629 28.8935 28.5107 29.0042 28.2892 29.3549C28.0769 29.6964 28.1876 30.1579 28.5384 30.3702ZM35.1561 28.8935C35.2946 29.1427 35.5438 29.2811 35.8114 29.2811C35.9314 29.2811 36.0514 29.2534 36.1622 29.1888C36.5221 28.995 36.6606 28.5427 36.4575 28.1828L34.4085 24.3893C34.2147 24.0294 33.7624 23.8909 33.4025 24.094C33.0425 24.2878 32.9041 24.7401 33.1071 25.1L35.1561 28.8935ZM31.0396 37.0249H31.0581C31.455 37.0249 31.7873 36.7018 31.7965 36.305C31.8057 35.8988 31.4827 35.5573 31.0766 35.5389L26.7663 35.4281C26.3694 35.4189 26.0187 35.7419 26.0002 36.1481C25.991 36.5542 26.314 36.8957 26.7201 36.9141L31.0396 37.0249Z" fill="white"/>
<defs>
<linearGradient id="paint0_linear_3243_2397" x1="52.0979" y1="-5.26048" x2="41.3966" y2="103.892" gradientUnits="userSpaceOnUse">
<stop stop-color="white"/>
<stop offset="1" stop-color="#D7D6D6"/>
</linearGradient>
</defs>
</svg>
