<svg xmlns="http://www.w3.org/2000/svg" width="95" height="95" viewBox="0 0 95 95" fill="none">
  <path d="M48.0423 94.291C73.95 94.0297 94.6988 72.816 94.3861 46.909C94.0733 21.0019 72.8176 0.21189 46.9099 0.473181C21.0023 0.734471 0.253497 21.9481 0.566201 47.8552C0.878906 73.7622 22.1347 94.5523 48.0423 94.291Z" fill="url(#paint0_linear_365_10015)"/>
  <path d="M6.22046 47.2199C6.22046 24.5597 24.8163 6.12695 47.6771 6.12695C70.5378 6.12695 89.1337 24.5597 89.1337 47.2199C89.1337 69.8802 70.5378 88.3129 47.6771 88.3129C24.8163 88.3129 6.22046 69.8802 6.22046 47.2199Z" fill="#75609F"/>
  <path d="M73.0522 48.3876L66.3324 34.4008C66.1583 34.0369 65.7137 33.8958 65.3618 34.0926L60.2423 36.8179L60.9794 37.9318C60.5312 38.4071 59.8607 38.6261 59.2606 38.7301C59.9089 37.4343 59.8644 35.3364 59.5199 34.4973C59.394 34.1928 59.1754 33.9812 58.8828 33.8846C58.1196 33.6359 57.1083 34.2374 55.934 34.9428C55.6191 35.1322 55.3117 35.3179 55.0153 35.4775C54.8004 35.5963 54.2707 35.7226 53.5595 35.86C53.541 35.8451 53.515 35.8265 53.4965 35.8117C53.0594 35.4627 52.5334 35.2733 51.974 35.2696C50.1366 35.251 46.873 35.1471 45.9357 35.2139C45.1652 35.2696 44.717 36.0939 44.4021 36.9998C41.5904 37.2672 38.964 37.464 37.5786 37.5122C34.8447 37.6199 32.848 36.8587 32.2664 36.6063C32.296 36.2275 32.3294 35.86 32.3516 35.4701L32.3701 35.1285L27.784 33.0381L27.621 33.595C26.0244 39.1125 23.2016 47.7415 21.9644 48.9148L21.4939 49.3604L27.0172 52.8469L27.2951 52.5016C27.3654 52.4124 28.073 51.5065 28.9398 49.7614L31.8478 51.6216C31.8478 51.6216 29.4436 52.7726 30.7624 54.384C32.0812 55.9955 35.756 54.3283 35.756 54.3283C35.756 54.3283 35.5263 55.5351 36.5006 56.3408C37.4748 57.1465 39.4271 56.8012 39.4271 56.8012C39.4271 56.8012 39.2566 58.0673 40.0568 58.5834C40.8607 59.0995 42.1794 58.7542 42.1794 58.7542C42.1794 58.7542 42.0646 60.076 43.0389 60.711C44.0132 61.3422 45.0467 60.0203 45.0467 60.0203C45.0467 60.0203 47.9732 61.4573 49.5254 61.4016C51.0738 61.3422 51.1886 59.9647 51.1886 59.9647C51.1886 59.9647 53.6558 60.4251 54.7486 59.9647C55.8377 59.5042 55.6673 57.6626 55.6673 57.6626C55.6673 57.6626 57.5603 58.2975 58.5382 57.6626C59.5125 57.0314 59.3976 55.1303 59.3976 55.1303C59.3976 55.1303 61.4647 55.4757 62.5538 54.785C63.6429 54.0944 63.128 51.2169 63.128 51.2169L65.8249 49.6054L66.7732 52.2751C66.9065 52.6501 67.3511 52.8097 67.6919 52.6018L72.6891 49.5794C73.0929 49.3344 73.2485 48.822 73.0411 48.395L73.0522 48.3876ZM55.4932 36.3612C55.8007 36.1941 56.1229 36.001 56.4489 35.8043C56.8712 35.5518 57.6121 35.1099 58.1196 34.9317C58.3789 34.8389 58.6531 35.0097 58.7012 35.2807C58.9013 36.4021 58.6308 38.4813 57.9418 38.7746L57.9604 38.8155H57.9159C57.4713 38.8155 55.8674 37.6496 54.5745 36.6582C54.9857 36.558 55.3154 36.4577 55.4895 36.3612H55.4932ZM26.7764 51.5065L23.0424 49.1487C24.7946 46.5088 27.6396 37.0667 28.4175 34.4305L31.3292 35.756C30.7772 44.9753 27.6951 50.1512 26.7764 51.5065ZM61.8204 52.9397C61.5907 53.8605 60.8424 54.3766 58.9494 53.8605C57.0564 53.3444 54.4189 49.8022 54.4189 49.8022C55.1079 51.4693 57.2269 53.3407 57.801 53.9162C58.3752 54.4917 58.3752 55.7578 57.9159 56.389C57.4565 57.0203 56.5378 56.9052 55.1598 56.6193C53.7817 56.3334 50.9553 53.1142 50.9553 53.1142C51.874 55.4162 54.4708 56.9646 54.4708 56.9646C55.2154 57.9411 54.067 59.2072 51.7739 58.8062C49.4772 58.4052 47.6991 55.795 47.6991 55.795C48.0436 56.8309 49.0178 57.9448 49.7661 58.4609C50.5107 58.977 49.7661 60.0129 49.7661 60.0129C48.8474 61.0488 45.5764 59.0364 45.5764 59.0364C45.5764 59.0364 45.5208 55.9286 44.4873 55.8135C43.4538 55.6984 43.2834 56.5042 43.2834 56.5042C43.2834 56.5042 43.2834 53.2813 41.8497 53.0511C40.4161 52.8209 39.842 54.1427 39.842 54.1427C39.842 54.1427 39.6123 51.3802 38.0045 50.9792C36.3968 50.5782 35.4226 53.1068 35.4226 53.1068C34.7113 51.5362 30.855 49.2193 29.5436 48.4655C30.5957 46.0224 31.7144 42.4468 32.1923 37.6496C33.0962 38.0023 35.0484 38.6076 37.6267 38.5073C38.7492 38.4665 41.2793 38.2845 44.0984 38.0246C44.0576 38.1769 44.0169 38.3254 43.9761 38.4628C43.7316 39.3205 42.7055 40.4826 42.1313 41.0841C41.8572 41.37 41.7534 41.7933 41.9016 42.1572C42.1609 42.7884 42.8537 43.4901 44.8948 43.3231C47.7658 43.0928 48.1658 39.7549 48.1658 39.7549C50.0588 41.021 51.7813 39.5247 51.7813 39.5247C51.7813 39.5247 51.8962 40.4455 52.0666 40.8465C52.237 41.2512 57.9233 47.0026 59.4718 48.4395C61.0202 49.8765 62.0537 52.0077 61.8241 52.9285L61.8204 52.9397ZM68.0734 50.8975C68.0734 50.8975 66.7176 43.3082 62.502 37.3414L65.6063 35.6372L71.7408 48.7514L68.0697 50.8975H68.0734Z" fill="white"/>
  <defs>
    <linearGradient id="paint0_linear_365_10015" x1="52.0313" y1="-5.66597" x2="42.434" y2="103.592" gradientUnits="userSpaceOnUse">
      <stop stop-color="white"/>
      <stop offset="1" stop-color="#D7D6D6"/>
    </linearGradient>
  </defs>
</svg>