<svg width="541" height="322" viewBox="0 0 541 322" fill="none" xmlns="http://www.w3.org/2000/svg">
<path d="M461.985 266.517C457.37 268.141 455.656 262.801 457.715 270.397C458.521 273.844 465.445 269.301 461.985 266.517Z" fill="#AFD9DD"/>
<path d="M468.215 239.285C466.527 237.387 465.415 236.827 465.033 234.708H463.74C461.525 231.038 458.519 225.482 455.784 221.394C453.319 210.318 452.647 220.947 452.39 224.501C452.226 230.164 441.269 223.953 446.138 218.17C437.632 217.096 438.238 220.61 435.204 222.677C429.482 218.286 425.752 230.588 421.939 231.133C408.779 230.846 414.927 253.68 418.736 256.324C428.867 254.163 439.543 244.304 444.645 256.24C449.41 245.589 445.939 261.396 455.286 262.586C456.382 261.034 458.211 261.273 458.966 263.002C465.508 262.776 471.606 243.554 468.215 239.285Z" fill="#AFD9DD"/>
<path d="M460.777 209.861C459.72 205.526 445.134 197.742 443.979 206.181C445.605 207.377 448.312 207.44 448.461 210.573C450.192 211.561 452.608 215.407 455.755 213.137C453.49 207.248 461.796 215.362 465.365 215.931C466.133 213.354 459.245 213.283 460.777 209.861Z" fill="#AFD9DD"/>
<path d="M438.332 200.949C439.096 201.969 439.908 203.699 442.86 203.279C442.905 202.304 438.756 197.778 438.332 200.949Z" fill="#AFD9DD"/>
<path d="M420.795 204.052C421.737 206.295 422.357 212.594 423.253 204.11C426.726 208.861 425.209 205.012 426.489 200.989C423.973 201.917 424 201.113 421.877 200.334C421.851 201.411 422.023 202.539 420.795 204.052Z" fill="#AFD9DD"/>
<path d="M422.681 198.677C421.624 199.292 428.061 199.093 429.393 198.165C428.835 197.702 424.365 197.142 422.681 198.677Z" fill="#AFD9DD"/>
<path d="M407.216 196.985C406.36 199.232 408.905 200.773 409.282 203.799C413.269 204.504 418.247 207.581 419.612 197.908C419.964 197.896 420.317 197.884 420.67 197.872C417.989 193.718 419.779 195.192 420.993 190.812C418.457 189.214 418.234 187.068 416.692 191.174C413.692 192.544 410.064 198.262 407.216 196.985Z" fill="#AFD9DD"/>
<path d="M414.829 212.654C415.238 212.484 414.696 213.393 416.515 212.908C408.612 206.584 390.836 209.644 414.829 212.654Z" fill="#AFD9DD"/>
<path d="M402.805 203.968C402.327 204.718 390.813 188.261 388.088 191.845C390.7 193.043 403.072 216.874 402.805 203.968Z" fill="#AFD9DD"/>
<path d="M393.157 187.253C396.388 189.586 395.938 196.043 400.774 197.277C401.428 194.675 389.6 178.033 393.157 187.253Z" fill="#AFD9DD"/>
<path d="M432.061 188.296C432.218 181.634 424.801 187.61 430.685 190.968C430.232 190.011 430.18 188.855 430.545 187.858C430.889 188.324 431.538 188.511 432.061 188.296Z" fill="#AFD9DD"/>
<path d="M426.003 188.001C426.442 187.56 426.964 187.209 427.529 186.973C428.056 185.114 425.512 186.581 426.003 188.001Z" fill="#AFD9DD"/>
<path d="M428.948 179.82L428.917 180.151C425.751 181.195 432.869 186.559 428.948 179.82Z" fill="#AFD9DD"/>
<path d="M517.51 75.9396C516.449 75.9396 514.991 74.9688 514.991 74.9688L514.859 77.0495C506.892 68.4722 488.377 63.4762 494.306 70.6692C493.218 70.9845 490.104 70.0961 489.267 68.7277C470.598 69.8338 486.437 64.0259 466.994 64.943C461.484 60.0801 464.258 61.9831 457.303 62.5297C459.688 58.5589 448.756 59.2462 450.15 63.5957L448.558 63.1799C447.16 64.0614 444.488 63.0082 442.724 64.1506C438.991 60.6532 439.976 66.1194 436.186 64.0803C434.452 59.876 430.793 53.6416 427.342 58.6028C418.211 59.4072 411.971 54.0718 402.678 59.0186C411.812 53.9675 421.565 46.342 403.342 48.2004L404.8 47.2085C404.932 46.1863 401.657 45.7213 400.822 45.9814C403.672 41.2826 394.416 48.8725 386.92 50.2954C381.077 50.9131 377.316 50.0814 376.177 55.788C356.676 58.0925 375.18 60.9155 368.865 62.6242L365.152 60.9601C364.209 61.1559 362.381 61.887 361.307 62.4858L363.429 64.0115L360.644 64.1499C358.66 62.3187 362.645 60.2154 359.053 59.0186V61.2376C353.725 65.0571 366.365 81.1578 351.095 76.7713C356.673 75.396 358.428 73.3305 356.019 69.3908C356.072 67.5566 357.048 64.4908 355.472 63.4566C358.424 53.8768 343.973 61.3744 350.688 72.2267C345.15 71.2741 341.27 63.4173 338.09 71.8358C335.58 69.1435 328.093 74.4578 330.278 70.5649C327.459 70.8839 324.907 73.1876 322.024 74.1017C322.507 77.7118 314.838 74.5228 319.637 73.5815C320.758 71.9394 317.176 71.0858 316.355 71.1894C316.611 72.3522 315.805 74.5553 316.952 75.9744C316.832 77.2173 315.872 77.9401 314.664 76.9104C305.523 79.0689 316.354 83.3904 306.807 80.863V82.0069C309.538 83.9816 304.972 83.2377 303.759 82.2684C302.983 80.1296 302.659 76.8317 299.845 74.9333C321.396 82.9428 310.816 68.4185 296.166 67.9626C295.312 57.2737 268.942 76.7811 269.911 83.3587C268.143 86.0108 257.933 86.1726 263.447 92.8251C261.491 99.6234 265.612 97.0612 269.513 93.9674C271.891 94.8596 272.379 108.858 275.878 100.209C278.842 100.547 278.026 95.4085 281.149 92.72L278.961 91.3674C281.932 81.7135 292.952 68.4261 285.196 91.5504C287.854 93.2537 296.081 88.8498 294.675 93.7603C293.099 94.0264 289.934 94.2948 288.211 94.2805L287.912 96.2567L289.105 97.7129L288.111 99.3769C284.747 95.4402 283.506 99.4026 284.414 101.978C283.785 102.816 282.705 104.693 281.547 105.307C280.483 103.237 276.946 105.64 276.077 105.931C273.505 104.814 272.843 105.375 270.292 105.777C266.857 103.678 271.29 96.7557 266.53 101.146C269.157 106.035 256.746 114.293 252.407 115.605C252.853 117.512 251.414 117.475 248.529 117.554C248.848 118.762 250.443 119.638 251.711 120.077C259.037 135.254 236.794 117.052 242.661 137.449C241.734 138.785 243.86 139.19 244.948 138.801L246.042 140.465C247.033 140.146 250.856 138.861 252.308 139.321C252.952 138.557 254.536 136.727 255.092 135.992C252.674 133.471 257.422 131.655 259.07 130.445C257.764 127.281 261.02 127.069 263.446 128.087C267.027 122.888 277.832 134.058 276.839 137.24L278.563 135.437C278.466 134.258 278.371 132.938 280.021 133.911V133.218C261.023 115.57 281.29 125.014 286.02 140.033C287.668 136.223 285.744 130.487 292.353 131.988C291.251 146.321 303.282 136.332 304.808 141.853C302.646 158.522 286.264 144.11 283.46 146.973C281.049 155.504 274.525 145.989 269.131 143.767C272.352 132.129 250.936 144.935 247.137 141.678C245.657 143.426 242.293 146.09 241.037 147.78C242.46 153.789 233.208 157.418 231.001 163.543C229.089 175.509 234.361 194.007 247.667 190.938C252.096 194.994 257.542 187.671 262.12 190.839C273.896 196.597 263.133 198.615 272.982 211.231C271.222 235.918 274.675 234.643 280.097 253.773C288.478 259.574 299.944 249.43 301.238 240.011C308.018 237.141 301.902 233.423 304.431 229.982C312.973 222.53 311.444 224.119 311.448 215.601C301.002 205.311 340.798 178.516 320.702 182.952C308.657 180.548 301.988 156.687 302.441 154.733C305.655 152.242 309.998 166.687 310.193 166.3C313.842 171.172 314.586 173.335 315.48 178.828C322.394 180.26 336.855 170.505 337.704 163.731C330.971 157.582 334.96 157.196 328.289 161.927C320.673 154.404 319.106 145.316 330.092 156.916C332.643 156.963 333.726 153.885 334.787 158.322C337.637 159.265 344.126 160.039 347.914 159.154C348.162 160.251 350.127 162.547 351.361 163.315C352.455 169.482 355.732 164.982 356.581 164.902C356.987 174.654 361.885 188.482 363.958 186.983C365.048 183.542 367.741 180.616 366.398 176.725C368.842 171.442 374.992 169.656 377.616 165.118C378.618 164.93 380.769 164.55 381.859 164.008V162.899C383.999 165.773 387.578 169.792 386.898 173.995L388.053 174.55C388.927 174.162 390.36 173.389 391.146 172.469C391.52 175.951 393.999 179.966 393.395 183.649L394.721 181.706C392.668 172.817 400.689 184.01 401.749 185.825C402.325 185.36 403.299 184.731 403.605 183.649C416.658 178.115 393.383 166.777 407.848 165.534L408.511 167.059C418.557 162.668 430.87 154.453 421.639 142.927C422.006 140.471 425.082 139.462 426.517 138.905C424.237 136.944 421.565 140.512 421.177 137.519C416.148 136.958 428.97 128.088 424.887 134.814L425.816 135.022C426.368 134.494 429.109 133.112 429.993 134.745C429.427 136.472 429.634 138.091 432.048 137.796C429.938 145.855 436.125 143.354 435.795 140.909C436.012 136.412 431.161 135.972 435.882 132.229C456.273 119.103 454.062 101.915 448.225 107.006L446.236 106.729L445.904 104.995L444.114 104.44C460.439 87.6152 453.436 98.7608 464.998 93.414C466 93.941 467.565 94.6464 468.578 95.633L470.833 94.3848L471.496 92.1658C473.375 90.4299 479.106 84.839 478.524 91.3334L482.104 89.6693C483.814 83.9416 484.329 87.814 484.169 90.7792C481.297 91.4022 478.172 94.5776 476.933 97.0204C470.871 97.6766 473.098 108.832 473.617 112.138C477.673 109.441 480.309 104.237 482.9 99.9326C478.894 95.4705 488.804 88.3682 492.845 93.1366C505.47 81.6734 506.698 90.8647 504.381 83.2891C496.163 78.9449 507.858 83.5409 506.768 78.1578C508.346 76.6767 508.714 77.8244 509.42 79.2677C511.826 78.5404 516.957 85.0907 517.137 79.1286C517.679 80.0631 519.863 78.7574 520.691 78.1578C520.693 78.1586 518.571 75.9396 517.51 75.9396Z" fill="#AFD9DD"/>
<path d="M247.835 104.578H249.327C250.031 105.26 250.629 105.967 250.62 107.387L249.227 107.907C248.966 108.701 248.402 109.989 247.835 110.924L249.725 111.236L250.122 111.756C249.068 111.935 248.006 112.824 247.338 114.045C250.046 112.555 253.808 113.48 256.388 112.381L255.691 111.445L257.083 109.469L255.293 108.012C255.244 106.546 254.076 104.531 252.508 103.852L252.011 102.396L250.917 101.668C251.141 100.729 251.428 99.7556 252.408 98.859C251.859 98.391 250.605 97.9215 249.524 97.6107L250.32 95.8424L248.828 95.4258L246.938 98.0266C246.93 100.506 246.661 99.6974 248.231 102.707L247.835 104.578Z" fill="#AFD9DD"/>
<path d="M245.149 109.78C246.548 108.529 245.545 106.24 246.939 104.735L245.149 103.643L243.458 104.267L243.259 105.255L241.171 105.723V106.764L241.963 107.804C241.44 108.618 241.009 109.452 241.171 110.82C242.229 111.051 244.056 110.569 245.149 109.78Z" fill="#AFD9DD"/>
<path d="M235.106 79.8235C234.843 78.9775 233.278 77.7293 232.321 77.1191C230.361 78.223 227.171 77.9772 225.062 79.0954C224.716 78.4331 224.321 77.4208 223.271 77.1191L223.47 78.263C219.627 76.5385 227.911 90.7279 235.106 79.8235Z" fill="#AFD9DD"/>
<path d="M410.066 168.523C409.672 167.415 407.236 168.302 406.5 169.634C407.078 172.436 408.937 170.068 410.066 168.523Z" fill="#AFD9DD"/>
<path d="M423.649 164.307C424.248 163.721 425.925 160.644 424.958 159.422C423.224 160.117 422.187 162.027 423.649 164.307Z" fill="#AFD9DD"/>
<path d="M436.034 146.308L435.859 146.058C438.48 154.057 441.592 142.315 436.034 146.308Z" fill="#AFD9DD"/>
<path d="M446.618 139.582C446.007 142.561 439.267 141.295 438.477 144.532C440.759 144.696 441.428 143.131 444.446 143.518C444.376 144.044 444.306 144.57 444.237 145.096C445.744 143.732 447.833 143.125 450.899 142.569C450.628 139.279 456.268 134.228 451.211 131.652C451.316 134.921 449.435 138.166 446.618 139.582Z" fill="#AFD9DD"/>
<path d="M451.631 127.707C448.949 131.436 456.623 129.787 457.863 127.284C453.585 127.289 455.597 121.4 451.631 127.707Z" fill="#AFD9DD"/>
<path d="M453.34 121.188C455.634 121.752 452.798 118.207 456.771 115.631C453.22 100.681 453.603 112.119 453.34 121.188Z" fill="#AFD9DD"/>
<path d="M327.945 62.5884C333.188 65.4909 333.722 68.8129 333.121 58.7538C332.749 56.3087 325.177 61.3538 327.945 62.5884Z" fill="#AFD9DD"/>
<path d="M334.622 57.5879C334.695 51.3256 351.747 50.8924 350.596 46.3047C347.941 46.5806 322.91 54.6695 334.622 57.5879Z" fill="#AFD9DD"/>
<path d="M271.849 40.9733C272.114 41.8782 274.097 44.4889 274.603 41.4579C275.175 41.2507 275.794 41.1902 276.393 41.2832C277.227 43.1907 270.65 44.1433 277.982 47.3512C279.28 46.5597 282.264 37.8939 284.3 42.9881C283 47.4473 296.893 45.0347 277.163 36.6094C277.428 37.5945 277.694 38.5796 277.959 39.5648C277.085 40.196 275.372 34.7987 274.985 38.4594C272.499 36.5073 266.734 36.4778 271.849 40.9733Z" fill="#AFD9DD"/>
<path d="M282.932 36.8817C283.239 37.2023 283.116 35.9851 284.629 37.3648C284.129 37.3414 283.624 37.4238 283.154 37.6068C289.903 41.3696 298.523 32.1693 285.341 36.1075C284.049 33.7116 277.501 37.042 282.932 36.8817Z" fill="#AFD9DD"/>
<path d="M324.172 219.242C323.189 216.604 321.129 224.932 316.807 226.05C319.003 229.738 310.179 242.565 320.502 239.123C321.453 234.7 323.55 229.842 324.484 224.314C325.952 223.785 325.598 222.374 324.172 219.242Z" fill="#AFD9DD"/>
<path d="M368.665 186.652C367.092 180.752 364.99 189.785 368 190.198C369.066 189.992 370.199 188.161 368.665 186.652Z" fill="#AFD9DD"/>
<path d="M203.381 207.489C200.664 204.207 196.652 202.504 192.574 203.537C191.293 200.341 186.887 200.554 183.955 199.792L183.756 201.942L182.894 201.664C183.197 199.884 185.435 189.245 174.541 189.945C173.472 188.47 171.181 186 169.171 185.826L168.375 183.842C166.761 182.866 161.48 182.827 159.226 183.009C158.7 182.304 157.637 181.426 156.54 181.137L154.949 182.489V184.673L153.755 183.529C155.473 177.317 152.524 182.906 149.081 182.489C148.782 183.053 147.226 186.044 146.595 186.961C146.589 186.556 144.924 184.826 144.507 184.361C141.72 186.335 139.162 184.584 137.545 182.488C137.694 181.549 137.365 177.843 137.943 176.662L136.451 174.791C135.073 174.589 132.148 174.001 130.684 174.791C133.174 164.537 134.461 165.286 128.694 165.428C120.602 184.169 108.468 147.708 129.192 152.218L128.694 151.386C129.92 150.778 132.765 150.671 134.263 150.761C135.083 152.458 136.255 151.952 137.347 150.761C143.428 164.954 140.796 156.184 141.82 147.121C152.671 139.906 144.646 137.903 147.866 135.783L148.883 137.759C149.21 136.386 151.222 133.782 151.668 131.933C154.211 132.488 156.571 130.683 155.845 127.773C157.601 125.822 161.318 124.466 163.999 123.405C163.29 123.955 162.341 125.078 161.911 126.213L163.204 127.357L164.696 125.484C165.768 125.394 167.77 124.669 168.972 124.028V122.572C167.834 122.696 166.252 122.5 164.994 121.844L163.9 119.452L164.795 116.851L162.905 115.811C160.092 116.412 157.562 118.769 155.646 120.908C154.652 117.839 159.442 115.527 160.917 114.042C177.848 113.523 180.959 109.964 167.479 100.106C165.105 89.7372 163.761 93.4713 160.917 96.5673C156.369 95.3251 157.849 94.3105 157.157 90.8599C151.293 85.9578 148.281 88.1775 145.999 87.3096C145.698 89.5996 146.388 93.4456 144.707 95.8392L147.491 98.1278V101.56C146.692 102.296 144.504 104.421 143.718 104.993L144.607 110.193C143.113 113.993 140.718 108.759 139.336 107.489L139.535 103.744C132.447 102.903 127.162 99.9136 122.329 95.3191C120.454 85.2751 135.155 82.6327 133.567 77.1158C136.889 76.6539 139.144 77.8847 140.827 74.0992C140.145 73.5821 139.455 72.5418 139.336 71.3949C140.092 65.4456 135.098 68.4501 133.07 74.4115C128.208 64.8657 128.778 75.3996 127.303 69.5221C123.654 68.847 122.15 73.285 117.159 73.6826C108.318 75.2151 106.905 69.1653 104.032 73.5783L104.827 75.5546L104.329 76.2827C100.995 71.9097 96.3925 74.5226 93.4893 73.5783V72.2257L94.8819 71.3933C90.0939 70.3432 82.9017 66.789 80.7598 69.2091C80.5791 68.6534 80.2714 67.9193 79.6658 67.1285L78.7706 68.7926C75.379 64.0847 69.5968 69.2303 65.0038 70.4959C53.7282 66.061 43.3825 67.0272 36.3052 63.6953C20.7874 68.9974 29.0827 71.4319 22.7796 70.2487L21.8844 71.1847C23.2287 72.8608 26.2544 76.0498 28.2496 75.2416L30.6364 76.5866C28.0787 80.0493 21.9109 74.0395 20.6914 79.5064C21.2365 79.9245 22.3131 80.9444 23.0782 81.795C28.8 81.9689 30.1813 79.1556 29.6422 84.4993C28.3554 85.3998 24.6047 83.9059 24.272 86.4757C23.8592 86.3154 22.4227 88.8141 22.5815 89.4923C23.1833 89.4378 24.5208 90.1886 23.9741 91.4686C25.0923 93.6006 26.5462 92.2957 27.455 91.4686C27.8791 97.2273 31.0711 95.335 34.6154 95.1089L34.7152 96.8773C32.398 100.752 27.7702 101.453 25.7645 104.367C40.784 98.7674 38.1106 92.958 43.1686 89.4923H45.0579C43.6486 89.8937 42.8472 91.9517 42.1736 93.4448C42.9191 95.7939 45.6106 92.8249 46.9473 91.7808V90.2203C57.9704 92.3418 74.5285 99.7964 75.9544 113.174C84.8991 120.118 79.7663 127.514 81.2671 133.967C84.0009 142.098 91.9689 146.513 94.9159 154.92C91.0828 155.267 98.6084 157.442 97.6347 159.844C98.3506 160.727 99.9398 162.187 101.149 162.756L101.281 161.855C98.7914 157.752 92.5359 149.477 94.5198 148.47C105.086 158.809 108.769 176.385 123.667 174.646C127.064 180.294 133.814 177.571 134.762 183.976C137.84 186.358 140.935 188.516 144.906 187.478C149.449 192.57 142.169 198.289 141.624 203.184L143.116 203.289C142.413 204.696 140.394 206.714 140.928 208.802C144.605 211.814 146.408 218.225 148.187 222.637C166.47 229.091 147.951 265.125 150.972 271.11C151.379 270.529 151.949 269.625 152.265 268.405C152.968 270.662 151.835 274.237 151.37 276.623L149.281 277.247L148.739 278.391H150.475L150.873 279.744C146.375 287.053 155.991 297.423 163.205 295.069C159.812 293.316 157.743 289.775 157.636 286.332C159.015 284.467 159.99 281.725 162.144 280.229V278.842C159.375 279.109 163.48 264.878 167.05 267.069L167.581 263.447C169.345 263.036 176.327 262.313 174.476 258.732L174.83 256.929L173.017 255.403C180.119 259.578 187.595 243.466 186.808 240.13C188.1 237.718 191.726 237.718 193.04 235.431H195.294C202.186 228.961 198.788 222.136 199.935 220.453C202.09 217.419 210.052 210.139 203.381 207.489ZM118.51 170.326L119.988 171.165C119.704 171.117 119.052 170.799 118.51 170.326ZM175.53 213.503L175.527 213.481L175.534 213.488L175.53 213.503Z" fill="#AFD9DD"/>
<path d="M175.101 112.91C173.766 114.554 172.664 115.836 171.689 119.02C174.218 118.147 182.659 121.604 179.986 117.694C180.72 115.125 174.93 117.029 176.613 111.842C175.982 111.827 175.495 112.392 175.101 112.91Z" fill="#AFD9DD"/>
<path d="M79.338 61.928C80.0804 61.8123 82.722 65.898 83.4751 63.2261C105.294 54.515 78.5842 49.6771 79.338 61.928Z" fill="#AFD9DD"/>
<path d="M90.5617 63.3312C88.0826 66.9262 94.329 63.9255 97.5414 66.9194C78.1051 67.0631 107.334 72.403 110.633 68.9078C114.627 68.4209 106.575 58.9749 103.829 58.1523C103.913 58.9386 107.024 66.056 101.748 59.5208C97.7985 62.2781 98.9379 58.3172 95.1622 59.8413C94.9815 59.4217 94.9172 58.9477 94.9807 58.4918C92.6166 58.048 82.2716 62.7944 90.5617 63.3312Z" fill="#AFD9DD"/>
<path d="M131.563 64.6448C125.197 66.9454 142.328 66.9711 144.939 66.8373C147.122 69.1689 152.44 70.7241 153.441 74.2866C152.013 75.9711 150.126 76.6848 151.744 79.377C148.52 79.557 141.09 82.3158 151.37 81.686C153.721 84.3027 167.552 93.2338 159.866 84.4198C170.066 87.0713 159.423 80.2714 161.053 77.3198C166.932 83.1179 171.525 76.9365 159.127 70.424C166.078 70.2652 144.281 54.5289 142.05 56.9543C142.108 59.295 149.361 63.1735 141.17 61.2759C141.464 56.7366 135.607 53.5831 135.928 64.5994C133.877 63.1274 132.743 59.2519 135.25 56.5982C131.801 54.9455 125.472 63.3935 131.563 64.6448Z" fill="#AFD9DD"/>
<path d="M158.078 38.6542C160.567 45.947 173.306 45.3225 175.493 45.7202L180.518 51.5183C182.733 64.6168 183.291 83.3742 198.256 87.8038C198.698 72.3239 217.124 70.4958 226.102 61.6236C225.15 52.8686 232.383 43.7575 230.447 34.4484C233.388 33.1828 238.753 29.9953 241.137 27.3121C237.195 24.9608 231.517 24.4444 226.897 24.8156L220.134 20.2385C172.391 18.0339 171.967 31.7954 160.067 33.3589L158.078 38.6542Z" fill="#AFD9DD"/>
<path d="M154.248 84.3418C148.939 84.3418 144.637 88.6452 144.637 93.9526C144.637 95.1918 144.873 96.3742 145.301 97.4614L154.248 112.693L163.195 97.4614C163.622 96.3742 163.858 95.191 163.858 93.9526C163.859 88.6444 159.556 84.3418 154.248 84.3418ZM154.248 100.554C150.333 100.554 147.16 97.3805 147.16 93.4657C147.16 89.5509 150.333 86.3778 154.248 86.3778C158.162 86.3778 161.335 89.5509 161.335 93.4657C161.335 97.3798 158.162 100.554 154.248 100.554Z" fill="#C44949"/>
<path d="M247.359 121.352C242.051 121.352 237.748 125.654 237.748 130.962C237.748 132.202 237.985 133.384 238.412 134.471L247.359 149.702L256.306 134.471C256.733 133.384 256.97 132.201 256.97 130.962C256.97 125.654 252.667 121.352 247.359 121.352ZM247.359 137.563C243.445 137.563 240.271 134.39 240.271 130.475C240.271 126.561 243.444 123.388 247.359 123.388C251.274 123.388 254.447 126.561 254.447 130.475C254.447 134.39 251.274 137.563 247.359 137.563Z" fill="#C44949"/>
<path d="M187.486 179.283C182.178 179.283 177.875 183.586 177.875 188.894C177.875 190.133 178.112 191.316 178.539 192.403L187.486 207.634L196.433 192.403C196.86 191.316 197.097 190.132 197.097 188.894C197.097 183.587 192.794 179.283 187.486 179.283ZM187.486 195.495C183.571 195.495 180.398 192.322 180.398 188.407C180.398 184.492 183.571 181.319 187.486 181.319C191.401 181.319 194.574 184.492 194.574 188.407C194.574 192.322 191.401 195.495 187.486 195.495Z" fill="#C44949"/>
<path d="M184.603 126.301H184.09V129.037H184.603V126.301Z" fill="#353333"/>
<path d="M196.623 129.867H174.047V144.429H196.623V129.867Z" fill="#5372BC"/>
<path d="M181.557 129.867H180.973V144.429H181.557V129.867Z" fill="#353333"/>
<path d="M188.797 129.867H188.213V145.16H188.797V129.867Z" fill="#353333"/>
<path d="M202.684 125.111H199.654V139.283H202.684V125.111Z" fill="#B1B1B0"/>
<path d="M208.452 128.596H202.686V140.226H208.452V128.596Z" fill="#B1B1B0"/>
<path d="M171.702 125.568H170.277V142.574H171.702V125.568Z" fill="#E8B158"/>
<path d="M213.729 138.27C213.729 138.27 210.892 142.278 207.765 145.21C205.755 147.093 204.431 148.655 203.639 149.999C203.198 150.745 202.919 151.422 202.781 152.051H167.89C167.89 152.051 167.316 151.036 166.58 149.999C166.068 149.279 165.482 148.544 164.957 148.142C163.686 147.166 162.025 145.16 162.025 145.16L161.244 140.325H193.008L194.179 138.27H213.729V138.27Z" fill="#353333"/>
<path d="M185.971 125.568H170.277V127.034H185.971V125.568Z" fill="#E8B158"/>
<path d="M203.638 149.998C203.198 150.744 202.919 151.422 202.781 152.05H167.89C167.89 152.05 167.316 151.035 166.58 149.998H203.638Z" fill="#896CB7"/>
<path d="M202.975 128.596H202.391V138.269H202.975V128.596Z" fill="#353333"/>
<path d="M196.623 133.141H174.047V133.725H196.623V133.141Z" fill="#353333"/>
<path d="M196.623 136.857H174.34V137.442H196.623V136.857Z" fill="#353333"/>
<path d="M206.308 130.168H204.598V131.878H206.308V130.168Z" fill="#353333"/>
<path d="M206.308 132.848H204.598V134.558H206.308V132.848Z" fill="#353333"/>
<path d="M206.308 135.527H204.598V137.238H206.308V135.527Z" fill="#353333"/>
<path d="M351.426 70.1409C349.703 69.1051 348.122 68.179 346.053 66.9882C345.63 66.744 341.675 64.8902 340.224 66.2345C339.269 67.1183 340.816 68.7884 341.754 69.6903C342.459 70.367 343.297 70.8773 344.162 71.34C343.399 71.1964 342.522 71.5268 342.194 72.2458C341.881 72.9315 342.157 73.7699 342.71 74.2636C341.903 74.1563 341.019 74.4942 340.607 75.2079C340.166 75.9715 340.36 76.9937 340.944 77.6371C340.61 77.6076 340.251 77.7203 340.028 77.9743C339.582 78.4816 339.636 79.2845 339.975 79.8682C340.313 80.4519 340.877 80.8639 341.43 81.2502C343.676 82.8213 346.013 84.2623 348.425 85.5635C349.2 85.9815 350.072 86.3974 350.927 86.1879C351.499 86.0481 351.965 85.6466 352.408 85.258C355.377 82.6557 358.344 80.0534 361.312 77.4511C358.324 74.712 354.902 72.2291 351.426 70.1409Z" fill="#E8B158"/>
<path d="M480.81 274.877L485.479 293.079L458.256 301.784C458.256 301.784 456.989 296.086 460.551 292.762C464.112 289.439 466.487 285.877 466.487 285.877L463.655 274.006L479.393 269.199L480.81 274.877Z" fill="#353333"/>
<path d="M436.334 282.79V300.358L406.031 301.308C406.031 301.308 406.031 297.351 408.296 295.135C410.56 292.919 419.88 290.164 419.88 290.164L421.183 281.682L436.334 282.79Z" fill="#353333"/>
<path d="M415.736 129.923C415.736 129.923 414.458 144.163 413.321 199.764C412.884 221.127 412.502 283.515 412.502 283.515L441.33 283.226C441.33 283.226 440.934 213.62 444.484 183.178C448.034 152.736 451.741 129.414 451.741 129.414L415.736 129.923Z" fill="#5F2DED"/>
<path d="M460.798 134.458C460.798 134.458 469.741 187.768 471.383 199.292C473.026 210.816 482.034 273.044 483.671 277.193L457.496 282.306C457.496 282.306 444.626 230.784 438.406 185.186L435.412 163.584L433.568 129.613L460.798 134.458Z" fill="#5F2DED"/>
<path d="M419.239 100.459C419.199 100.496 416.054 115.542 416.943 139.474L463.653 137.258C460.836 102.616 459.358 93.4653 443.086 82.957L427.627 84.4925L419.239 100.459Z" fill="#629B94"/>
<path d="M428.501 136.545C428.501 136.545 421.774 136.862 419.479 136.545C417.183 136.229 416.471 138.366 416.946 139.474C417.421 140.581 420.447 141.135 422.653 141.215C424.86 141.294 429.846 140.74 429.846 140.74L428.501 136.545Z" fill="#E8B158"/>
<path d="M416.1 117.73L427.509 154.537C428.117 156.498 426.695 158.501 424.643 158.573L404.172 159.296C402.775 159.345 401.516 158.458 401.093 157.126L389.17 119.596C388.532 117.587 390.031 115.537 392.14 115.537H413.124C414.489 115.536 415.696 116.425 416.1 117.73Z" fill="black"/>
<path d="M413.155 134.459C412.86 134.698 411.982 135.421 411.982 135.421L408.869 132.869V134.269H404.797L406.072 130.537H409.945C411.205 130.537 412.358 130.98 413.246 131.713C413.248 131.713 413.248 131.714 413.249 131.715C413.262 131.726 413.275 131.737 413.288 131.748C414.091 132.459 414.113 133.684 413.155 134.459Z" fill="#5F2DED"/>
<path d="M407.207 136.572C406.338 136.572 406.143 137.336 405.928 137.956C405.714 138.572 405.12 140.304 405.12 140.304L404.111 143.236H400.023L401.691 138.392C402.02 137.435 402.981 136.572 404.155 136.572C404.989 136.572 405.474 136.572 405.474 136.572L407.207 136.572Z" fill="#5F2DED"/>
<path d="M404.939 140.078C405.697 140.078 405.867 140.438 406.055 140.729C406.241 141.019 406.76 141.834 406.76 141.834L407.642 143.214H411.211L409.486 140.392C409.199 139.941 408.629 140.078 407.603 140.078C406.875 140.078 406.452 140.078 406.452 140.078L404.939 140.078Z" fill="#5F2DED"/>
<path d="M403.119 134.269H400.023L401.299 130.537H404.394L403.119 134.269Z" fill="#FFB000"/>
<path d="M415.024 135.421C415.024 138.114 412.746 140.305 409.946 140.305H405.121C405.121 140.305 405.715 138.572 405.929 137.957C406.144 137.337 406.339 136.573 407.208 136.573H408.87V137.972L411.982 135.421C411.982 135.421 412.861 134.698 413.156 134.46C414.114 133.684 414.092 132.459 413.289 131.748C414.352 132.643 415.024 133.958 415.024 135.421Z" fill="#5F2DED"/>
<path d="M442.19 82.7316C442.19 82.7316 427.629 80.0015 419.716 81.1091C411.802 82.2167 389.801 88.2711 384.104 87.6376C378.406 87.004 363.686 75.1341 361.787 73.709L349.441 87.7109C349.441 87.7109 368.751 106.789 383.629 107.264C398.507 107.738 426.391 101.17 426.391 101.17L442.19 82.7316Z" fill="#629B94"/>
<path d="M429.708 139.044C428.023 138.179 425.943 138.725 424.19 139.039C421.17 139.579 418.139 140.035 415.106 140.499C414.408 140.606 413.684 140.722 413.094 141.113C412.504 141.503 412.086 142.248 412.301 142.922C412.568 143.759 413.587 144.051 414.458 144.162C416.804 144.459 419.2 144.354 421.511 143.855C420.385 144.064 419.197 144.497 416.888 144.886C415.164 145.177 412.15 145.14 412.039 146.885C411.876 149.46 416.737 149.164 419.315 149.088C418.072 149.297 416.828 149.506 415.584 149.716C415.096 149.798 414.539 149.928 414.313 150.368C413.884 151.202 414.319 152.288 415.233 152.496C416.732 152.835 418.973 152.677 420.509 152.7C420.151 152.725 419.792 152.749 419.434 152.773C418.89 152.809 417.292 152.865 416.913 153.255C416.265 153.922 416.857 155.03 417.688 155.447C418.518 155.864 420.38 155.678 421.308 155.695C426.837 155.792 430.145 154.275 434.563 153.565C436.087 153.321 431.865 140.151 429.708 139.044Z" fill="#E8B158"/>
<path d="M439.953 81.1074C439.953 81.1074 460.311 86.2909 465.534 93.8883C470.757 101.486 471.86 107.182 472.494 117.153C473.126 127.125 469.571 135.752 464.347 141.45C459.124 147.149 439.814 152.213 431.584 155.062C431.584 155.062 428.605 139.393 426.389 136.385C426.389 136.385 444.879 132.27 452.318 124.832C455.487 121.662 456.116 113.278 454.851 107.58C453.584 101.882 435.264 87.1028 435.264 87.1028L439.953 81.1074Z" fill="#629B94"/>
<path d="M426.443 136.674L426.336 136.1C438.266 133.868 446.497 129.362 451.504 122.328C455.917 116.129 454.577 107.713 454.563 107.629L455.14 107.533C455.154 107.619 456.532 116.273 451.98 122.668C446.881 129.83 438.529 134.412 426.443 136.674Z" fill="#353333"/>
<path d="M420.212 92.9467L418.209 102.805L418.782 102.921L420.785 93.0631L420.212 92.9467Z" fill="#353333"/>
<path d="M423.397 147.817L417.594 148.854L417.696 149.429L423.499 148.392L423.397 147.817Z" fill="#353333"/>
<path d="M424.45 152.216L417.646 152.549L417.675 153.133L424.479 152.8L424.45 152.216Z" fill="#353333"/>
<path d="M421.466 143.556L419.389 143.893L419.482 144.469L421.559 144.133L421.466 143.556Z" fill="#353333"/>
<path d="M433.851 169.016L433.279 169.137L442.476 212.781L443.048 212.66L433.851 169.016Z" fill="#353333"/>
<path d="M434.688 91.7582L433.352 85.0415L427.412 87.6098L428.765 81.0488L429.337 81.1668L428.211 86.6277L433.785 84.2174L435.083 90.7451L446.011 82.7499L446.356 83.2217L434.688 91.7582Z" fill="#353333"/>
<path d="M426.021 130.392L425.438 130.35C427.161 106.694 433.228 84.7693 433.289 84.5508L433.852 84.708C433.791 84.9258 427.74 106.797 426.021 130.392Z" fill="#353333"/>
<path d="M350.388 78.8404C350.243 78.7761 346.804 77.2625 345.443 76.2305C343.912 75.07 343.984 74.0365 344.627 72.6431C345.301 71.1839 351.574 72.761 353.48 73.2797L353.327 73.8437C349.632 72.8397 345.468 72.2152 345.158 72.888C344.592 74.1144 344.55 74.8213 345.795 75.7655C347.102 76.756 350.587 78.2907 350.623 78.3059L350.388 78.8404Z" fill="#353333"/>
<path d="M343.698 82.6405C343.262 82.6405 342.838 82.4855 342.535 82.18L342.951 81.7687C343.306 82.1271 343.966 82.1536 344.419 81.8262C344.849 81.5155 345.098 80.9205 345.054 80.3111C345.004 79.6201 344.626 79.0349 344.319 78.6659L342.666 76.6836L344.719 78.2463C345.161 78.582 345.59 78.7816 345.996 78.8391C346.458 78.9033 346.919 78.7703 347.195 78.4883C347.48 78.1972 347.549 77.7156 347.348 77.4147L347.834 77.0896C348.192 77.6249 348.097 78.4021 347.613 78.8965C347.204 79.3154 346.567 79.5112 345.914 79.4175C345.74 79.3925 345.565 79.3487 345.388 79.2851C345.528 79.6102 345.612 79.9406 345.636 80.268C345.696 81.0876 345.361 81.8663 344.762 82.2995C344.446 82.5278 344.068 82.6405 343.698 82.6405Z" fill="#353333"/>
<path d="M434.369 134.398L433.805 134.553L438.524 151.717L439.088 151.562L434.369 134.398Z" fill="#353333"/>
<path d="M366.42 78.0936L355.814 92.8477L356.29 93.1892L366.895 78.4352L366.42 78.0936Z" fill="#353333"/>
<path d="M445.073 66.902C445.665 68.6462 445.736 70.5408 445.454 72.3606C445.209 73.9423 444.685 75.5088 443.719 76.7835C442.752 78.0589 441.305 79.0176 439.713 79.1779C439.142 79.2353 438.494 79.159 438.125 78.7204C437.868 78.4158 437.799 77.9992 437.74 77.6045C437.585 76.565 437.43 75.5262 437.275 74.4866C436.927 72.1595 436.582 69.7583 437.165 67.4781C437.658 65.5494 438.959 63.7304 440.855 62.9963C442.948 62.1858 444.504 65.2213 445.073 66.902Z" fill="#353333"/>
<path d="M441.898 75.0432C441.381 74.4474 440.511 74.486 439.707 74.672C440.146 73.2453 440.482 71.7748 440.69 70.4003C441.106 66.0486 436.686 62.6025 432.131 62.5957C428.492 63.0206 426.065 69.0478 425.754 72.2194C424.956 80.3529 429.542 85.5439 436.559 81.0295C437.237 80.2478 437.858 79.2181 438.409 78.056C438.458 78.056 438.506 78.0583 438.554 78.0575C439.505 78.0439 440.513 78.0129 441.308 77.4898C442.1 76.9681 442.52 75.7622 441.898 75.0432Z" fill="#E8B158"/>
<path d="M438.644 75.3887L440.718 82.097C440.718 82.097 436.337 84.4725 433.191 84.4725L431.691 80.8239L438.644 75.3887Z" fill="#E8B158"/>
<path d="M432.676 61.1908C432.648 61.1908 432.622 61.1908 432.595 61.1908C431.361 61.1908 430.183 61.3647 429.098 61.9514C428.344 62.3589 427.548 62.8072 427.147 63.5648C426.491 64.8016 427.213 66.4211 428.39 67.1779C429.568 67.9347 431.049 68.0194 432.447 67.9521C433.844 67.8848 435.261 67.689 436.633 67.968C436.385 68.7867 436.782 69.6638 437.293 70.3502C437.803 71.0367 438.443 71.6431 438.792 72.4233C439.141 73.2043 439.098 74.2612 438.402 74.7587C440.213 74.6279 441.432 72.8739 442.204 71.2295C442.883 69.7832 443.442 68.2167 443.312 66.6245C443.121 64.289 441.394 62.2447 439.246 61.3049C437.101 60.3652 435.019 61.1908 432.676 61.1908Z" fill="#353333"/>
<path d="M276.904 202.307C271.596 202.307 267.293 206.609 267.293 211.917C267.293 213.157 267.53 214.339 267.957 215.426L276.904 230.657L285.851 215.426C286.278 214.339 286.515 213.156 286.515 211.917C286.515 206.61 282.212 202.307 276.904 202.307ZM276.904 218.518C272.989 218.518 269.816 215.345 269.816 211.431C269.816 207.516 272.989 204.343 276.904 204.343C280.819 204.343 283.992 207.516 283.992 211.431C283.992 215.345 280.819 218.518 276.904 218.518Z" fill="#C44949"/>
<path d="M286.513 83.248C281.205 83.248 276.902 87.5514 276.902 92.8589C276.902 94.098 277.139 95.2805 277.566 96.3677L286.513 111.599L295.46 96.3677C295.887 95.2805 296.124 94.0973 296.124 92.8589C296.124 87.5514 291.821 83.248 286.513 83.248ZM286.513 99.4599C282.598 99.4599 279.425 96.2868 279.425 92.372C279.425 88.4572 282.598 85.2841 286.513 85.2841C290.428 85.2841 293.601 88.4572 293.601 92.372C293.601 96.2868 290.427 99.4599 286.513 99.4599Z" fill="#C44949"/>
<path d="M388.283 47.6367C382.975 47.6367 378.672 51.9394 378.672 57.2475C378.672 58.4867 378.909 59.6691 379.336 60.7563L388.283 75.9876L397.23 60.7563C397.657 59.6691 397.894 58.4859 397.894 57.2475C397.894 51.9401 393.59 47.6367 388.283 47.6367ZM388.283 63.8486C384.368 63.8486 381.195 60.6754 381.195 56.7606C381.195 52.8459 384.368 49.6727 388.283 49.6727C392.198 49.6727 395.371 52.8459 395.371 56.7606C395.37 60.6754 392.197 63.8486 388.283 63.8486Z" fill="#C44949"/>
<path d="M233.502 234.072H234.016V231.336H233.502V234.072Z" fill="#353333"/>
<path d="M221.48 249.465H244.057V234.903H221.48V249.465Z" fill="#5372BC"/>
<path d="M237.135 234.902H236.551V249.465H237.135V234.902Z" fill="#353333"/>
<path d="M229.893 234.902H229.309V250.196H229.893V234.902Z" fill="#353333"/>
<path d="M215.424 244.318H218.453V230.147H215.424V244.318Z" fill="#B1B1B0"/>
<path d="M209.656 245.264H215.422V233.633H209.656V245.264Z" fill="#B1B1B0"/>
<path d="M246.404 247.607H247.828V230.602H246.404V247.607Z" fill="#E8B158"/>
<path d="M204.377 243.305C204.377 243.305 207.214 247.313 210.341 250.245C212.35 252.128 213.675 253.69 214.467 255.034C214.907 255.78 215.187 256.458 215.324 257.086H250.216C250.216 257.086 250.79 256.071 251.525 255.034C252.038 254.314 252.624 253.579 253.149 253.177C254.419 252.201 256.08 250.195 256.08 250.195L256.861 245.36H225.098L223.927 243.305H204.377V243.305Z" fill="#353333"/>
<path d="M232.134 232.068H247.828V230.602H232.134V232.068Z" fill="#E8B158"/>
<path d="M214.469 255.033C214.909 255.779 215.189 256.457 215.326 257.085H250.218C250.218 257.085 250.791 256.07 251.527 255.033H214.469Z" fill="#896CB7"/>
<path d="M215.715 233.631H215.131V243.304H215.715V233.631Z" fill="#353333"/>
<path d="M244.055 238.176H221.479V238.76H244.055V238.176Z" fill="#353333"/>
<path d="M243.761 241.893H221.479V242.477H243.761V241.893Z" fill="#353333"/>
<path d="M211.798 236.916H213.508V235.206H211.798V236.916Z" fill="#353333"/>
<path d="M211.798 239.594H213.508V237.884H211.798V239.594Z" fill="#353333"/>
<path d="M211.798 242.273H213.508V240.563H211.798V242.273Z" fill="#353333"/>
<path d="M360.423 206.449H359.91V209.185H360.423V206.449Z" fill="#353333"/>
<path d="M372.443 210.016H349.867V224.578H372.443V210.016Z" fill="#5372BC"/>
<path d="M357.379 210.018H356.795V224.58H357.379V210.018Z" fill="#353333"/>
<path d="M364.62 210.018H364.035V225.311H364.62V210.018Z" fill="#353333"/>
<path d="M378.504 205.26H375.475V219.431H378.504V205.26Z" fill="#B1B1B0"/>
<path d="M384.272 208.746H378.506V220.376H384.272V208.746Z" fill="#B1B1B0"/>
<path d="M347.522 205.717H346.098V222.722H347.522V205.717Z" fill="#E8B158"/>
<path d="M389.549 218.419C389.549 218.419 386.712 222.427 383.585 225.358C381.576 227.242 380.251 228.804 379.459 230.147C379.019 230.893 378.739 231.571 378.601 232.199H343.71C343.71 232.199 343.135 231.185 342.401 230.147C341.888 229.427 341.302 228.693 340.777 228.29C339.506 227.314 337.845 225.309 337.845 225.309L337.064 220.474H368.828L369.999 218.418H389.549V218.419Z" fill="#353333"/>
<path d="M361.792 205.717H346.098V207.183H361.792V205.717Z" fill="#E8B158"/>
<path d="M379.458 230.148C379.018 230.895 378.738 231.572 378.6 232.2H343.71C343.71 232.2 343.135 231.186 342.4 230.148H379.458Z" fill="#896CB7"/>
<path d="M378.797 208.746H378.213V218.42H378.797V208.746Z" fill="#353333"/>
<path d="M372.441 213.289H349.865V213.873H372.441V213.289Z" fill="#353333"/>
<path d="M372.445 217.004H350.162V217.588H372.445V217.004Z" fill="#353333"/>
<path d="M382.128 210.316H380.418V212.027H382.128V210.316Z" fill="#353333"/>
<path d="M382.128 212.998H380.418V214.708H382.128V212.998Z" fill="#353333"/>
<path d="M382.128 215.676H380.418V217.386H382.128V215.676Z" fill="#353333"/>
<path d="M147.676 163.715C148.576 163.653 149.49 162.872 149.355 161.97C149.295 161.572 148.537 160.077 148.289 159.763C146.966 158.088 142.367 155.588 141.428 154.392C143.447 154.519 144.251 154.569 146.27 154.696C146.589 154.717 146.92 154.735 147.219 154.621C147.857 154.377 148.151 153.572 148.008 152.897C147.865 152.222 147.386 151.67 146.862 151.229C144.377 149.131 140.258 148.915 136.904 147.528C133.581 146.155 131.82 145.589 128.823 143.669C128.748 143.621 128.666 143.571 128.579 143.579C128.472 143.588 128.391 143.676 128.322 143.76C126.122 146.38 123.922 149.001 121.723 151.622C121.15 152.304 120.558 153.003 119.775 153.42C121.997 156.019 137.005 168.791 139.727 169.647C141.061 170.067 142.531 170.028 143.841 169.539C144.436 169.317 145.079 168.875 145.063 168.233C145.053 167.833 144.781 167.492 144.491 167.22C144.22 166.967 143.925 166.748 143.613 166.553C143.756 166.605 143.897 166.659 144.039 166.71C144.811 166.988 145.62 167.257 146.434 167.164C147.248 167.071 148.07 166.511 148.204 165.692C148.339 164.867 147.8 164.198 147.093 163.685C147.286 163.714 147.48 163.728 147.676 163.715Z" fill="#E8B158"/>
<path d="M52.6357 276.046L52.0483 285.583C52.0483 285.583 58.1518 287.758 60.6422 289.431C63.1326 291.104 64.715 295.287 64.805 296.124H31.1074L34.341 274.541L52.6357 276.046Z" fill="#353333"/>
<path d="M81.9102 273.512V292.381H113.55C113.55 292.381 112.641 288.853 110.975 287.165C109.308 285.478 99.1593 281.796 99.1593 281.796L98.1749 271.518L81.9102 273.512Z" fill="#353333"/>
<path d="M95.4249 138.285C95.4249 138.285 100.345 171.82 102.024 209.317C103.703 246.813 103.442 273.747 103.442 273.747L79.4626 275.595L72.6514 177.952L56.2513 276.652H30.9609L47.6476 138.285H95.4249Z" fill="#896CB7"/>
<path d="M64.532 185.214C64.7528 186.544 64.3347 187.943 63.5726 189.009C62.8105 190.076 61.7324 190.835 60.587 191.354C60.1175 191.567 59.5164 191.719 59.1497 191.335C58.9698 191.146 58.8957 190.872 58.8299 190.61C58.2032 188.121 57.6762 185.597 57.3904 183.035C57.2301 181.601 57.15 180.114 57.5575 178.74C57.9121 177.543 59.7137 174.894 61.1699 175.928C62.0597 176.562 64.2878 183.742 64.532 185.214Z" fill="#E8B158"/>
<path d="M52.5932 183.635C45.6353 183.635 39.9922 189.347 39.9922 196.397C39.9922 196.596 39.996 196.801 40.0058 196.996H44.4475C44.4309 196.8 44.4241 196.6 44.4241 196.397C44.4241 191.826 48.0834 188.12 52.5932 188.12C57.1067 188.12 60.766 191.826 60.766 196.397C60.766 196.6 60.7592 196.801 60.7418 196.996H65.1835C65.1941 196.8 65.1971 196.596 65.1971 196.397C65.1979 189.347 59.554 183.635 52.5932 183.635Z" fill="#3D4193"/>
<path d="M78.0381 196.996H29.9446C27.2418 196.996 25.0508 199.187 25.0508 201.89V235.144C25.0508 237.847 27.2418 240.038 29.9446 240.038H78.0381C80.7409 240.038 82.9319 237.847 82.9319 235.144V201.89C82.9319 199.187 80.7409 196.996 78.0381 196.996Z" fill="#3D4193"/>
<path d="M74.8307 226.378H32.8544C30.8607 226.378 29.2383 224.885 29.2383 223.05V196.996H29.8227V223.05C29.8227 224.563 31.1828 225.794 32.8544 225.794H74.8315C76.5038 225.794 77.8639 224.563 77.8639 223.05V196.996H78.4484V223.05C78.4476 224.885 76.8251 226.378 74.8307 226.378Z" fill="white"/>
<path d="M50.2094 226.17H49.625V228.926H50.2094V226.17Z" fill="white"/>
<path d="M53.8404 235.559C51.6404 235.559 49.8349 233.889 49.6406 231.674L50.2228 231.623C50.3906 233.533 51.9458 234.974 53.8404 234.974C55.7442 234.974 57.3356 233.468 57.4642 231.545L58.0471 231.583C57.8981 233.812 56.0504 235.559 53.8404 235.559Z" fill="white"/>
<path d="M58.0571 226.17H57.4727V228.991H58.0571V226.17Z" fill="white"/>
<path d="M60.7838 231.858H46.707V228.633H60.7838V231.858ZM47.2915 231.274H60.1994V229.217H47.2915V231.274Z" fill="white"/>
<path d="M59.5505 188.296C59.7047 189.739 60.0343 192.086 59.2934 193.226C58.7483 194.065 56.8363 194.903 56.0076 194.551C55.179 194.2 54.9462 194.087 54.4774 194.858C54.3852 195.011 54.2498 195.116 54.1122 195.204C53.18 195.806 51.9931 195.77 51.0858 195.113C50.1793 194.456 50.453 194.583 49.7416 195.567C48.6347 197.099 45.671 196.357 44.5627 194.542C44.0039 193.627 43.9253 192.416 43.8875 191.276C43.7393 186.751 42.6189 180.989 43.1277 176.503C47.3252 175.401 52.8655 175.751 57.1273 175.115C59.7523 174.722 58.5457 177.739 58.4648 179.751C58.334 183.001 59.2049 185.07 59.5505 188.296Z" fill="#E8B158"/>
<path d="M66.5617 85.4754C66.5617 85.4754 53.9033 85.2115 45.8212 94.4534C37.7391 103.695 34.5009 125.084 34.5554 138.815C34.6098 152.546 41.015 181.533 41.015 181.533L62.5834 176.985C62.5834 176.985 55.4683 139.607 57.0325 128.253C58.5968 116.899 63.0446 108.712 63.0446 108.712L66.5617 85.4754Z" fill="#E2E8E8"/>
<path d="M70.8516 85.4746C70.8516 85.4746 79.196 85.4754 83.6287 87.3239C88.0614 89.1724 91.9875 90.2286 100.445 101.847C108.903 113.466 110.352 121.651 116.219 127.592C122.087 133.534 137.401 146.753 137.401 146.753L122.541 160.773C122.541 160.773 112.62 152.822 104.616 144.888C95.4267 135.778 87.018 123.124 87.018 123.124L70.8516 85.4746Z" fill="#E2E8E8"/>
<path d="M90.6668 103.167C93.313 112.887 95.4254 138.286 95.4254 138.286L52.6016 142.776L60.032 89.3093L66.5634 85.4754L70.8509 85.4746C70.8509 85.4746 88.9113 96.7185 90.6668 103.167Z" fill="#E2E8E8"/>
<path d="M64.2687 66.1484C61.3262 68.3568 59.1836 72.3887 60.363 76.0041C61.0525 78.1195 62.7151 79.6823 64.3111 81.1445C64.6793 81.4824 65.0482 81.8196 65.4172 82.1576C65.4973 82.2309 65.5827 82.3073 65.6863 82.3299C65.8262 82.3602 65.966 82.2868 66.09 82.2097C67.8335 81.1286 68.8496 79.1137 70.3254 77.65C73.0101 74.988 79.0615 71.9343 76.72 66.7713C74.4133 61.6847 67.8856 63.4342 64.2687 66.1484Z" fill="#353333"/>
<path d="M77.5022 68.707C79.142 70.619 79.3673 74.065 79.4573 76.4541C79.5261 78.2868 79.1504 80.1807 78.0163 81.7215C76.8815 83.2631 75.2416 84.3933 73.1474 84.354C70.9284 84.3124 68.943 82.9878 67.7659 81.3404C66.5887 79.693 66.0882 77.753 65.6739 75.844C65.2596 73.9365 64.9171 71.9353 65.5696 70.0784C67.4846 64.6273 74.4493 65.1467 77.5022 68.707Z" fill="#E8B158"/>
<path d="M73.5471 81.3825V86.9356C73.5471 86.9356 69.3896 87.9639 63.8281 85.9014L65.4166 74.5547L73.5471 81.3825Z" fill="#E8B158"/>
<path d="M66.5474 76.498L66.3561 76.3861C66.1316 75.6043 65.2153 75.1356 64.4365 75.3382C63.6578 75.5408 63.0923 76.3256 63.0515 77.1383C63.0106 77.9518 63.4484 78.7502 64.1008 79.2258C64.7533 79.7013 65.594 79.8722 66.3939 79.7883C66.5466 78.6996 66.5981 77.5965 66.5474 76.498Z" fill="#E8B158"/>
<path d="M67.3992 71.5756C69.3256 72.7452 71.7828 72.2432 73.936 71.5975C74.6731 71.376 75.4224 71.1341 76.0393 70.6691C76.6562 70.2034 77.1257 69.4685 77.0804 68.6905C77.5559 69.1404 77.9543 69.6749 78.2515 70.2608C78.3362 69.8745 78.1902 69.4768 78.0171 69.1222C76.8475 66.7233 74.2792 65.1333 71.6399 65.0275C69.0005 64.9209 66.3763 66.2409 64.7448 68.345C63.6167 69.7996 62.9552 71.878 63.8383 73.4967C64.4408 74.6013 65.5545 75.4783 66.3181 76.4573C67.115 75.3172 67.1444 72.9917 67.3992 71.5756Z" fill="#353333"/>
<path d="M56.9724 142.325C56.8325 141.318 53.5777 117.569 56.9913 109.137L57.5326 109.356C54.178 117.644 57.5175 142 57.5515 142.245L56.9724 142.325Z" fill="#353333"/>
<path d="M91.967 107.67L91.3887 107.754L95.1364 133.545L95.7148 133.461L91.967 107.67Z" fill="#353333"/>
<path d="M65.1777 96.5625L59.5059 87.211L60.0056 86.9079L65.2238 95.5124L70.7361 88.0102L78.76 91.9363L75.4198 85.8562L75.9316 85.5742L80.1617 93.273L70.9183 88.7496L65.1777 96.5625Z" fill="#353333"/>
<path d="M78.6557 140.04C78.6384 139.852 76.8753 121.199 75.906 115.073C73.2878 98.5331 70.5729 88.5541 70.5449 88.4558L71.1089 88.3008C71.1361 88.3998 73.8602 98.4106 76.4829 114.982C77.4552 121.125 79.2198 139.797 79.2371 139.985L78.6557 140.04Z" fill="#353333"/>
<path d="M60.8525 169.064L39.9199 173.514L40.0414 174.085L60.974 169.636L60.8525 169.064Z" fill="#353333"/>
<path d="M130.9 141.054L116.209 155.463L116.618 155.88L131.309 141.471L130.9 141.054Z" fill="#353333"/>
<path d="M75.5189 162.245L72.373 177.885L72.946 178L76.0918 162.36L75.5189 162.245Z" fill="#353333"/>
<path d="M87.4722 146.912L87.0684 147.334L97.6026 157.405L98.0064 156.982L87.4722 146.912Z" fill="#353333"/>
<path d="M67.6427 147.601L58.9941 156.566L59.4148 156.972L68.0633 148.007L67.6427 147.601Z" fill="#353333"/>
<path d="M79.4645 77.3331C79.4645 77.3331 80.7823 81.6252 79.5945 85.0176C78.9897 86.7451 73.243 87.9132 70.4623 86.1441C67.6816 84.3749 65.4648 73.5703 65.4648 73.5703C65.4648 73.5703 68.8572 79.3813 69.5717 79.3291C72.5921 79.1083 74.1994 77.3558 76.1984 77.1978C78.1974 77.0406 78.0877 77.1986 78.8272 77.3384C79.029 77.377 79.4645 77.3331 79.4645 77.3331Z" fill="#353333"/>
<path d="M77.6323 79.7303C77.6104 79.6426 75.0859 80.0826 75.0859 80.0826C75.0859 80.0826 75.7414 80.8969 76.502 80.875C77.2626 80.8523 77.6323 79.7303 77.6323 79.7303Z" fill="#5372BC"/>
<path d="M137.062 162.074L136.75 162.568L143.459 166.805L143.771 166.311L137.062 162.074Z" fill="#353333"/>
<path d="M139.829 158.998L139.533 159.502L146.572 163.639L146.869 163.135L139.829 158.998Z" fill="#353333"/>
<path d="M314.372 127.748C315.895 125.398 321.384 121.918 321.384 121.918L321.96 102.277L327.617 99.7539L332.234 115.821C337.811 113.342 342.859 112.016 342.859 112.016C342.859 112.016 347.606 111.064 348.126 111.722C348.713 112.468 345.003 115.973 345.003 115.973C345.003 115.973 341.136 119.478 336.014 122.797L346.953 135.438L341.75 138.801L324.981 128.558C324.981 128.558 319.059 131.165 316.26 131.232C314.035 131.286 312.802 130.172 314.372 127.748Z" fill="white"/>
<path d="M342.783 113.489L344.054 106.16L346.879 104.279L348.126 111.723L342.783 113.489Z" fill="white"/>
<path d="M343.709 115.201L350.543 118.138L353.662 116.798L348.106 111.689L343.709 115.201Z" fill="white"/>
<path d="M331.584 130.241L328.828 131.734L330.321 134.49L333.077 132.997L331.584 130.241Z" fill="white"/>
<path d="M335.885 133.085L333.129 134.578L334.622 137.334L337.378 135.841L335.885 133.085Z" fill="white"/>
<path d="M322.035 107.526L319.279 109.02L320.773 111.775L323.529 110.282L322.035 107.526Z" fill="white"/>
<path d="M321.715 112.804L318.959 114.297L320.452 117.053L323.208 115.559L321.715 112.804Z" fill="white"/>
<path d="M321.542 122.162L321.219 121.675C321.284 121.632 327.822 117.297 332.122 115.551L332.342 116.092C328.097 117.817 321.607 122.118 321.542 122.162Z" fill="#353333"/>
<path d="M325.105 128.824L324.859 128.294C324.94 128.257 332.93 124.556 335.85 122.557L336.18 123.039C333.22 125.065 325.435 128.672 325.105 128.824Z" fill="#353333"/>
<path d="M329.697 131.117L329.389 131.613L336.897 136.282L337.206 135.786L329.697 131.117Z" fill="#353333"/>
<path d="M321.529 107.651L321.27 116.459L321.854 116.476L322.113 107.668L321.529 107.651Z" fill="#353333"/>
<path d="M315.598 127.058C315.598 127.058 315.771 128.877 317.442 130.462L318.338 129.793C318.338 129.793 317.167 128.357 316.636 126.652L315.598 127.058Z" fill="#353333"/>
<path d="M203.611 27C198.303 27 194 31.3034 194 36.6108C194 37.85 194.237 39.0324 194.664 40.1196L203.611 55.3509L212.558 40.1196C212.985 39.0324 213.222 37.8492 213.222 36.6108C213.222 31.3034 208.919 27 203.611 27ZM203.611 43.2118C199.696 43.2118 196.523 40.0387 196.523 36.1239C196.523 32.2091 199.696 29.036 203.611 29.036C207.526 29.036 210.699 32.2091 210.699 36.1239C210.699 40.0387 207.525 43.2118 203.611 43.2118Z" fill="#C44949"/>
<path d="M164.611 229C159.303 229 155 233.303 155 238.611C155 239.85 155.237 241.032 155.664 242.12L164.611 257.351L173.558 242.12C173.985 241.032 174.222 239.849 174.222 238.611C174.222 233.303 169.919 229 164.611 229ZM164.611 245.212C160.696 245.212 157.523 242.039 157.523 238.124C157.523 234.209 160.696 231.036 164.611 231.036C168.526 231.036 171.699 234.209 171.699 238.124C171.699 242.039 168.525 245.212 164.611 245.212Z" fill="#C44949"/>
<path d="M489.611 55C484.303 55 480 59.3034 480 64.6108C480 65.85 480.237 67.0324 480.664 68.1196L489.611 83.3509L498.558 68.1196C498.985 67.0324 499.222 65.8492 499.222 64.6108C499.222 59.3034 494.919 55 489.611 55ZM489.611 71.2118C485.696 71.2118 482.523 68.0387 482.523 64.1239C482.523 60.2091 485.696 57.036 489.611 57.036C493.526 57.036 496.699 60.2091 496.699 64.1239C496.699 68.0387 493.525 71.2118 489.611 71.2118Z" fill="#C44949"/>
<path d="M364.611 149C359.303 149 355 153.303 355 158.611C355 159.85 355.237 161.032 355.664 162.12L364.611 177.351L373.558 162.12C373.985 161.032 374.222 159.849 374.222 158.611C374.222 153.303 369.919 149 364.611 149ZM364.611 165.212C360.696 165.212 357.523 162.039 357.523 158.124C357.523 154.209 360.696 151.036 364.611 151.036C368.526 151.036 371.699 154.209 371.699 158.124C371.699 162.039 368.525 165.212 364.611 165.212Z" fill="#C44949"/>
</svg>
