<svg xmlns="http://www.w3.org/2000/svg" width="95" height="94" viewBox="0 0 95 94" fill="none">
  <path d="M47.0985 93.8244C73.0075 93.8244 93.9691 72.8211 93.9177 46.9122C93.8663 21.0033 72.8213 0 46.9123 0C21.0034 0 0.0416817 21.0033 0.0930987 46.9122C0.144516 72.8211 21.1896 93.8244 47.0985 93.8244Z" fill="url(#paint0_linear_365_9982)"/>
  <path d="M5.87451 46.7502C5.87451 24.09 24.3073 5.65723 46.9675 5.65723C69.6277 5.65723 88.0605 24.09 88.0605 46.7502C88.0605 69.4104 69.6277 87.8432 46.9675 87.8432C24.3073 87.8432 5.87451 69.4104 5.87451 46.7502Z" fill="#477FD3"/>
  <path d="M60.49 35.8851C56.9367 32.3318 52.2125 30.375 47.1875 30.375C43.584 30.375 40.1208 31.3837 37.1094 33.3V32.3906C37.1094 32.2124 37.0386 32.0416 36.9126 31.9155L30.1939 25.1968C30.0018 25.0047 29.7128 24.9471 29.4617 25.0512C29.2107 25.1552 29.0469 25.4002 29.0469 25.6719V29.8871L27.4709 28.5232C27.2045 28.2926 26.8053 28.3071 26.5562 28.5562C26.3071 28.8053 26.2926 29.2046 26.5232 29.471L27.8871 31.0469H23.6719C23.4001 31.0469 23.1551 31.2106 23.0512 31.4616C22.9472 31.7126 23.0046 32.0017 23.1968 32.1939L29.9155 38.9126C30.0415 39.0386 30.2124 39.1094 30.3906 39.1094H31.2998C29.3829 42.1196 28.375 45.5774 28.375 49.1875C28.375 54.2125 30.3318 58.9367 33.8851 62.49C37.4383 66.0432 42.1626 68 47.1875 68C52.2125 68 56.9367 66.0432 60.49 62.49C64.0432 58.9367 66 54.2125 66 49.1875C66 44.1625 64.0432 39.4383 60.49 35.8851ZM44.2197 44.7947C44.5978 45.1888 44.5928 45.817 44.2049 46.2049C43.8169 46.5927 43.1888 46.5977 42.7947 46.2197L33.6327 35.6327L44.2197 44.7947ZM30.3906 27.294L35.7656 32.669V35.7015L30.3906 31.05V27.294ZM25.294 32.3906H29.05L33.7015 37.7656H30.669L25.294 32.3906ZM47.1875 66.6562C37.5553 66.6562 29.7188 58.8198 29.7188 49.1875C29.7188 45.5434 30.8237 42.0664 32.9174 39.1094H34.8643L35.6214 39.9842C33.5449 42.5925 32.4063 45.8396 32.4063 49.1875C32.4063 57.3379 39.0371 63.9688 47.1875 63.9688C55.3379 63.9688 61.9688 57.3379 61.9688 49.1875C61.9688 45.8035 60.7959 42.496 58.6663 39.8743C58.4324 39.5863 58.0093 39.5425 57.7212 39.7764C57.4333 40.0104 57.3894 40.4335 57.6233 40.7215C59.559 43.1046 60.625 46.1112 60.625 49.1875C60.625 56.597 54.5969 62.625 47.1875 62.625C39.7781 62.625 33.75 56.597 33.75 49.1875C33.75 46.2283 34.7284 43.3559 36.5176 41.0198L38.3232 43.1062C37.09 44.9004 36.4375 47.0011 36.4375 49.1875C36.4375 55.115 41.2599 59.9375 47.1875 59.9375C53.1151 59.9375 57.9375 55.115 57.9375 49.1875C57.9375 46.8408 57.1947 44.6109 55.7894 42.7391C55.5666 42.4425 55.1454 42.3823 54.8486 42.6051C54.5519 42.8279 54.492 43.2491 54.7148 43.5458C55.9441 45.1832 56.5938 47.134 56.5938 49.1875C56.5938 54.3741 52.3741 58.5938 47.1875 58.5938C42.0009 58.5938 37.7813 54.3741 37.7813 49.1875C37.7813 47.3926 38.2836 45.6639 39.2362 44.1612L41.1662 46.3913C41.0765 46.4614 41.0031 46.5548 40.9574 46.6678C40.6332 47.4688 40.4688 48.3166 40.4688 49.1875C40.4688 52.8922 43.4828 55.9063 47.1875 55.9063C50.8922 55.9063 53.9063 52.8922 53.9063 49.1875C53.9063 47.852 53.5151 46.5615 52.7753 45.4557C52.569 45.1472 52.1517 45.0644 51.8433 45.2708C51.5349 45.4772 51.4521 45.8945 51.6585 46.2029C52.2499 47.087 52.5625 48.119 52.5625 49.1875C52.5625 52.1513 50.1513 54.5625 47.1875 54.5625C44.2237 54.5625 41.8125 52.1513 41.8125 49.1875C41.8125 48.5722 41.9151 47.972 42.1171 47.3996C42.526 47.6948 43.0089 47.8427 43.4922 47.8427C43.8813 47.8427 44.2701 47.7464 44.6205 47.555C44.6429 47.5873 44.6681 47.6183 44.6968 47.6471L44.8732 47.8235C44.6365 48.2236 44.5 48.6898 44.5 49.1875C44.5 50.6694 45.7056 51.875 47.1875 51.875C48.6694 51.875 49.875 50.6694 49.875 49.1875C49.875 48.8165 49.5742 48.5156 49.2031 48.5156C48.8321 48.5156 48.5313 48.8165 48.5313 49.1875C48.5313 49.9284 47.9284 50.5313 47.1875 50.5313C46.4466 50.5313 45.8438 49.9284 45.8438 49.1875C45.8438 49.0675 45.8611 48.9517 45.8907 48.8409L46.7124 49.6626C46.8436 49.7938 47.0155 49.8594 47.1875 49.8594C47.3595 49.8594 47.5314 49.7938 47.6626 49.6626C47.9251 49.4002 47.9251 48.9749 47.6626 48.7124L46.841 47.8908C46.9518 47.8611 47.0676 47.8438 47.1876 47.8438C47.5586 47.8438 47.8595 47.543 47.8595 47.172C47.8595 46.8009 47.5586 46.5001 47.1876 46.5001C46.6899 46.5001 46.2237 46.6366 45.8235 46.8733L45.647 46.6968C45.6182 46.6681 45.5872 46.643 45.5549 46.6205C45.984 45.8352 45.9324 44.8553 45.3996 44.1171C45.9721 43.9151 46.5723 43.8125 47.1875 43.8125C48.2565 43.8125 49.289 44.1253 50.1731 44.7172C50.288 44.7939 50.4178 44.8308 50.5463 44.8308C50.763 44.8308 50.9757 44.7262 51.1052 44.5326C51.3116 44.2242 51.229 43.8069 50.9206 43.6004C49.8145 42.8601 48.5236 42.4688 47.1875 42.4688C46.3164 42.4688 45.4686 42.6332 44.6675 42.9575C44.5545 43.0032 44.4612 43.0765 44.3912 43.1661L42.1612 41.2363C43.6639 40.2836 45.3926 39.7813 47.1875 39.7813C49.242 39.7813 51.1936 40.4315 52.8313 41.6618C52.9522 41.7527 53.0938 41.7965 53.2343 41.7965C53.4384 41.7965 53.64 41.7039 53.772 41.5282C53.9949 41.2316 53.935 40.8104 53.6383 40.5875C51.7662 39.1809 49.5355 38.4375 47.1875 38.4375C45.0011 38.4375 42.9004 39.09 41.1062 40.3232L39.0197 38.5175C41.3559 36.7285 44.2284 35.75 47.1875 35.75C50.2676 35.75 53.2771 36.8184 55.6616 38.7583C55.9495 38.9925 56.3726 38.949 56.6068 38.6612C56.841 38.3733 56.7975 37.9501 56.5096 37.7159C53.8863 35.5816 50.5756 34.4063 47.1875 34.4063C43.8397 34.4063 40.5925 35.5448 37.9842 37.6215L37.1094 36.8644V34.9178C40.0666 32.8251 43.55 31.7188 47.1875 31.7188C56.8198 31.7188 64.6562 39.5553 64.6562 49.1875C64.6562 58.8198 56.8198 66.6562 47.1875 66.6562Z" fill="white"/>
  <defs>
    <linearGradient id="paint0_linear_365_9982" x1="52.0979" y1="-6.0847" x2="41.3966" y2="103.068" gradientUnits="userSpaceOnUse">
      <stop stop-color="white"/>
      <stop offset="1" stop-color="#D7D6D6"/>
    </linearGradient>
  </defs>
</svg>