<svg width="94" height="94" viewBox="0 0 94 94" fill="none" xmlns="http://www.w3.org/2000/svg">
<path d="M47.0926 93.8244C73.0016 93.8244 93.9633 72.8211 93.9119 46.9122C93.8604 21.0033 72.8154 0 46.9064 0C20.9975 0 0.0358223 21.0033 0.0872393 46.9122C0.138656 72.8211 21.1837 93.8244 47.0926 93.8244Z" fill="url(#paint0_linear_3218_8925)"/>
<path d="M5.86914 46.7492C5.86914 24.089 24.3019 5.65625 46.9621 5.65625C69.6224 5.65625 88.0551 24.089 88.0551 46.7492C88.0551 69.4095 69.6224 87.8422 46.9621 87.8422C24.3019 87.8422 5.86914 69.4095 5.86914 46.7492Z" fill="#477FD3"/>
<path fill-rule="evenodd" clip-rule="evenodd" d="M48.1351 37.0572C47.8993 37.0572 47.6635 36.9393 47.5244 36.716L46.2243 34.663C46.0671 34.4149 46.0671 34.0924 46.2304 33.8443L47.5244 31.8409C47.7481 31.4935 48.2016 31.4005 48.5403 31.63C48.8729 31.8595 48.9696 32.3185 48.7459 32.6658L48.1533 33.5776C53.8192 34.2164 58.2395 39.1474 58.2395 45.1204C58.2395 48.5008 56.8064 51.7013 54.3151 53.9094C54.176 54.0335 54.0067 54.0955 53.8374 54.0955C53.6318 54.0955 53.4322 54.0086 53.2871 53.835C53.021 53.5248 53.0573 53.0473 53.3597 52.7805C55.5305 50.8516 56.7762 48.0666 56.7762 45.1204C56.7762 40.0034 53.0573 35.7671 48.244 35.0972L48.7459 35.8973C48.9696 36.2446 48.8729 36.7098 48.5342 36.9331C48.4072 37.02 48.2742 37.0572 48.1351 37.0572ZM47.8872 52.03H45.9461C45.5954 52.03 45.2931 51.7757 45.2326 51.4222L44.9484 49.9212C44.5554 49.7537 44.1925 49.5304 43.8539 49.2699L42.4389 49.7723C42.1064 49.8902 41.7435 49.7475 41.5682 49.4374L40.5946 47.7193C40.4253 47.403 40.4858 47.0122 40.7518 46.7765L41.8826 45.7717C41.8584 45.5546 41.8463 45.3375 41.8463 45.1204C41.8463 44.9034 41.8584 44.6863 41.8826 44.4754L40.7518 43.4706C40.4858 43.2349 40.4253 42.8379 40.5946 42.5278L41.5682 40.8097C41.7435 40.4996 42.1064 40.3569 42.4389 40.4748L43.8539 40.9772C44.1925 40.7105 44.5554 40.4934 44.9484 40.3259L45.2326 38.8187C45.2931 38.4713 45.5954 38.2108 45.9461 38.2108H47.8872C48.2319 38.2108 48.5342 38.4713 48.6007 38.8187L48.8849 40.3259C49.278 40.4934 49.6408 40.7105 49.9794 40.9772L51.3944 40.4748C51.727 40.3569 52.0898 40.4934 52.2652 40.8097L53.2327 42.5278C53.408 42.8379 53.3415 43.2349 53.0815 43.4706L51.9507 44.4754C51.9749 44.6863 51.987 44.9034 51.987 45.1204C51.987 45.3375 51.9749 45.5546 51.9507 45.7717L53.0815 46.7765C53.3415 47.0122 53.408 47.403 53.2327 47.7193L52.2652 49.4374C52.0898 49.7475 51.727 49.8902 51.3944 49.7723L49.9794 49.2699C49.6408 49.5304 49.272 49.7475 48.8849 49.9212L48.6007 51.4222C48.5342 51.7757 48.2319 52.03 47.8872 52.03ZM46.5508 50.5352H47.2825L47.5304 49.2203C47.5788 48.9536 47.7663 48.7365 48.0202 48.6497C48.51 48.4884 48.9575 48.2279 49.3385 47.8682C49.538 47.6821 49.8162 47.6263 50.0701 47.7131L51.3037 48.1535L51.6665 47.5022L50.6809 46.6277C50.4813 46.4478 50.3906 46.1749 50.4451 45.9082C50.4995 45.6477 50.5297 45.3871 50.5297 45.1204C50.5297 44.8599 50.4995 44.5994 50.4451 44.3389C50.3906 44.0722 50.4813 43.7931 50.6809 43.6194L51.6665 42.7449L51.3037 42.0936L50.0701 42.5278C49.8162 42.6208 49.538 42.5588 49.3385 42.3789C48.9575 42.0192 48.51 41.7587 48.0202 41.5974C47.7663 41.5106 47.5788 41.2935 47.5304 41.0206L47.2825 39.7119H46.5508L46.3029 41.0206C46.2545 41.2935 46.0671 41.5106 45.8131 41.5974C45.3173 41.7587 44.8758 42.0192 44.4888 42.3789C44.2953 42.5588 44.0111 42.6208 43.7632 42.5278L42.5296 42.0936L42.1608 42.7449L43.1464 43.6194C43.352 43.7931 43.4427 44.0722 43.3823 44.3389C43.3339 44.5994 43.3036 44.8599 43.3036 45.1204C43.3036 45.3871 43.3339 45.6477 43.3823 45.9082C43.4427 46.1749 43.352 46.4478 43.1464 46.6277L42.1608 47.5022L42.5296 48.1535L43.7632 47.7131C44.0111 47.6263 44.2953 47.6821 44.4888 47.8682C44.8758 48.2279 45.3173 48.4884 45.8071 48.6497C46.0671 48.7365 46.2545 48.9536 46.3029 49.2203L46.5508 50.5352ZM46.9137 47.9116C45.4201 47.9116 44.1986 46.6587 44.1986 45.1204C44.1986 43.5884 45.4201 42.3355 46.9137 42.3355C48.4133 42.3355 49.6348 43.5884 49.6348 45.1204C49.6348 46.6587 48.4133 47.9116 46.9137 47.9116ZM46.9137 43.8365C46.2243 43.8365 45.6619 44.4134 45.6619 45.1204C45.6619 45.8337 46.2243 46.4106 46.9137 46.4106C47.609 46.4106 48.1714 45.8337 48.1714 45.1204C48.1714 44.4134 47.609 43.8365 46.9137 43.8365ZM47.0044 63.0953H29.9339C29.5348 63.0953 29.2083 62.7604 29.2083 62.3448C29.2083 61.9292 29.5348 61.5943 29.9339 61.5943H47.0044C55.7422 61.5943 62.8957 54.4986 63.2766 45.629H60.2834C60.0052 45.629 59.7513 45.4678 59.6303 45.2135C59.5033 44.9592 59.5336 44.6553 59.6968 44.432L63.4036 39.3955C63.5427 39.2032 63.7543 39.0978 63.9841 39.0978C64.2078 39.0978 64.4255 39.2032 64.5646 39.3893L68.35 44.4258C68.5193 44.6491 68.5495 44.953 68.4286 45.2135C68.3016 45.4678 68.0476 45.629 67.7695 45.629H64.74C64.5646 50.2127 62.7384 54.4986 59.5578 57.7612C56.2017 61.1974 51.7451 63.0953 47.0044 63.0953ZM64.0264 44.1342H66.288L63.9902 41.0764L61.7467 44.1342H64.0264ZM29.2627 44.1342C29.4441 39.5506 31.2642 35.2647 34.4449 32.0021C37.8009 28.5659 42.2575 26.668 47.0044 26.668C51.5456 26.668 55.8752 28.4295 59.1768 31.63C59.4731 31.9153 59.4852 32.3867 59.207 32.6906C58.9349 32.9883 58.4693 33.0007 58.1791 32.7216C55.1435 29.7816 51.1767 28.169 47.0044 28.169C38.2605 28.169 31.107 35.2647 30.726 44.1342H33.7193C33.9974 44.1342 34.2514 44.2955 34.3784 44.5498C34.4993 44.8041 34.4691 45.1142 34.2998 45.3375L30.5144 50.374C30.3753 50.56 30.1637 50.6655 29.9339 50.6655C29.7041 50.6655 29.4925 50.5538 29.3534 50.3678L25.6527 45.3313C25.4834 45.108 25.4531 44.8041 25.5801 44.5498C25.7011 44.2955 25.955 44.1342 26.2332 44.1342H29.2627ZM27.6965 45.629L29.946 48.6807L32.2378 45.629H29.9762H27.6965ZM46.3029 56.7191C40.3467 56.3904 35.5938 51.3168 35.5938 45.1204C35.5938 41.6222 37.1116 38.3473 39.7541 36.1268C40.0685 35.8663 40.5281 35.9159 40.7821 36.2322C41.036 36.5548 40.9937 37.0262 40.6793 37.2867C38.3754 39.2157 37.0511 42.075 37.0511 45.1204C37.0511 50.4794 41.1328 54.8708 46.2666 55.2181L45.7345 54.3684C45.5108 54.021 45.6075 53.5559 45.9461 53.3326C46.2848 53.1093 46.7383 53.2023 46.956 53.5497L48.25 55.6027C48.4133 55.8508 48.4072 56.1733 48.25 56.4214L46.9499 58.431C46.8109 58.6481 46.5811 58.766 46.3452 58.766C46.2062 58.766 46.0671 58.7225 45.9401 58.6419C45.6075 58.4124 45.5108 57.9472 45.7345 57.5999L46.3029 56.7191ZM40.6853 66.668H31.8629C31.4638 66.668 31.1372 66.333 31.1372 65.9175C31.1372 65.5019 31.4638 65.167 31.8629 65.167H40.6853C41.0844 65.167 41.417 65.5019 41.417 65.9175C41.417 66.333 41.0844 66.668 40.6853 66.668Z" fill="white"/>
<defs>
<linearGradient id="paint0_linear_3218_8925" x1="52.092" y1="-6.0847" x2="41.3907" y2="103.068" gradientUnits="userSpaceOnUse">
<stop stop-color="white"/>
<stop offset="1" stop-color="#D7D6D6"/>
</linearGradient>
</defs>
</svg>
