<svg width="95" height="94" viewBox="0 0 95 94" fill="none" xmlns="http://www.w3.org/2000/svg">
<path d="M47.0985 93.8244C73.0075 93.8244 93.9691 72.8211 93.9177 46.9122C93.8663 21.0033 72.8213 0 46.9123 0C21.0034 0 0.0416817 21.0033 0.0930987 46.9122C0.144516 72.8211 21.1896 93.8244 47.0985 93.8244Z" fill="url(#paint0_linear_3114_2928)"/>
<path d="M5.875 46.7512C5.875 24.091 24.3078 5.6582 46.968 5.6582C69.6282 5.6582 88.061 24.091 88.061 46.7512C88.061 69.4114 69.6282 87.8442 46.968 87.8442C24.3078 87.8442 5.875 69.4114 5.875 46.7512Z" fill="#1EBBD7"/>
<path d="M48.8218 60.6126C49.2336 60.6122 49.6285 60.4483 49.9197 60.157C50.2108 59.8657 50.3745 59.4708 50.3748 59.0589V57.3763C51.3492 57.1193 52.2842 56.7313 53.1542 56.2228L54.3462 57.415C54.6375 57.706 55.0324 57.8694 55.4442 57.8694C55.856 57.8693 56.2509 57.7058 56.5421 57.4147L58.4116 55.5444C58.702 55.2529 58.8651 54.8582 58.8651 54.4467C58.8651 54.0352 58.702 53.6404 58.4116 53.349L57.2199 52.1571C57.7285 51.2869 58.1164 50.3515 58.373 49.3768H60.0563C60.468 49.3764 60.8627 49.2128 61.1539 48.9218C61.4451 48.6307 61.6089 48.236 61.6094 47.8244V45.1815C61.609 44.7698 61.4453 44.3751 61.1542 44.0839C60.8632 43.7928 60.4685 43.629 60.0568 43.6284H58.373C58.1165 42.6535 57.7285 41.7181 57.2197 40.8478L58.4111 39.6566C58.5554 39.5125 58.6699 39.3413 58.7481 39.1529C58.8263 38.9645 58.8665 38.7626 58.8666 38.5586C58.8666 38.3547 58.8265 38.1527 58.7484 37.9643C58.6703 37.7758 58.5559 37.6047 58.4116 37.4605L56.5428 35.5915C56.3987 35.447 56.2276 35.3324 56.0392 35.2542C55.8508 35.1759 55.6488 35.1356 55.4448 35.1355C55.2408 35.1354 55.0388 35.1756 54.8504 35.2536C54.6619 35.3317 54.4907 35.4462 54.3465 35.5905L53.1545 36.783C52.2845 36.2741 51.3494 35.8858 50.3748 35.6289V33.9463C50.3745 33.5344 50.2108 33.1395 49.9197 32.8482C49.6285 32.5569 49.2336 32.393 48.8218 32.3926H46.1782C45.7663 32.393 45.3715 32.5569 45.0803 32.8482C44.7891 33.1395 44.6255 33.5344 44.6252 33.9463V35.6289C43.6506 35.8858 42.7155 36.2741 41.8455 36.783L40.654 35.5909C40.5099 35.4465 40.3387 35.332 40.1503 35.2539C39.9619 35.1757 39.7599 35.1355 39.5559 35.1355C39.352 35.1355 39.15 35.1757 38.9616 35.2539C38.7732 35.332 38.602 35.4465 38.4579 35.5909L36.5884 37.4608C36.2978 37.7523 36.1347 38.147 36.1348 38.5586C36.1348 38.9701 36.2981 39.3649 36.5887 39.6562L37.7803 40.8478C37.2715 41.7181 36.8835 42.6535 36.627 43.6284H34.9432C34.5316 43.6293 34.1371 43.7932 33.8461 44.0842C33.5551 44.3753 33.3913 44.7699 33.3906 45.1815L33.3911 47.8237C33.3908 48.0277 33.4307 48.2298 33.5086 48.4183C33.5865 48.6069 33.7008 48.7782 33.845 48.9225C33.9893 49.0668 34.1606 49.1811 34.3491 49.2591C34.5376 49.3371 34.7397 49.377 34.9437 49.3768H36.627C36.8834 50.3516 37.2714 51.287 37.7803 52.1571L36.5887 53.349C36.2981 53.6404 36.1348 54.0352 36.1348 54.4468C36.1348 54.8584 36.2981 55.2533 36.5887 55.5447L38.4572 57.4133C38.6013 57.5579 38.7724 57.6726 38.9609 57.7509C39.1493 57.8292 39.3514 57.8696 39.5555 57.8697C39.7595 57.8698 39.9616 57.8296 40.1502 57.7515C40.3387 57.6733 40.5099 57.5588 40.6541 57.4143L41.8455 56.2228C42.7156 56.7312 43.6507 57.1193 44.6252 57.3763V59.0589C44.6255 59.4708 44.7892 59.8657 45.0803 60.157C45.3715 60.4483 45.7663 60.6122 46.1782 60.6126H48.8218ZM45.9689 59.0589V56.8451C45.969 56.6912 45.916 56.5419 45.8191 56.4224C45.7221 56.3029 45.5869 56.2204 45.4363 56.1887C44.2526 55.9376 43.1255 55.4698 42.1119 54.8088C41.9828 54.7247 41.8288 54.6876 41.6756 54.7036C41.5224 54.7196 41.3794 54.7878 41.2705 54.8968L39.7039 56.4639C39.6845 56.4836 39.6614 56.4992 39.6359 56.5099C39.6104 56.5205 39.5831 56.526 39.5554 56.5259C39.528 56.5261 39.5008 56.5207 39.4755 56.51C39.4502 56.4994 39.4274 56.4837 39.4083 56.4639L37.5391 54.5956C37.4999 54.5564 37.4779 54.5032 37.4778 54.4477C37.4777 54.3923 37.4997 54.339 37.5388 54.2997L39.1058 52.7319C39.2148 52.6229 39.283 52.4798 39.2991 52.3266C39.3151 52.1733 39.2781 52.0192 39.1941 51.89C38.5331 50.8765 38.0655 49.7493 37.8149 48.5655C37.7829 48.4149 37.7001 48.2798 37.5805 48.1829C37.4609 48.086 37.3116 48.0331 37.1576 48.033H34.9437C34.9162 48.0331 34.889 48.0278 34.8637 48.0173C34.8383 48.0069 34.8153 47.9915 34.7958 47.9721C34.7764 47.9527 34.7611 47.9297 34.7506 47.9043C34.7401 47.879 34.7348 47.8518 34.7349 47.8244L34.7344 45.1822C34.7344 45.1266 34.7564 45.0733 34.7956 45.0339C34.8349 44.9946 34.8881 44.9724 34.9437 44.9722H37.1576C37.3116 44.972 37.4608 44.919 37.5804 44.8221C37.7 44.7252 37.7827 44.5903 37.8149 44.4397C38.0656 43.2558 38.5332 42.1284 39.1941 41.1145C39.278 40.9854 39.3151 40.8313 39.299 40.6781C39.2829 40.5249 39.2147 40.3819 39.1058 40.273L37.5388 38.7058C37.4997 38.6664 37.4778 38.6132 37.4778 38.5577C37.4778 38.5022 37.4997 38.449 37.5388 38.4096L39.408 36.5413C39.4273 36.5217 39.4504 36.5062 39.4757 36.4956C39.5011 36.485 39.5283 36.4796 39.5558 36.4796C39.5834 36.4796 39.6106 36.485 39.636 36.4956C39.6613 36.5062 39.6844 36.5217 39.7037 36.5413L41.2705 38.1084C41.3797 38.2169 41.5227 38.2848 41.6757 38.3007C41.8288 38.3167 41.9827 38.2797 42.1119 38.196C43.1256 37.5353 44.2526 37.0676 45.4363 36.8165C45.5869 36.7848 45.7221 36.7023 45.8191 36.5828C45.9161 36.4632 45.969 36.314 45.9689 36.16V33.9463C45.9689 33.9188 45.9743 33.8915 45.9848 33.8661C45.9953 33.8407 46.0107 33.8176 46.0301 33.7981C46.0496 33.7786 46.0726 33.7632 46.098 33.7526C46.1235 33.7421 46.1507 33.7367 46.1782 33.7367H48.8218C48.8493 33.7367 48.8765 33.7421 48.9019 33.7526C48.9274 33.7632 48.9504 33.7786 48.9699 33.7981C48.9893 33.8176 49.0047 33.8407 49.0152 33.8661C49.0257 33.8915 49.0311 33.9188 49.0311 33.9463V36.16C49.031 36.314 49.0839 36.4632 49.1809 36.5828C49.2779 36.7023 49.4131 36.7848 49.5637 36.8165C50.7473 37.0676 51.8744 37.5353 52.8881 38.196C53.0171 38.2801 53.1711 38.3173 53.3242 38.3013C53.4774 38.2854 53.6204 38.2173 53.7293 38.1084L55.2968 36.5409C55.3161 36.5215 55.3391 36.506 55.3645 36.4955C55.3898 36.485 55.417 36.4796 55.4445 36.4796C55.4719 36.4796 55.4991 36.4851 55.5244 36.4957C55.5497 36.5063 55.5727 36.5218 55.592 36.5413L57.4615 38.4099C57.4809 38.4293 57.4964 38.4524 57.5069 38.4778C57.5174 38.5032 57.5229 38.5304 57.5228 38.5579C57.5228 38.5854 57.5173 38.6126 57.5068 38.638C57.4962 38.6634 57.4807 38.6864 57.4612 38.7058L55.8942 40.273C55.7852 40.3819 55.717 40.5249 55.701 40.6781C55.6849 40.8313 55.722 40.9854 55.8059 41.1145C56.4668 42.1284 56.9344 43.2558 57.1851 44.4397C57.2172 44.5903 57.3 44.7252 57.4196 44.8221C57.5392 44.919 57.6884 44.972 57.8424 44.9722H60.0563C60.0838 44.9722 60.111 44.9776 60.1364 44.9881C60.1618 44.9986 60.1849 45.014 60.2043 45.0335C60.2238 45.0529 60.2392 45.076 60.2497 45.1014C60.2602 45.1268 60.2656 45.154 60.2656 45.1815V47.8244C60.2655 47.8798 60.2434 47.9329 60.2041 47.972C60.1649 48.0111 60.1117 48.0331 60.0563 48.033H57.8424C57.6884 48.0331 57.5391 48.086 57.4195 48.1829C57.2999 48.2798 57.2171 48.4149 57.1851 48.5655C56.9343 49.7492 56.4668 50.8763 55.8061 51.89C55.7221 52.0192 55.6851 52.1733 55.7011 52.3266C55.7172 52.4798 55.7854 52.6229 55.8943 52.7319L57.4612 54.299C57.5003 54.3385 57.5222 54.3918 57.5222 54.4473C57.5222 54.5029 57.5003 54.5562 57.4612 54.5956L55.5922 56.4639C55.573 56.4837 55.5499 56.4994 55.5245 56.51C55.499 56.5206 55.4717 56.5259 55.4441 56.5256C55.4166 56.5258 55.3893 56.5205 55.3639 56.5099C55.3385 56.4994 55.3154 56.4839 55.2961 56.4643L53.7291 54.8968C53.6201 54.7881 53.4771 54.7202 53.324 54.7042C53.1709 54.6882 53.0169 54.7251 52.8878 54.8088C51.8743 55.4698 50.7473 55.9377 49.5637 56.1887C49.4131 56.2204 49.2779 56.3029 49.1809 56.4224C49.084 56.542 49.031 56.6912 49.0311 56.8451V59.0589C49.0311 59.1145 49.0091 59.1677 48.9698 59.2071C48.9306 59.2464 48.8773 59.2685 48.8218 59.2685H46.1782C46.1227 59.2685 46.0694 59.2464 46.0302 59.2071C45.9909 59.1677 45.9689 59.1145 45.9689 59.0589Z" fill="white"/>
<path d="M53.5469 46.502C53.5469 45.306 53.1922 44.1369 52.5278 43.1425C51.8634 42.1481 50.919 41.373 49.814 40.9154C48.7091 40.4577 47.4933 40.3379 46.3203 40.5713C45.1473 40.8046 44.0699 41.3805 43.2242 42.2262C42.3785 43.0718 41.8026 44.1493 41.5693 45.3223C41.336 46.4952 41.4557 47.7111 41.9134 48.816C42.3711 49.9209 43.1461 50.8653 44.1405 51.5297C45.1349 52.1942 46.304 52.5488 47.5 52.5488C49.1031 52.5469 50.64 51.9092 51.7736 50.7756C52.9072 49.642 53.5449 48.1051 53.5469 46.502ZM42.7969 46.502C42.7969 45.5718 43.0728 44.6625 43.5897 43.8891C44.1065 43.1157 44.841 42.513 45.7004 42.1571C46.5598 41.8012 47.5054 41.7081 48.4177 41.8896C49.33 42.0711 50.168 42.519 50.8257 43.1768C51.4834 43.8346 51.9313 44.6726 52.1128 45.5849C52.2942 46.4972 52.2011 47.4428 51.8451 48.3022C51.4891 49.1615 50.8863 49.896 50.1129 50.4128C49.3395 50.9296 48.4302 51.2054 47.5 51.2054C46.253 51.204 45.0575 50.708 44.1758 49.8262C43.2941 48.9444 42.7982 47.7489 42.7969 46.502Z" fill="white"/>
<path d="M28.7353 47.7857L28.8 47.8821C28.9002 48.0287 29.0538 48.1303 29.228 48.165C29.4021 48.1998 29.5829 48.165 29.7318 48.0681C29.8052 48.0192 29.8683 47.9564 29.9174 47.8831C29.9665 47.8098 30.0007 47.7276 30.018 47.6411C30.0353 47.5546 30.0354 47.4655 30.0182 47.379C30.0011 47.2924 29.9671 47.2101 29.9181 47.1367L28.5743 45.1211C28.5129 45.0292 28.4298 44.9538 28.3323 44.9017C28.2348 44.8495 28.1259 44.8223 28.0153 44.8223C27.9047 44.8223 27.7959 44.8495 27.6984 44.9017C27.6009 44.9538 27.5177 45.0292 27.4563 45.1211L26.1125 47.1367C26.0139 47.285 25.9781 47.4664 26.0131 47.641C26.0481 47.8156 26.151 47.9692 26.2992 48.068C26.4474 48.1668 26.6287 48.2027 26.8034 48.1678C26.978 48.133 27.1317 48.0302 27.2306 47.8821L27.3802 47.6584C27.6423 52.2835 29.4913 56.6768 32.6153 60.0974C35.7393 63.5181 39.9473 65.7569 44.5297 66.4364C44.4231 65.9869 44.478 65.5142 44.6849 65.1012C40.4515 64.4636 36.5628 62.3996 33.6624 59.2507C30.7619 56.1019 29.0236 52.057 28.7353 47.7857Z" fill="white"/>
<path d="M67.433 49.4732C66.9834 49.5782 66.5113 49.5227 66.0983 49.3164C65.4492 53.5447 63.3818 57.4267 60.2355 60.3251C57.0893 63.2235 53.0511 64.9661 48.7839 65.2669L48.8802 65.2029C48.9536 65.154 49.0167 65.0911 49.0658 65.0177C49.1149 64.9444 49.1491 64.8621 49.1664 64.7756C49.1837 64.6891 49.1838 64.6 49.1667 64.5134C49.1496 64.4268 49.1156 64.3445 49.0667 64.271C49.0177 64.1976 48.9548 64.1345 48.8815 64.0854C48.8082 64.0363 48.7259 64.0021 48.6393 63.9848C48.5528 63.9675 48.4637 63.9674 48.3771 63.9845C48.2906 64.0016 48.2082 64.0356 48.1348 64.0845L46.1195 65.4283C46.0275 65.4897 45.952 65.5728 45.8998 65.6704C45.8476 65.7679 45.8203 65.8769 45.8203 65.9875C45.8203 66.0981 45.8476 66.207 45.8998 66.3046C45.952 66.4021 46.0275 66.4853 46.1195 66.5467L48.1348 67.8904C48.2837 67.9874 48.4646 68.0221 48.6388 67.9871C48.813 67.9522 48.9666 67.8503 49.0665 67.7034C49.1653 67.5552 49.2011 67.3738 49.1662 67.1991C49.1312 67.0245 49.0284 66.8709 48.8802 66.772L48.6556 66.6221C53.2762 66.3467 57.6622 64.4933 61.0801 61.3718C64.498 58.2503 66.7407 54.05 67.433 49.4732Z" fill="white"/>
<path d="M68.7004 44.9344C68.5521 44.8358 68.3707 44.8 68.1961 44.8349C68.0214 44.8699 67.8677 44.9727 67.7687 45.1208L67.6211 45.3412C67.6139 44.8006 67.4357 43.5129 67.4026 43.303C66.7395 39.0691 64.7375 35.159 61.6901 32.146C58.6426 29.133 54.7101 27.1755 50.469 26.5605C50.5766 27.0103 50.5226 27.4835 50.3164 27.8974C53.1639 28.3171 55.8761 29.3882 58.2421 31.0273C60.608 32.6664 62.5639 34.8293 63.9574 37.3476L63.944 37.3552C65.1051 39.4441 65.857 41.7353 66.1592 44.1061C66.1632 44.1372 66.2597 45.1431 66.2647 45.2192L66.1993 45.1208C66.1504 45.0472 66.0875 44.9839 66.0141 44.9347C65.9408 44.8854 65.8584 44.8512 65.7718 44.8338C65.6852 44.8164 65.596 44.8162 65.5093 44.8334C65.4227 44.8505 65.3402 44.8845 65.2667 44.9336C65.1932 44.9826 65.1301 45.0456 65.081 45.1191C65.0319 45.1925 64.9977 45.2749 64.9805 45.3615C64.9633 45.4482 64.9633 45.5374 64.9806 45.624C64.9979 45.7107 65.0321 45.7931 65.0812 45.8665L66.425 47.8818C66.4863 47.9738 66.5695 48.0492 66.667 48.1014C66.7645 48.1536 66.8734 48.1809 66.984 48.1809C67.0946 48.1809 67.2035 48.1536 67.301 48.1014C67.3986 48.0492 67.4817 47.9738 67.543 47.8818L68.8868 45.8665C68.9857 45.7181 69.0216 45.5366 68.9866 45.3619C68.9517 45.1871 68.8487 45.0333 68.7004 44.9344Z" fill="white"/>
<path d="M45.9332 28.7327C46.0332 28.8796 46.1868 28.9814 46.361 29.0162C46.5353 29.051 46.7162 29.016 46.8649 28.9187L48.8802 27.575C48.9722 27.5136 49.0477 27.4304 49.0999 27.3329C49.1521 27.2354 49.1794 27.1264 49.1794 27.0158C49.1794 26.9052 49.1521 26.7963 49.0999 26.6987C49.0477 26.6012 48.9722 26.518 48.8802 26.4566L46.8649 25.1129C46.7915 25.0639 46.7092 25.0299 46.6227 25.0128C46.5362 24.9957 46.4471 24.9957 46.3606 25.013C46.2741 25.0303 46.1918 25.0645 46.1185 25.1135C46.0452 25.1626 45.9823 25.2256 45.9334 25.299C45.8844 25.3724 45.8504 25.4547 45.8333 25.5413C45.8162 25.6278 45.8162 25.7169 45.8335 25.8034C45.8508 25.8899 45.885 25.9721 45.934 26.0454C45.9831 26.1187 46.0462 26.1816 46.1195 26.2306L47.2965 27.0163L46.1195 27.801C46.0461 27.8499 45.9831 27.9129 45.9339 27.9862C45.8848 28.0595 45.8507 28.1417 45.8334 28.2283C45.8161 28.3148 45.816 28.4039 45.8331 28.4904C45.8502 28.577 45.8842 28.6593 45.9332 28.7327Z" fill="white"/>
<path d="M29.6953 31.0469C30.1604 31.0469 30.6151 30.909 31.0018 30.6506C31.3885 30.3922 31.6899 30.0249 31.8679 29.5952C32.0459 29.1655 32.0924 28.6927 32.0017 28.2365C31.911 27.7804 31.687 27.3614 31.3581 27.0325C31.0292 26.7036 30.6102 26.4797 30.1541 26.3889C29.6979 26.2982 29.2251 26.3448 28.7954 26.5228C28.3657 26.7007 27.9985 27.0021 27.7401 27.3889C27.4817 27.7756 27.3438 28.2302 27.3438 28.6953C27.3445 29.3188 27.5925 29.9165 28.0333 30.3573C28.4742 30.7982 29.0719 31.0462 29.6953 31.0469ZM29.6953 27.6872C29.8947 27.6871 30.0897 27.7462 30.2555 27.8569C30.4213 27.9676 30.5506 28.1251 30.627 28.3093C30.7033 28.4935 30.7233 28.6962 30.6845 28.8918C30.6456 29.0874 30.5496 29.267 30.4086 29.4081C30.2677 29.5491 30.088 29.6451 29.8925 29.6841C29.6969 29.723 29.4942 29.703 29.3099 29.6268C29.1257 29.5505 28.9682 29.4212 28.8574 29.2554C28.7466 29.0896 28.6875 28.8947 28.6875 28.6953C28.6878 28.4281 28.7941 28.1719 28.983 27.9829C29.172 27.794 29.4281 27.6876 29.6953 27.6872Z" fill="white"/>
<path d="M65.3047 31.0469C65.7698 31.0469 66.2244 30.909 66.6111 30.6506C66.9979 30.3922 67.2993 30.0249 67.4772 29.5952C67.6552 29.1655 67.7018 28.6927 67.6111 28.2365C67.5203 27.7804 67.2964 27.3614 66.9675 27.0325C66.6386 26.7036 66.2196 26.4797 65.7635 26.3889C65.3073 26.2982 64.8345 26.3448 64.4048 26.5228C63.9751 26.7007 63.6078 27.0021 63.3494 27.3889C63.091 27.7756 62.9531 28.2302 62.9531 28.6953C62.9538 29.3188 63.2018 29.9165 63.6427 30.3573C64.0835 30.7982 64.6812 31.0462 65.3047 31.0469ZM65.3047 27.6872C65.5041 27.6871 65.699 27.7462 65.8649 27.8569C66.0307 27.9676 66.16 28.1251 66.2363 28.3093C66.3127 28.4935 66.3327 28.6962 66.2938 28.8918C66.255 29.0874 66.159 29.267 66.018 29.4081C65.877 29.5491 65.6974 29.6451 65.5018 29.6841C65.3063 29.723 65.1035 29.703 64.9193 29.6268C64.7351 29.5505 64.5776 29.4212 64.4668 29.2554C64.356 29.0896 64.2969 28.8947 64.2969 28.6953C64.2972 28.4281 64.4035 28.1719 64.5924 27.9829C64.7813 27.794 65.0375 27.6876 65.3047 27.6872Z" fill="white"/>
<path d="M29.6956 61.9551C29.2305 61.955 28.7758 62.0929 28.3891 62.3513C28.0023 62.6097 27.7009 62.977 27.5228 63.4067C27.3448 63.8364 27.2982 64.3092 27.3889 64.7654C27.4796 65.2216 27.7036 65.6407 28.0324 65.9696C28.3613 66.2985 28.7803 66.5225 29.2365 66.6133C29.6927 66.7041 30.1656 66.6576 30.5953 66.4796C31.025 66.3016 31.3923 66.0002 31.6508 65.6135C31.9092 65.2268 32.0472 64.7721 32.0472 64.307C32.0466 63.6835 31.7986 63.0857 31.3578 62.6448C30.9169 62.2039 30.3192 61.9558 29.6956 61.9551ZM29.6956 65.3148C29.4963 65.3148 29.3015 65.2557 29.1357 65.1449C28.97 65.0342 28.8408 64.8768 28.7646 64.6927C28.6883 64.5085 28.6683 64.3059 28.7072 64.1104C28.7461 63.9149 28.8421 63.7353 28.983 63.5943C29.124 63.4534 29.3035 63.3574 29.499 63.3185C29.6945 63.2796 29.8972 63.2996 30.0813 63.3759C30.2655 63.4522 30.4229 63.5813 30.5336 63.7471C30.6444 63.9128 30.7035 64.1076 30.7035 64.307C30.7032 64.5742 30.5969 64.8303 30.408 65.0193C30.219 65.2082 29.9628 65.3145 29.6956 65.3148Z" fill="white"/>
<path d="M65.305 61.9551C64.8399 61.955 64.3852 62.0929 63.9984 62.3513C63.6117 62.6097 63.3102 62.977 63.1322 63.4067C62.9542 63.8364 62.9076 64.3092 62.9983 64.7654C63.089 65.2216 63.3129 65.6407 63.6418 65.9696C63.9707 66.2985 64.3897 66.5225 64.8459 66.6133C65.3021 66.7041 65.7749 66.6576 66.2047 66.4796C66.6344 66.3016 67.0017 66.0002 67.2602 65.6135C67.5186 65.2268 67.6566 64.7721 67.6566 64.307C67.6559 63.6835 67.408 63.0857 66.9671 62.6448C66.5263 62.2039 65.9285 61.9558 65.305 61.9551ZM65.305 65.3148C65.1057 65.3148 64.9108 65.2557 64.7451 65.1449C64.5794 65.0342 64.4502 64.8768 64.3739 64.6927C64.2976 64.5085 64.2777 64.3059 64.3166 64.1104C64.3555 63.9149 64.4514 63.7353 64.5924 63.5943C64.7333 63.4534 64.9129 63.3574 65.1084 63.3185C65.3039 63.2796 65.5065 63.2996 65.6907 63.3759C65.8748 63.4522 66.0322 63.5813 66.143 63.7471C66.2537 63.9128 66.3128 64.1076 66.3128 64.307C66.3125 64.5742 66.2063 64.8303 66.0173 65.0193C65.8284 65.2082 65.5722 65.3145 65.305 65.3148Z" fill="white"/>
<path d="M31.5452 34.1825C31.4742 34.274 31.404 34.3663 31.3346 34.4594C31.2818 34.5301 31.2435 34.6105 31.2218 34.696C31.2001 34.7815 31.1955 34.8705 31.2082 34.9578C31.2208 35.0451 31.2506 35.1291 31.2957 35.2049C31.3409 35.2807 31.4005 35.3468 31.4712 35.3996C31.6147 35.5042 31.7935 35.5485 31.9692 35.523C32.1449 35.4975 32.3037 35.4042 32.4116 35.2632C32.4762 35.1765 32.5416 35.0905 32.6078 35.005C32.7169 34.864 32.7655 34.6856 32.743 34.5088C32.7204 34.3321 32.6286 34.1715 32.4877 34.0624C32.3468 33.9534 32.1683 33.9047 31.9916 33.9273C31.8148 33.9498 31.6543 34.0416 31.5452 34.1825Z" fill="white"/>
<path d="M27.7098 42.6586C27.6879 42.7721 27.6668 42.8859 27.6468 43.0014C27.6164 43.1739 27.6553 43.3514 27.7549 43.4955C28.0926 43.4511 28.436 43.4935 28.7528 43.6185C28.8676 43.5184 28.9444 43.382 28.9705 43.232C28.9892 43.1264 29.0088 43.0191 29.0292 42.9138C29.0628 42.739 29.0256 42.558 28.9258 42.4105C28.826 42.2631 28.6717 42.1613 28.4969 42.1275C28.3221 42.0937 28.1411 42.1306 27.9935 42.2302C27.8459 42.3297 27.7439 42.4838 27.7098 42.6586Z" fill="white"/>
<path d="M33.8602 33.2533C33.9988 33.2347 34.1324 33.1888 34.2532 33.1182C34.374 33.0477 34.4797 32.9539 34.564 32.8423C34.6936 32.7197 34.7691 32.5507 34.774 32.3725C34.7789 32.1943 34.7129 32.0214 34.5903 31.8919C34.4678 31.7623 34.2988 31.6868 34.1205 31.6819C33.9423 31.677 33.7694 31.7431 33.6399 31.8656C33.5556 31.9457 33.4723 32.0267 33.3896 32.1078C33.2934 32.2004 33.2273 32.3198 33.1998 32.4504C33.1723 32.5811 33.1848 32.717 33.2355 32.8405C33.2862 32.964 33.3729 33.0694 33.4843 33.143C33.5957 33.2166 33.7267 33.2551 33.8602 33.2533Z" fill="white"/>
<path d="M30.2582 38.086C30.3803 38.0853 30.5 38.0517 30.6046 37.9887C30.7093 37.9258 30.7951 37.8359 30.853 37.7284C30.9035 37.6336 30.955 37.5378 31.0072 37.4429C31.0497 37.3656 31.0766 37.2807 31.0863 37.193C31.096 37.1053 31.0883 37.0166 31.0637 36.9318C31.0391 36.8471 30.998 36.768 30.9429 36.6992C30.8877 36.6303 30.8196 36.573 30.7422 36.5304C30.6649 36.4879 30.58 36.461 30.4923 36.4513C30.4046 36.4416 30.3159 36.4493 30.2311 36.4739C30.1464 36.4985 30.0673 36.5396 29.9985 36.5947C29.9296 36.6499 29.8723 36.718 29.8297 36.7954C29.774 36.8964 29.7188 36.9994 29.6647 37.1014C29.6129 37.204 29.588 37.318 29.5923 37.4328C29.5966 37.5476 29.6299 37.6594 29.6892 37.7578C29.7485 37.8562 29.8318 37.9379 29.9314 37.9953C30.0309 38.0527 30.1433 38.0839 30.2582 38.086Z" fill="white"/>
<path d="M29.6963 40.4079C29.7314 40.3043 29.7675 40.2026 29.8044 40.1009C29.8346 40.0179 29.8481 39.9297 29.8442 39.8415C29.8403 39.7532 29.819 39.6666 29.7816 39.5866C29.7442 39.5066 29.6914 39.4347 29.6262 39.3751C29.561 39.3155 29.4847 39.2694 29.4016 39.2393C29.3185 39.2093 29.2304 39.1959 29.1421 39.1999C29.0539 39.204 28.9673 39.2254 28.8873 39.2629C28.8074 39.3005 28.7356 39.3534 28.6761 39.4187C28.6166 39.484 28.5706 39.5604 28.5407 39.6435C28.5012 39.7522 28.4628 39.862 28.4251 39.9716C28.3964 40.0551 28.3845 40.1434 28.39 40.2315C28.3954 40.3195 28.4182 40.4057 28.457 40.485C28.4957 40.5643 28.5497 40.6351 28.6159 40.6935C28.6821 40.7519 28.7591 40.7968 28.8425 40.8254C28.926 40.8541 29.0143 40.866 29.1024 40.8605C29.1905 40.855 29.2766 40.8323 29.3559 40.7935C29.4352 40.7547 29.506 40.7007 29.5645 40.6346C29.6229 40.5684 29.6677 40.4914 29.6963 40.4079Z" fill="white"/>
<path d="M41.5487 28.6146C41.723 28.5822 41.8951 28.5391 42.0642 28.4857C42.1487 28.4601 42.2273 28.4182 42.2956 28.3622C42.3639 28.3063 42.4205 28.2374 42.4622 28.1596C42.5039 28.0817 42.5298 27.9965 42.5385 27.9086C42.5472 27.8207 42.5386 27.732 42.513 27.6475C42.4874 27.563 42.4455 27.4844 42.3895 27.4161C42.3335 27.3478 42.2647 27.2912 42.1868 27.2495C42.0297 27.1654 41.8455 27.1471 41.6748 27.1987C41.5641 27.2325 41.4537 27.2672 41.3438 27.3027C41.1912 27.3516 41.0612 27.4534 40.977 27.5898C40.8929 27.7261 40.8603 27.888 40.885 28.0463C40.9097 28.2046 40.9902 28.3489 41.1119 28.4531C41.2335 28.5573 41.3885 28.6146 41.5487 28.6146Z" fill="white"/>
<path d="M44.4875 27.9184C44.5216 27.9184 44.8065 27.8784 44.9149 27.8633C45.0024 27.8509 45.0865 27.8215 45.1625 27.7766C45.2385 27.7317 45.305 27.6723 45.3581 27.6018C45.4111 27.5312 45.4498 27.4509 45.4718 27.3654C45.4938 27.2799 45.4988 27.1909 45.4864 27.1035C45.4741 27.0161 45.4446 26.932 45.3997 26.8559C45.3549 26.7799 45.2955 26.7135 45.2249 26.6604C45.1544 26.6073 45.074 26.5687 44.9885 26.5467C44.9031 26.5246 44.8141 26.5197 44.7267 26.532C44.6126 26.5491 44.4991 26.5658 44.3858 26.5832C44.2186 26.6089 44.0672 26.6969 43.962 26.8294C43.8568 26.9619 43.8055 27.1292 43.8183 27.2979C43.8312 27.4666 43.9073 27.6243 44.0313 27.7393C44.1554 27.8544 44.3183 27.9183 44.4875 27.9184Z" fill="white"/>
<path d="M38.7564 29.7521C38.961 29.7042 39.1596 29.6333 39.3484 29.5409C39.5086 29.4632 39.6314 29.3252 39.69 29.1571C39.7486 28.989 39.7381 28.8045 39.6608 28.6441C39.5835 28.4837 39.4458 28.3606 39.2778 28.3016C39.1098 28.2426 38.9253 28.2527 38.7647 28.3296C38.6606 28.3798 38.557 28.4312 38.4539 28.4838C38.3751 28.5233 38.3049 28.578 38.2472 28.6447C38.1896 28.7114 38.1456 28.7887 38.1179 28.8724C38.0902 28.9561 38.0793 29.0444 38.0858 29.1323C38.0923 29.2202 38.116 29.306 38.1557 29.3847C38.2131 29.4946 38.2994 29.5869 38.4052 29.6516C38.511 29.7163 38.6324 29.7511 38.7564 29.7521Z" fill="white"/>
<path d="M36.1724 31.3113C36.4175 31.2802 36.6468 31.1733 36.8282 31.0055C36.9008 30.9554 36.9628 30.8915 37.0106 30.8174C37.0585 30.7433 37.0913 30.6605 37.1072 30.5738C37.123 30.487 37.1217 30.398 37.1031 30.3117C37.0846 30.2255 37.0492 30.1438 36.9991 30.0712C36.949 29.9986 36.8851 29.9366 36.811 29.8888C36.7369 29.8409 36.6541 29.8081 36.5673 29.7922C36.4806 29.7763 36.3915 29.7777 36.3053 29.7963C36.2191 29.8148 36.1374 29.8501 36.0648 29.9003C35.9695 29.9656 35.875 30.0321 35.7812 30.0984C35.6362 30.2023 35.5383 30.3594 35.5091 30.5353C35.4799 30.7112 35.5217 30.8916 35.6253 31.0367C35.6888 31.122 35.7713 31.1912 35.8663 31.2389C35.9613 31.2865 36.0661 31.3113 36.1724 31.3113Z" fill="white"/>
<defs>
<linearGradient id="paint0_linear_3114_2928" x1="52.0979" y1="-6.0847" x2="41.3966" y2="103.068" gradientUnits="userSpaceOnUse">
<stop stop-color="white"/>
<stop offset="1" stop-color="#D7D6D6"/>
</linearGradient>
</defs>
</svg>
