<svg width="95" height="94" viewBox="0 0 95 94" fill="none" xmlns="http://www.w3.org/2000/svg">
<path d="M47.0985 93.8244C73.0075 93.8244 93.9691 72.8211 93.9177 46.9122C93.8663 21.0033 72.8213 0 46.9123 0C21.0034 0 0.0416817 21.0033 0.0930987 46.9122C0.144516 72.8211 21.1896 93.8244 47.0985 93.8244Z" fill="url(#paint0_linear_3118_3131)"/>
<path d="M5.875 46.7512C5.875 24.091 24.3078 5.6582 46.968 5.6582C69.6282 5.6582 88.061 24.091 88.061 46.7512C88.061 69.4114 69.6282 87.8442 46.968 87.8442C24.3078 87.8442 5.875 69.4114 5.875 46.7512Z" fill="#477FD3"/>
<path d="M67.5815 50.7197L64.5877 48.5396C64.7318 47.345 64.7478 46.1293 64.6352 44.9168L67.6862 42.8188C68.8116 42.0451 69.2585 40.934 68.8528 39.9196L67.5248 36.587C67.1141 35.5572 66.0517 35.0702 64.6832 35.2841L61.0242 35.86C60.2742 34.9051 59.427 34.0336 58.4997 33.2633L59.1717 29.6217C59.4215 28.2582 58.9631 27.1837 57.9459 26.7477L54.6512 25.3308C53.6482 24.8982 52.5257 25.3146 51.7218 26.4181L49.5415 29.412C48.3453 29.2678 47.1294 29.2518 45.9187 29.3644L43.8184 26.3133C43.0453 25.1889 41.9341 24.7418 40.9191 25.1468L37.5861 26.475C36.5583 26.8862 36.0723 27.9482 36.2861 29.316L36.8597 32.9753C35.9093 33.722 35.038 34.5694 34.2633 35.5L30.6216 34.8279C29.2784 34.5813 28.177 35.051 27.7474 36.0537L26.3299 39.3495C25.8991 40.3547 26.3172 41.4769 27.4201 42.2776L30.4116 44.4577C30.2672 45.6532 30.2512 46.869 30.3639 48.0809L27.3123 50.1816C26.1889 50.9564 25.7422 52.0672 26.1465 53.0805L27.4746 56.4135C27.8798 57.4265 28.9682 57.9244 30.3157 57.7136L33.9749 57.1399C34.7237 58.0929 35.5718 58.9637 36.5019 59.7347L35.8301 63.3767C35.5806 64.7161 36.0488 65.8178 37.0532 66.2523L40.3491 67.6697C41.3541 68.1007 42.4764 67.6826 43.2772 66.5796L45.4577 63.5876C46.6612 63.7312 47.8769 63.7473 49.0804 63.6356L51.1812 66.6873C51.7671 67.5371 52.5454 67.9997 53.3284 67.9997C53.5804 67.9997 53.8331 67.9517 54.08 67.8533L57.4125 66.5252C58.4292 66.1197 58.9274 65.0305 58.7131 63.6841L58.1394 60.0223C59.0933 59.273 59.9649 58.4257 60.7361 57.4976L64.3765 58.1695C65.7185 58.4192 66.8203 57.9502 67.2518 56.9463L68.6691 53.6486C69.0992 52.6476 68.6828 51.5255 67.5815 50.7197ZM67.7039 53.2336L66.2866 56.5314C65.9545 57.3041 64.9741 57.212 64.5679 57.1365L60.621 56.408C60.4305 56.3727 60.2365 56.4453 60.1155 56.5964C59.285 57.6344 58.3228 58.5701 57.2555 59.3772C57.101 59.4939 57.0234 59.6861 57.0534 59.8774L57.6755 63.8479C57.7404 64.2553 57.8067 65.2369 57.0236 65.5493L53.691 66.8773C52.9101 67.1885 52.2806 66.431 52.0464 66.0911L49.7694 62.7835C49.6707 62.6402 49.5084 62.5561 49.3368 62.5561C49.3175 62.5561 49.298 62.5571 49.2785 62.5593C47.9545 62.7069 46.6119 62.6892 45.2882 62.5065C45.0968 62.4799 44.9059 62.5612 44.792 62.7175L42.4278 65.9615C42.1854 66.2954 41.5378 67.0359 40.7635 66.7043L37.4693 65.2876C36.6955 64.9528 36.7875 63.9743 36.8632 63.5682L37.5915 59.6188C37.6266 59.4283 37.5539 59.2338 37.4026 59.1129C36.3621 58.2829 35.4259 57.3217 34.6198 56.2559C34.5031 56.1013 34.3099 56.0239 34.1195 56.0538L30.153 56.6757C29.7448 56.7396 28.7621 56.8039 28.4503 56.024L27.1222 52.6914C26.8109 51.9109 27.5684 51.281 27.9083 51.0467L31.2159 48.7698C31.3755 48.66 31.4616 48.4713 31.4401 48.2789C31.2913 46.9442 31.3089 45.6021 31.4928 44.2897C31.5198 44.0977 31.4387 43.9065 31.282 43.7923L28.0381 41.4281C27.7043 41.1857 26.9635 40.5382 27.2953 39.7639L28.7128 36.4681C29.0436 35.696 30.0252 35.7864 30.4314 35.861L34.3782 36.5894C34.5685 36.6246 34.7624 36.5522 34.8833 36.4015C35.7187 35.3597 36.681 34.4239 37.7437 33.6202C37.8981 33.5035 37.9758 33.3112 37.9458 33.1199L37.3241 29.1536C37.2603 28.7454 37.1961 27.7623 37.9757 27.4506L41.3083 26.1225C42.0906 25.8105 42.719 26.5682 42.953 26.9087L45.2299 30.2163C45.3396 30.3757 45.5279 30.4613 45.7207 30.4405C47.0541 30.2918 48.3964 30.3095 49.7101 30.4932C49.9016 30.5201 50.0933 30.4389 50.2074 30.2822L52.571 27.0366C52.8142 26.7027 53.463 25.9624 54.2357 26.2956L57.5316 27.713C58.3032 28.0438 58.2131 29.0256 58.1387 29.4317L57.4103 33.3785C57.3751 33.5689 57.4476 33.7632 57.5987 33.8842C58.6356 34.7132 59.5712 35.6755 60.3793 36.7441C60.4962 36.8986 60.6885 36.9761 60.88 36.9462L64.8461 36.3219C65.2543 36.2582 66.2371 36.1942 66.549 36.9761L67.8772 40.3091C68.1897 41.0904 67.4315 41.7191 67.0911 41.9532L63.7834 44.2277C63.6238 44.3374 63.5376 44.5261 63.559 44.7187C63.7077 46.0544 63.6901 47.3967 63.5064 48.708C63.4795 48.9 63.5606 49.0913 63.7173 49.2054L66.9621 51.5684C67.2955 51.8124 68.0352 52.4629 67.7039 53.2338V53.2336ZM56.5714 46.4987C56.5714 41.4972 52.5023 37.4282 47.5008 37.4282C42.4993 37.4282 38.4303 41.4972 38.4303 46.4987C38.4303 51.5002 42.4993 55.5693 47.5008 55.5693C52.5023 55.5693 56.5714 51.5002 56.5714 46.4987ZM47.5008 54.5188C43.0786 54.5188 39.4808 50.921 39.4808 46.4987C39.4808 42.0765 43.0786 38.4786 47.5008 38.4786C51.9231 38.4786 55.5208 42.0765 55.5208 46.4987C55.5208 50.921 51.9231 54.5188 47.5008 54.5188ZM48.0261 46.0636V43.0815C48.7654 43.2211 49.3637 43.6474 49.5338 44.1964C49.6196 44.4734 49.914 44.6285 50.191 44.5426C50.4681 44.4568 50.6231 44.1625 50.5373 43.8854C50.233 42.9036 49.2369 42.1812 48.0262 42.0172V40.8175C48.0262 40.5274 47.7911 40.2923 47.5009 40.2923C47.2107 40.2923 46.9756 40.5274 46.9756 40.8175V42.0182C45.4981 42.2201 44.3692 43.2577 44.3692 44.5042C44.3692 46.2501 45.7647 46.6934 46.9756 46.9345V49.9155C46.2514 49.7777 45.6574 49.3639 45.4758 48.8316C45.3823 48.557 45.0835 48.4106 44.8092 48.504C44.5345 48.5976 44.388 48.8961 44.4816 49.1707C44.8051 50.1193 45.793 50.8179 46.9756 50.9797V52.18C46.9756 52.4701 47.2107 52.7052 47.5009 52.7052C47.7911 52.7052 48.0262 52.4701 48.0262 52.18V50.9794C49.5037 50.7777 50.6326 49.7411 50.6326 48.4958C50.6326 46.7489 49.2375 46.3051 48.0262 46.0636L48.0261 46.0636ZM45.4197 44.5042C45.4197 43.8342 46.0919 43.2517 46.9756 43.0823V45.8599C45.9002 45.6234 45.4197 45.3377 45.4197 44.5042ZM48.0261 49.9152V47.1382C49.1015 47.3749 49.582 47.6611 49.582 48.4957C49.582 49.1645 48.9098 49.746 48.0261 49.9152ZM43.98 34.1351C43.9118 33.8532 44.0849 33.5693 44.3669 33.501C47.1691 32.8223 50.0586 33.0621 52.7237 34.1946C55.0448 35.1808 56.9975 36.7592 58.4258 38.7924L58.6232 38.0511C58.6978 37.7708 58.9856 37.604 59.266 37.6787C59.5463 37.7533 59.713 38.0411 59.6385 38.3215L59.1305 40.2293C59.0946 40.364 59.0066 40.4788 58.886 40.5486C58.8053 40.5954 58.7144 40.6194 58.6228 40.6194C58.5774 40.6194 58.5318 40.6135 58.4873 40.6015L56.5771 40.0912C56.2968 40.0163 56.1304 39.7284 56.2052 39.4481C56.28 39.1679 56.5679 39.0013 56.8482 39.0763L57.4498 39.237C54.5534 35.2765 49.4435 33.3522 44.6142 34.5221C44.3325 34.5905 44.0482 34.4173 43.98 34.1352L43.98 34.1351ZM35.4314 48.9743C35.49 49.2584 35.3071 49.5362 35.023 49.5948C34.9872 49.6021 34.9515 49.6057 34.9164 49.6057C34.6724 49.6057 34.4537 49.4348 34.4025 49.1864C33.3847 44.2499 35.2868 39.1335 39.1773 36.0339L38.5164 35.958C38.2282 35.9248 38.0215 35.6644 38.0546 35.3762C38.0876 35.088 38.3501 34.881 38.6363 34.9143L40.5948 35.1393C40.7694 35.1384 40.9406 35.224 41.0413 35.3823C41.1569 35.564 41.1466 35.7897 41.0335 35.9576L40.8375 37.6832C40.807 37.9512 40.5798 38.1492 40.3163 38.1492C40.2965 38.1492 40.2764 38.1481 40.2562 38.1458C39.968 38.113 39.7609 37.8528 39.7937 37.5646L39.8782 36.8207C36.2624 39.6726 34.4895 44.4065 35.4312 48.9744L35.4314 48.9743ZM50.1667 59.0759C50.2155 59.3618 50.0232 59.6332 49.7373 59.6821C48.9975 59.8084 48.2561 59.87 47.52 59.87C43.2808 59.87 39.2204 57.83 36.7018 54.3841L36.567 55.0644C36.5174 55.3145 36.2979 55.4876 36.0523 55.4876C36.0184 55.4876 35.9841 55.4843 35.9495 55.4775C35.665 55.4211 35.4801 55.1447 35.5365 54.8602L35.9206 52.9227C35.9216 52.9179 35.923 52.9135 35.9241 52.9088C35.9262 52.8998 35.9284 52.8907 35.9309 52.8818C35.9332 52.8735 35.9358 52.8654 35.9385 52.8573C35.9411 52.8494 35.9439 52.8415 35.947 52.8338C35.9503 52.8253 35.9538 52.8169 35.9575 52.8087C35.9607 52.8015 35.9642 52.7943 35.9677 52.7874C35.9718 52.7792 35.9761 52.7712 35.9807 52.7632C35.9847 52.7562 35.9889 52.7493 35.9932 52.7425C35.9979 52.7352 36.0027 52.7279 36.0077 52.7209C36.0127 52.7139 36.018 52.7069 36.0234 52.7001C36.0284 52.6937 36.0335 52.6875 36.0388 52.6814C36.0447 52.6745 36.0509 52.6678 36.0572 52.6612C36.0626 52.6556 36.0682 52.65 36.074 52.6445C36.0806 52.6383 36.0873 52.6323 36.0942 52.6264C36.1006 52.6209 36.107 52.6156 36.1137 52.6105C36.1204 52.6054 36.1271 52.6002 36.1341 52.5953C36.1417 52.59 36.1496 52.5849 36.1575 52.5799C36.1616 52.5774 36.1653 52.5745 36.1695 52.572C36.1722 52.5704 36.175 52.5692 36.1778 52.5676C36.1861 52.563 36.1945 52.5586 36.2031 52.5544C36.2104 52.5508 36.2176 52.5472 36.2249 52.5439C36.233 52.5404 36.2411 52.5373 36.2493 52.5342C36.2574 52.5312 36.2654 52.528 36.2735 52.5253C36.2812 52.5228 36.2891 52.5208 36.297 52.5186C36.3057 52.5162 36.3145 52.5137 36.3233 52.5118C36.3309 52.5101 36.3386 52.5089 36.3463 52.5076C36.3554 52.506 36.3646 52.5043 36.3739 52.5032C36.3814 52.5023 36.389 52.5019 36.3966 52.5013C36.4061 52.5006 36.4157 52.4998 36.4253 52.4996C36.4325 52.4994 36.4399 52.4998 36.4472 52.5C36.4573 52.5002 36.4673 52.5005 36.4774 52.5013C36.4842 52.5018 36.491 52.5028 36.4979 52.5036C36.5086 52.5049 36.5191 52.5063 36.5296 52.5082C36.5322 52.5087 36.5348 52.5088 36.5374 52.5093L38.4749 52.8908C38.7596 52.9469 38.9448 53.2231 38.8888 53.5077C38.8327 53.7923 38.5563 53.9781 38.2719 53.9215L37.5657 53.7825C40.291 57.4965 44.9619 59.4318 49.5605 58.6464C49.8461 58.5975 50.1179 58.7898 50.1667 59.0757L50.1667 59.0759ZM60.5965 43.8108C61.1782 46.6264 60.8434 49.5004 59.6283 52.1218C58.5911 54.3596 56.9966 56.2248 54.9806 57.5798L55.6884 57.7611C55.9694 57.833 56.1389 58.1192 56.0669 58.4002C56.0061 58.6375 55.7926 58.7952 55.5584 58.7952C55.5153 58.7952 55.4714 58.7899 55.4277 58.7787L53.5126 58.2881C53.5114 58.2878 53.5103 58.2873 53.5091 58.2871C53.5043 58.2857 53.4996 58.284 53.4948 58.2826C53.479 58.278 53.4636 58.2727 53.4485 58.2668C53.4425 58.2644 53.4367 58.2619 53.4308 58.2593C53.416 58.2528 53.4017 58.2456 53.3878 58.2379C53.3832 58.2354 53.3785 58.233 53.374 58.2303C53.3559 58.2196 53.3386 58.208 53.3222 58.1954C53.3191 58.193 53.3163 58.1903 53.3132 58.1879C53.2998 58.177 53.287 58.1657 53.2749 58.1537C53.2701 58.149 53.2654 58.1441 53.2607 58.1392C53.2487 58.1263 53.2372 58.113 53.2265 58.099C53.2242 58.096 53.2216 58.0933 53.2194 58.0902C53.2068 58.0731 53.1957 58.0551 53.1852 58.0366C53.1839 58.0343 53.1823 58.0323 53.181 58.03C53.1785 58.0254 53.1766 58.0206 53.1743 58.0159C53.1703 58.0081 53.1665 58.0003 53.163 57.9923C53.1593 57.9841 53.156 57.9759 53.1528 57.9676C53.1499 57.9601 53.1471 57.9525 53.1446 57.9449C53.1416 57.936 53.139 57.9271 53.1364 57.9181C53.1344 57.9107 53.1326 57.9033 53.1308 57.8958C53.1287 57.8866 53.1268 57.8773 53.1252 57.868C53.1239 57.8604 53.1229 57.8529 53.1218 57.8453C53.1207 57.836 53.1197 57.8266 53.119 57.8173C53.1185 57.8096 53.1182 57.8019 53.1179 57.7941C53.1176 57.7847 53.1176 57.7753 53.1179 57.7659C53.1181 57.7583 53.1185 57.7506 53.119 57.7429C53.1197 57.7332 53.1207 57.7236 53.1219 57.7139C53.1229 57.7065 53.1238 57.6993 53.1251 57.6918C53.1269 57.6817 53.1289 57.6717 53.1313 57.6617C53.1322 57.6574 53.1327 57.6531 53.1339 57.6489L53.6244 55.7337C53.6963 55.4527 53.9823 55.2829 54.2635 55.3552C54.5445 55.4272 54.714 55.7133 54.642 55.9943L54.4729 56.6544C58.4947 53.8869 60.5684 48.8684 59.5676 44.0232C59.5089 43.7391 59.6916 43.4612 59.9757 43.4025C60.2603 43.344 60.5378 43.5266 60.5964 43.8106L60.5965 43.8108Z" fill="white"/>
<defs>
<linearGradient id="paint0_linear_3118_3131" x1="52.0979" y1="-6.0847" x2="41.3966" y2="103.068" gradientUnits="userSpaceOnUse">
<stop stop-color="white"/>
<stop offset="1" stop-color="#D7D6D6"/>
</linearGradient>
</defs>
</svg>
