<svg width="94" height="94" viewBox="0 0 94 94" fill="none" xmlns="http://www.w3.org/2000/svg">
<path d="M47.0926 93.8244C73.0016 93.8244 93.9633 72.8211 93.9119 46.9122C93.8604 21.0033 72.8154 0 46.9064 0C20.9975 0 0.0358223 21.0033 0.0872393 46.9122C0.138656 72.8211 21.1837 93.8244 47.0926 93.8244Z" fill="url(#paint0_linear_3218_8932)"/>
<path d="M5.86914 46.7492C5.86914 24.089 24.3019 5.65625 46.9621 5.65625C69.6224 5.65625 88.0551 24.089 88.0551 46.7492C88.0551 69.4095 69.6224 87.8422 46.9621 87.8422C24.3019 87.8422 5.86914 69.4095 5.86914 46.7492Z" fill="#47ACD3"/>
<path d="M43.6108 65.6907C43.5541 65.6907 43.4975 65.6822 43.4381 65.6681C43.0758 65.5747 42.8579 65.2039 42.9513 64.8388L44.0721 60.5397C44.1655 60.1774 44.5391 59.9595 44.9013 60.0529C45.2636 60.1463 45.4815 60.517 45.3881 60.8821L44.2674 65.1813C44.1881 65.4869 43.9136 65.6907 43.6108 65.6907Z" fill="white"/>
<path d="M49.9613 65.6909C49.6585 65.6909 49.3839 65.4871 49.3047 65.1815L48.1839 60.8823C48.0905 60.52 48.3056 60.1493 48.6707 60.053C49.033 59.9596 49.4037 60.1747 49.5 60.5398L50.6207 64.839C50.7141 65.2013 50.499 65.572 50.1339 65.6683C50.0745 65.6824 50.0179 65.6909 49.9613 65.6909Z" fill="white"/>
<path d="M55.5809 69.0377H37.9937C37.6173 69.0377 37.3145 68.7348 37.3145 68.3584C37.3145 66.1367 39.123 64.3281 41.3447 64.3281H52.227C54.4488 64.3281 56.2573 66.1367 56.2573 68.3584C56.2602 68.7348 55.9545 69.0377 55.5809 69.0377ZM38.7607 67.6791H54.8139C54.5139 66.5329 53.4667 65.6866 52.227 65.6866H41.3476C40.1079 65.6866 39.0635 66.5329 38.7607 67.6791Z" fill="white"/>
<path d="M66.489 61.3897H27.0863C26.0957 61.3897 25.2891 60.5831 25.2891 59.5897V33.141C25.2891 32.1504 26.0957 31.3438 27.0863 31.3438H34.2411C34.6176 31.3438 34.9204 31.6466 34.9204 32.023C34.9204 32.3994 34.6176 32.7023 34.2411 32.7023H27.0863C26.8429 32.7023 26.6476 32.9004 26.6476 33.141V59.5897C26.6476 59.8331 26.8457 60.0312 27.0863 60.0312H66.489C66.7324 60.0312 66.9305 59.8331 66.9305 59.5897V33.141C66.9305 32.8976 66.7324 32.7023 66.489 32.7023H59.3342C58.9577 32.7023 58.6549 32.3994 58.6549 32.023C58.6549 31.6466 58.9577 31.3438 59.3342 31.3438H66.489C67.4796 31.3438 68.2891 32.1504 68.2891 33.141V59.5897C68.2891 60.5831 67.4796 61.3897 66.489 61.3897Z" fill="white"/>
<path d="M38.2655 48.6644H35.2711C34.8946 48.6644 34.5918 48.3615 34.5918 47.9851V44.9879C34.5918 44.6114 34.8946 44.3086 35.2711 44.3086C37.2975 44.3086 38.9447 45.9558 38.9447 47.9823C38.9447 48.3587 38.6419 48.6644 38.2655 48.6644ZM35.9503 47.3058H37.4843C37.2607 46.5728 36.6805 45.9954 35.9503 45.7718V47.3058Z" fill="white"/>
<path d="M33.1795 53.7497C31.1531 53.7497 29.5059 52.1025 29.5059 50.076C29.5059 48.0496 31.1531 46.4023 33.1795 46.4023C33.5559 46.4023 33.8588 46.7052 33.8588 47.0816V49.3968H36.1739C36.5504 49.3968 36.8532 49.6996 36.8532 50.076C36.8532 52.1025 35.206 53.7497 33.1795 53.7497ZM32.5003 47.8628C31.555 48.1543 30.8644 49.0373 30.8644 50.076C30.8644 51.3525 31.9031 52.3912 33.1795 52.3912C34.2211 52.3912 35.1041 51.7006 35.3928 50.7553H33.1795C32.8031 50.7553 32.5003 50.4524 32.5003 50.076V47.8628Z" fill="white"/>
<path d="M45.0781 53.7478H42.0328C41.6564 53.7478 41.3535 53.445 41.3535 53.0685V46.5816C41.3535 46.2052 41.6564 45.9023 42.0328 45.9023H45.0781C45.4545 45.9023 45.7574 46.2052 45.7574 46.5816V53.0685C45.7574 53.445 45.4545 53.7478 45.0781 53.7478ZM42.712 52.3893H44.3989V47.2609H42.712V52.3893Z" fill="white"/>
<path d="M51.1836 53.7495H48.1382C47.7618 53.7495 47.459 53.4466 47.459 53.0702V49.105C47.459 48.7286 47.7618 48.4258 48.1382 48.4258H51.1836C51.56 48.4258 51.8629 48.7286 51.8629 49.105V53.0702C51.8629 53.4466 51.5572 53.7495 51.1836 53.7495ZM48.8175 52.391H50.5043V49.7843H48.8175V52.391Z" fill="white"/>
<path d="M57.2871 53.7478H54.2418C53.8653 53.7478 53.5625 53.445 53.5625 53.0685V46.5816C53.5625 46.2052 53.8653 45.9023 54.2418 45.9023H57.2871C57.6635 45.9023 57.9664 46.2052 57.9664 46.5816V53.0685C57.9664 53.445 57.6607 53.7478 57.2871 53.7478ZM54.921 52.3893H56.6078V47.2609H54.921V52.3893Z" fill="white"/>
<path d="M63.3906 53.7495H60.3453C59.9689 53.7495 59.666 53.4466 59.666 53.0702V49.105C59.666 48.7286 59.9689 48.4258 60.3453 48.4258H63.3906C63.767 48.4258 64.0699 48.7286 64.0699 49.105V53.0702C64.0699 53.4466 63.767 53.7495 63.3906 53.7495ZM61.0274 52.391H62.7142V49.7843H61.0274V52.391Z" fill="white"/>
<path d="M43.0835 32.8137C42.8486 32.8137 42.6194 32.692 42.4948 32.474L41.6259 30.9683C41.4392 30.6429 41.5495 30.2268 41.875 30.04C42.2005 29.8532 42.6165 29.9636 42.8033 30.2891L43.6722 31.7948C43.859 32.1202 43.7486 32.5363 43.4232 32.7231C43.3156 32.7825 43.1996 32.8137 43.0835 32.8137Z" fill="white"/>
<path d="M40.4625 35.5792C40.3465 35.5792 40.2304 35.5509 40.1229 35.4886L38.6172 34.6197C38.2917 34.4329 38.1813 34.0169 38.3681 33.6914C38.5549 33.3659 38.971 33.2556 39.2965 33.4424L40.8022 34.3112C41.1276 34.498 41.238 34.9141 41.0512 35.2396C40.9267 35.4575 40.6974 35.5792 40.4625 35.5792Z" fill="white"/>
<path d="M46.7891 40.2461C45.8551 40.2461 45.0938 39.4848 45.0938 38.5508C45.0938 37.6168 45.8551 36.8555 46.7891 36.8555C47.7231 36.8555 48.4844 37.6168 48.4844 38.5508C48.4844 39.4848 47.7231 40.2461 46.7891 40.2461ZM46.7891 38.214C46.6023 38.214 46.4523 38.364 46.4523 38.5508C46.4523 38.7376 46.6023 38.8876 46.7891 38.8876C46.9759 38.8876 47.1259 38.7376 47.1259 38.5508C47.1259 38.364 46.9759 38.214 46.7891 38.214Z" fill="white"/>
<path d="M47.5133 38.5187C47.3378 38.5187 47.1623 38.4508 47.0293 38.3149C46.7661 38.0489 46.7689 37.6187 47.0378 37.3554L49.4407 34.9922C49.7067 34.729 50.1369 34.7318 50.4001 35.0007C50.6633 35.2667 50.6605 35.6969 50.3916 35.9601L47.9888 38.3234C47.8557 38.4536 47.6859 38.5187 47.5133 38.5187Z" fill="white"/>
<path d="M46.7886 31.7771C46.4122 31.7771 46.1094 31.4742 46.1094 31.0978V29.3629C46.1094 28.9864 46.4122 28.6836 46.7886 28.6836C47.1651 28.6836 47.4679 28.9864 47.4679 29.3629V31.0978C47.4679 31.4742 47.1622 31.7771 46.7886 31.7771Z" fill="white"/>
<path d="M53.1131 35.5792C52.8782 35.5792 52.6489 35.4575 52.5244 35.2396C52.3376 34.9141 52.448 34.498 52.7734 34.3112L54.2791 33.4424C54.6046 33.2556 55.0207 33.3659 55.2075 33.6914C55.3943 34.0169 55.2839 34.4329 54.9584 34.6197L53.4527 35.4886C53.3452 35.5509 53.2291 35.5792 53.1131 35.5792Z" fill="white"/>
<path d="M50.4939 32.8137C50.3779 32.8137 50.2619 32.7854 50.1543 32.7231C49.8288 32.5363 49.7184 32.1202 49.9052 31.7948L50.7741 30.2891C50.9609 29.9636 51.377 29.8532 51.7025 30.04C52.0279 30.2268 52.1383 30.6429 51.9515 30.9683L51.0826 32.474C50.9581 32.692 50.7288 32.8137 50.4939 32.8137Z" fill="white"/>
<path d="M56.247 39.7895H53.3942C53.0177 39.7895 52.7149 39.4867 52.7149 39.1103V38.2612C52.7149 34.9951 50.0573 32.3375 46.7912 32.3375C43.5251 32.3375 40.8675 34.9951 40.8675 38.264V39.1131C40.8675 39.4895 40.5646 39.7924 40.1882 39.7924H37.3297C36.9532 39.7924 36.6504 39.4895 36.6504 39.1131V38.264C36.6504 36.897 36.9193 35.5696 37.4485 34.3187C37.958 33.1101 38.6882 32.029 39.6193 31.0978C40.5505 30.1667 41.6345 29.4365 42.8402 28.927C44.0911 28.3978 45.4185 28.1289 46.7855 28.1289C48.1525 28.1289 49.4799 28.3978 50.7309 28.927C51.9394 29.4365 53.0206 30.1695 53.9517 31.0978C54.8829 32.0262 55.6131 33.113 56.1225 34.3187C56.6518 35.5696 56.9206 36.897 56.9206 38.264V39.1131C56.9263 39.4867 56.6206 39.7895 56.247 39.7895ZM54.0706 38.431H55.565V38.2612C55.565 37.0753 55.3329 35.9262 54.8744 34.8451C54.4329 33.8007 53.7989 32.8611 52.9923 32.0545C52.1856 31.2478 51.2488 30.6167 50.2016 30.1723C49.1176 29.7138 47.9686 29.4818 46.7855 29.4818C45.5996 29.4818 44.4506 29.7138 43.3694 30.1723C42.325 30.6139 41.3854 31.2478 40.5788 32.0545C39.7722 32.8611 39.141 33.7979 38.6967 34.8451C38.2382 35.9291 38.0061 37.0782 38.0061 38.2612V38.431H39.5005V38.2612C39.5005 34.2451 42.7666 30.9761 46.7827 30.9761C50.7988 30.9761 54.0649 34.2422 54.0649 38.2584L54.0706 38.431Z" fill="white"/>
<path d="M57.6366 42.8026H35.9399C34.6295 42.8026 33.5625 41.7356 33.5625 40.4252V27.9438C33.5625 26.6334 34.6295 25.5664 35.9399 25.5664H57.6366C58.947 25.5664 60.014 26.6334 60.014 27.9438V40.4252C60.014 41.7356 58.947 42.8026 57.6366 42.8026ZM35.9399 26.9249C35.3767 26.9249 34.921 27.3806 34.921 27.9438V40.4252C34.921 40.9884 35.3767 41.4441 35.9399 41.4441H57.6338C58.1942 41.4441 58.6527 40.9856 58.6527 40.4252V27.9438C58.6527 27.3806 58.197 26.9249 57.6338 26.9249H35.9399Z" fill="white"/>
<path d="M67.607 56.8585H25.9683C25.5919 56.8585 25.2891 56.5557 25.2891 56.1793C25.2891 55.8028 25.5919 55.5 25.9683 55.5H67.6098C67.9862 55.5 68.2891 55.8028 68.2891 56.1793C68.2891 56.5557 67.9834 56.8585 67.607 56.8585Z" fill="white"/>
<defs>
<linearGradient id="paint0_linear_3218_8932" x1="52.092" y1="-6.0847" x2="41.3907" y2="103.068" gradientUnits="userSpaceOnUse">
<stop stop-color="white"/>
<stop offset="1" stop-color="#D7D6D6"/>
</linearGradient>
</defs>
</svg>
