<svg width="95" height="94" viewBox="0 0 95 94" fill="none" xmlns="http://www.w3.org/2000/svg">
<path d="M47.5926 93.8244C73.5016 93.8244 94.4633 72.8211 94.4119 46.9122C94.3604 21.0033 73.3154 0 47.4064 0C21.4975 0 0.535822 21.0033 0.587239 46.9122C0.638656 72.8211 21.6837 93.8244 47.5926 93.8244Z" fill="url(#paint0_linear_3216_8445)"/>
<path d="M6.36914 46.7512C6.36914 24.091 24.8019 5.6582 47.4621 5.6582C70.1224 5.6582 88.5551 24.091 88.5551 46.7512C88.5551 69.4114 70.1224 87.8442 47.4621 87.8442C24.8019 87.8442 6.36914 69.4114 6.36914 46.7512Z" fill="#47ACD3"/>
<path d="M33.3516 60.0919C33.7543 60.4947 33.9557 61.166 33.8886 61.7701H33.6872C32.9488 61.7701 32.3446 62.3743 32.3446 63.1127V66.2677C32.3446 67.0062 32.9488 67.6103 33.6872 67.6103H44.7635C45.5019 67.6103 46.106 67.0062 46.106 66.2677V63.1127C46.106 62.3743 45.5019 61.7701 44.7635 61.7701H44.3607C43.6894 58.0109 44.2264 55.7285 42.1454 53.379L36.6409 47.2703C35.9025 46.4648 34.7613 46.1962 33.8886 46.6661C32.546 47.3374 32.1433 49.0157 33.0831 50.224L34.5599 51.9693C34.8284 52.2378 34.8284 52.7749 34.4928 52.9762C34.2242 53.1776 33.8215 53.1776 33.553 52.9091L31.3377 50.2911C31.0021 49.8883 30.8678 49.4184 30.8678 48.8814L31.2706 42.9741C31.3377 41.9671 30.7336 41.0273 29.8609 40.6917C28.4512 40.1547 26.9072 41.1616 26.773 42.5713L25.9674 51.0295C25.9003 51.9693 26.2359 52.9091 26.9072 53.5804L33.3516 60.0919ZM44.7635 63.0456V66.2006H33.6201V63.0456H44.4949H44.7635ZM28.1155 42.7727C28.1827 42.2356 28.854 41.8329 29.391 42.0343C29.7266 42.1685 29.9951 42.5042 29.928 42.9069L29.5252 48.8143C29.4581 49.6869 29.7266 50.5596 30.3308 51.1638L32.546 53.7147C33.2173 54.4531 34.4256 54.5873 35.2983 53.9832C36.2381 53.3119 36.3052 51.9693 35.5668 51.0295L34.09 49.2842C33.6872 48.8143 33.8215 48.0759 34.4256 47.8073C34.8284 47.6059 35.2983 47.7402 35.634 48.143L41.1385 54.2517C42.8167 56.1313 42.3468 57.9438 43.0181 61.7701H35.1641C35.2312 60.8303 34.8955 59.8905 34.2243 59.1521L27.7799 52.6406C27.4442 52.2378 27.2429 51.7008 27.31 51.1638L28.1155 42.7727Z" fill="white"/>
<path d="M64.0292 48.9475C64.0964 49.4174 63.895 49.9545 63.5593 50.3573L61.3441 52.9081C61.1427 53.1767 60.7399 53.1767 60.4043 52.9753C60.0686 52.7739 60.0686 52.2369 60.3372 51.9683L61.814 50.1559C62.7538 49.0147 62.351 47.2693 61.0084 46.598C60.1358 46.1953 58.9275 46.4638 58.2562 47.2022C53.6914 52.6396 51.5433 53.6466 51.1405 56.8687L50.5364 61.702H50.1336C49.3952 61.702 48.791 62.3062 48.791 63.0446V66.1996C48.791 66.9381 49.3952 67.5422 50.1336 67.5422H61.277C62.0154 67.5422 62.6195 66.9381 62.6195 66.1996V63.0446C62.6195 62.3062 62.0154 61.702 61.277 61.702H61.0756C60.8071 60.0238 62.2168 59.8224 68.057 53.5794C68.7283 52.9081 69.0639 51.9683 68.9296 51.0285L68.1241 42.6374C67.9898 41.2949 66.4459 40.2879 65.0362 40.7578C64.1635 41.0935 63.5593 42.0333 63.6265 43.0402L64.0292 48.9475ZM50.1336 66.2668V63.1117H50.335H61.2098V66.2668H50.1336ZM64.5663 51.1628C65.1033 50.4915 65.4389 49.686 65.3718 48.8133L64.969 42.906C64.969 42.5032 65.1704 42.1004 65.5061 42.0333C66.0431 41.8319 66.7815 42.2347 66.7815 42.7717L67.5871 51.1628C67.6542 51.6998 67.4528 52.2369 67.05 52.6396C61.7469 58.4798 59.4645 59.1511 59.6659 61.7691H51.8789L52.4831 57.1373C52.8187 54.4521 54.4298 53.9151 59.2631 48.142C59.5987 47.8064 60.0686 47.6721 60.4714 47.8064C61.0756 48.0749 61.2098 48.8133 60.8071 49.2832L59.3302 51.0957C58.5918 51.9683 58.7261 53.3109 59.5987 54.0493C60.4043 54.6535 61.6797 54.5192 62.351 53.7808L64.5663 51.1628Z" fill="white"/>
<path d="M38.7867 42.0331C39.0552 42.3016 39.458 42.3016 39.7265 42.0331L41.8075 39.9521C42.6802 40.422 43.8214 40.2877 44.5598 39.5493C45.2982 38.8109 45.4325 37.6697 44.9626 36.797L47.0436 34.716C47.3121 34.4475 47.3121 34.0447 47.0436 33.7762L44.5598 31.2925C44.2913 31.024 43.8885 31.024 43.62 31.2925C43.2172 31.6952 42.6131 31.6952 42.2103 31.2925C41.8075 30.8897 41.8075 30.2855 42.2103 29.8828C42.4788 29.6142 42.4788 29.2115 42.2103 28.943L39.7265 26.4592C39.458 26.1907 39.0552 26.1907 38.7867 26.4592L31.4026 33.8434C31.134 34.1119 31.134 34.5146 31.4026 34.7832L38.7867 42.0331ZM36.1016 30.9568L37.2428 32.2323C37.5113 32.5008 37.914 32.5008 38.1826 32.2323C38.4511 31.9638 38.4511 31.561 38.1826 31.2925L36.9742 30.017L39.1895 27.8018L40.8677 29.4129C40.3978 30.2855 40.5321 31.4267 41.2705 32.1651C42.0089 32.9036 43.1501 33.0378 44.0228 32.5679L45.6339 34.179L43.62 36.1929C43.3515 36.4614 43.3515 36.8642 43.62 37.1327C44.0228 37.5354 44.0228 38.1396 43.62 38.5424C43.2172 38.878 42.6131 38.9451 42.2103 38.5424C41.9418 38.2739 41.539 38.2739 41.2705 38.5424L39.2566 40.5562L32.8123 34.1119L36.1016 30.9568Z" fill="white"/>
<path d="M50.3355 41.2286C50.6041 41.4971 51.0068 41.4971 51.2753 41.2286C51.6781 40.8258 52.2823 40.8258 52.685 41.2286C53.0878 41.6314 53.0878 42.2355 52.685 42.6383C52.4165 42.9068 52.4165 43.3096 52.685 43.5781L55.1688 46.0619C55.4373 46.3304 55.8401 46.3304 56.1086 46.0619L63.4928 38.6777C63.7613 38.4092 63.7613 38.0064 63.4928 37.7379L56.1086 30.3537C55.8401 30.0852 55.4373 30.0852 55.1688 30.3537L53.0878 32.4347C52.2151 31.9648 51.074 32.0991 50.3355 32.8375C49.5971 33.5759 49.4629 34.7171 49.9328 35.5898L47.8518 37.6708C47.5833 37.9393 47.5833 38.3421 47.8518 38.6106L50.3355 41.2286ZM51.2753 36.1939C51.5439 35.9254 51.5439 35.5226 51.2753 35.2541C50.8726 34.8514 50.8726 34.2472 51.2753 33.8444C51.6781 33.4417 52.2823 33.4417 52.685 33.8444C52.9536 34.1129 53.3563 34.1129 53.6249 33.8444L55.6387 31.8306L57.5183 33.7102L56.3771 34.9856C56.1086 35.2541 56.1086 35.6569 56.3771 35.9254C56.6456 36.1939 57.0484 36.1939 57.3169 35.9254L58.4581 34.7171L62.0159 38.2749L55.5716 44.7193L53.9605 43.1082C54.4304 42.2355 54.2961 41.0943 53.5577 40.3559C52.8193 39.6175 51.6781 39.4832 50.8054 39.9531L49.1944 38.3421L51.2753 36.1939Z" fill="white"/>
<path d="M46.9787 44.7854L45.1662 46.5978C44.8977 46.8664 44.8977 47.2691 45.1662 47.5376C45.4347 47.8062 45.8375 47.8062 46.106 47.5376L46.7773 46.8664V54.8547C46.7773 55.2575 47.0458 55.526 47.4486 55.526C47.8514 55.526 48.1199 55.2575 48.1199 54.8547V46.8664L48.7912 47.5376C49.0597 47.8062 49.4625 47.8062 49.731 47.5376C49.9995 47.2691 49.9995 46.8664 49.731 46.5978L47.9185 44.7854C47.65 44.5169 47.2472 44.5169 46.9787 44.7854Z" fill="white"/>
<defs>
<linearGradient id="paint0_linear_3216_8445" x1="52.592" y1="-6.0847" x2="41.8907" y2="103.068" gradientUnits="userSpaceOnUse">
<stop stop-color="white"/>
<stop offset="1" stop-color="#D7D6D6"/>
</linearGradient>
</defs>
</svg>
