<?xml version="1.0" encoding="utf-8"?>
<!-- Generator: Adobe Illustrator 27.5.0, SVG Export Plug-In . SVG Version: 6.00 Build 0)  -->
<svg version="1.1" id="Ñëîé_1" xmlns="http://www.w3.org/2000/svg" xmlns:xlink="http://www.w3.org/1999/xlink" x="0px" y="0px"
	 viewBox="0 0 4000 2000" style="enable-background:new 0 0 4000 2000;" xml:space="preserve">
<rect id="_x39_" x="0.002" y="0" style="fill:#A9C8ED;" width="3999.998" height="1999.999"/>
<g>
	<path id="_x38_" style="fill:#C5D7F9;" d="M332.313,1680.167c-6.726-15.048-13.244-30.374-19.373-45.552l18.973-2.632
		c6.093,15.087,12.571,30.32,19.257,45.279L332.313,1680.167z M3740.814,1681.879l-19.418-1.227
		c2.577-15.529,4.972-31.151,7.118-46.431l19.446,1.052C3745.807,1650.613,3743.402,1666.293,3740.814,1681.879z M295.426,1588.809
		c-5.53-15.322-10.786-30.812-15.621-46.042l19.175-2.071c4.805,15.134,10.028,30.53,15.524,45.757L295.426,1588.809z
		 M3753.885,1588.597l-19.471-0.869c1.76-15.523,3.318-31.184,4.628-46.544l19.489,0.676
		C3757.216,1557.285,3755.653,1573.009,3753.885,1588.597z M266.141,1496.51c-4.232-15.5-8.142-31.128-11.619-46.45l19.338-1.468
		c3.455,15.219,7.338,30.743,11.542,46.141L266.141,1496.51z M3761.836,1495.071l-19.505-0.473
		c0.87-15.599,1.503-31.282,1.884-46.615l19.513,0.258C3763.346,1463.646,3762.711,1479.402,3761.836,1495.071z M245.052,1403.438
		c-2.801-15.646-5.224-31.379-7.202-46.762l19.457-0.8c1.965,15.269,4.369,30.886,7.15,46.418L245.052,1403.438z M3744.62,1401.356
		c-0.121-15.617-0.511-31.302-1.159-46.621l19.51-0.204c0.649,15.398,1.042,31.163,1.165,46.859L3744.62,1401.356z
		 M233.058,1309.808c-1.185-15.727-1.934-31.512-2.226-46.921l19.514-0.044c0.288,15.279,1.031,30.935,2.206,46.532
		L233.058,1309.808z M3740.648,1308.143c-1.231-15.604-2.771-31.263-4.572-46.542l19.465-0.726c1.814,15.368,3.36,31.118,4.6,46.811
		L3740.648,1308.143z M250.854,1216.312l-19.509-0.374c0.653-15.755,1.81-31.534,3.441-46.894l19.477,0.818
		C252.647,1185.076,251.5,1200.703,250.854,1216.312z M3729.629,1215.139c-2.498-15.61-5.343-31.204-8.451-46.348l19.37-1.322
		c3.13,15.246,5.992,30.944,8.508,46.656L3729.629,1215.139z M260.773,1123.557l-19.409-1.295c2.76-15.682,6.1-31.351,9.93-46.574
		l19.3,1.803C266.806,1092.546,263.502,1108.045,260.773,1123.557z M3710.572,1122.604c-3.952-15.522-8.302-30.988-12.928-45.969
		l19.191-2.015c4.666,15.1,9.05,30.688,13.032,46.33L3710.572,1122.604z M1402.655,1104.937
		c-27.098-2.732-46.661-10.212-73.742-23.082l12.397-8.911c23.724,11.246,40.869,18.012,63.503,20.463L1402.655,1104.937z
		 M1470.551,1077.785l-17.342-5.401c9.005-10.345,17.002-24.733,23.771-42.762l19.047,2.611
		C1488.795,1051.501,1480.461,1066.401,1470.551,1077.785z M1271.872,1048.159c-15.474-10.407-32.005-22.376-50.537-36.591
		l15.385-7.073c18.27,14.013,34.536,25.791,49.726,36.008L1271.872,1048.159z M283.946,1031.776l-19.142-2.345
		c5.163-15.461,10.99-30.873,17.32-45.808l18.925,2.919C294.798,1001.288,289.044,1016.506,283.946,1031.776z M3682.188,1030.951
		c-5.672-15.374-11.801-30.619-18.215-45.312l18.888-2.839c6.476,14.835,12.66,30.226,18.384,45.744L3682.188,1030.951z
		 M1509.481,985.599l-19.344-1.616c3.093-13.837,5.885-28.994,8.533-46.337l19.435,1.138
		C1515.432,956.288,1512.611,971.601,1509.481,985.599z M1173.8,973.831c-15.774-12.855-32.133-26.442-46.229-38.167l15.844-6.708
		c14.069,11.703,30.394,25.261,46.117,38.075L1173.8,973.831z M2602.501,982.798c-15.197-0.106-30.09-2.91-44.262-8.336
		l10.473-9.751c21.29,8.165,42.289,8.329,65.007,2.092l8.323,10.538C2628.609,981.052,2615.307,982.887,2602.501,982.798z
		 M322.117,941.945l-18.638-3.525c7.859-15.031,16.469-29.975,25.594-44.417l18.272,4.157
		C338.352,912.394,329.865,927.125,322.117,941.945z M2706.066,947.432l-14.283-7.975c14.862-9.431,30.805-21.081,48.74-35.617
		l15.762,6.918C2737.887,925.667,2721.462,937.664,2706.066,947.432z M2503.002,938.039c-12.548-11.679-24.968-25.416-37.97-41.995
		l17.673-4.844c12.632,16.107,24.641,29.399,36.717,40.638L2503.002,938.039z M3642.723,940.813
		c-7.756-15.097-16.042-29.964-24.626-44.187l18.361-3.851c8.69,14.398,17.076,29.444,24.924,44.721L3642.723,940.813z
		 M1081.587,897.492c-17.753-14.641-32.549-26.662-46.566-37.831l15.606-6.901c14.081,11.221,28.938,23.292,46.756,37.986
		L1081.587,897.492z M1524.302,891.937l-19.469-0.885c1.573-13.592,3.185-28.87,4.925-46.707l19.482,0.76
		C1527.495,862.984,1525.88,878.303,1524.302,891.937z M376.895,855.387l-17.821-4.812c10.813-14.36,22.327-28.455,34.554-42.232
		l17.267,5.487C398.864,827.385,387.536,841.255,376.895,855.387z M2801.26,872.221l-16.262-6.492
		c13.955-12.447,28.372-25.637,42.964-38.962l16.373,6.39C2829.708,846.516,2815.276,859.718,2801.26,872.221z M2433.92,852.499
		c-8.748-13.252-17.781-27.707-27.618-44.19l18.383-3.811c9.765,16.36,18.724,30.697,27.392,43.828L2433.92,852.499z
		 M3589.689,853.285c-10.39-14.612-21.391-28.813-32.694-42.208l17.428-5.147c11.494,13.62,22.674,28.054,33.23,42.899
		L3589.689,853.285z M987.095,822.538c-17.616-13.2-34.017-24.953-50.141-35.931l14.652-7.603
		c16.329,11.118,32.925,23.01,50.736,36.355L987.095,822.538z M1533.626,798.3l-19.486-0.72c1.422-15.502,2.836-31.011,4.339-46.793
		l19.484,0.744C1536.46,767.305,1535.046,782.806,1533.626,798.3z M2887.391,794.242l-16.236-6.515
		c16.406-14.564,31.077-27.16,44.852-38.505l15.847,6.845C2918.215,767.303,2903.67,779.79,2887.391,794.242z M449.874,774.036
		l-16.404-6.362c15.434-14.182,31.335-26.977,47.261-38.029l14.856,7.595C480.22,747.904,464.84,760.284,449.874,774.036z
		 M2380.554,763.824c-8.841-15.665-17.513-31.337-24.829-44.602l18.537-3.545c7.307,13.246,15.965,28.894,24.788,44.525
		L2380.554,763.824z M883.532,752.615c-19.865-11.692-39.406-22.034-58.079-30.74l11.964-9.118
		c19.268,8.983,39.383,19.626,59.785,31.634L883.532,752.615z M3519.387,770.425c-13.888-13.672-28.461-26.613-43.311-38.463
		l15.611-6.896c15.231,12.154,30.164,25.413,44.379,39.408L3519.387,770.425z M550.54,706.034l-11.772-9.313
		c23.378-10.415,47.685-17.873,72.246-22.169l5.633,11.142C594.308,689.601,572.066,696.444,550.54,706.034z M2979.18,719.35
		l-15.109-7.415c18.393-13.307,35.815-24.747,53.26-34.973l13.747,8.301C3014.12,695.205,2997.143,706.355,2979.18,719.35z
		 M1542.659,704.808l-19.474-0.826c1.807-16.864,3.591-32.178,5.454-46.816l19.459,0.964
		C1546.241,672.722,1544.462,687.991,1542.659,704.808z M761.106,696.949c-24.301-7.378-48.22-12.146-71.094-14.171l2.729-11.484
		c24.98,2.211,50.93,7.366,77.131,15.322L761.106,696.949z M3426.118,696.69c-18.707-11.582-38.09-21.825-57.606-30.444
		l11.555-9.305c20.395,9.007,40.607,19.685,60.073,31.737L3426.118,696.69z M2331.141,674.623
		c-9.588-17.341-17.49-31.482-24.869-44.501l18.485-3.636c7.397,13.047,15.314,27.214,24.916,44.583L2331.141,674.623z
		 M3089.688,656.033l-11.119-9.591c24.069-9.823,48.361-17.052,72.202-21.487l5.95,11.084
		C3134.724,640.131,3112.17,646.859,3089.688,656.033z M3302.713,643.289c-24.127-6.233-48.565-10.156-72.636-11.662l1.894-11.547
		c26.059,1.63,52.436,5.857,78.399,12.564L3302.713,643.289z M1554.664,611.562l-19.431-1.162c2.545-16.273,5.3-31.986,8.188-46.704
		l19.384,1.433C1559.934,579.756,1557.195,595.379,1554.664,611.562z M2280.615,585.784c-9.321-15.724-18.107-30.1-26.863-43.948
		l18.259-4.016c8.804,13.924,17.635,28.374,27.001,44.175L2280.615,585.784z M1573.062,518.903l-19.302-1.794
		c4.06-16.228,8.507-31.83,13.218-46.373l19.163,2.279C1581.482,487.398,1577.081,502.836,1573.062,518.903z M2225.063,498.286
		c-10.381-15.078-20.85-29.509-31.12-42.89l17.742-4.756c10.376,13.52,20.95,28.094,31.43,43.315L2225.063,498.286z
		 M1603.027,427.698l-18.914-2.945c6.919-16.165,14.529-31.383,22.617-45.234l18.438,3.884
		C1617.261,396.946,1609.811,411.848,1603.027,427.698z M2159.576,413.488c-12.735-14.47-25.752-28.062-38.69-40.398l16.533-6.093
		c13.199,12.585,26.464,26.435,39.431,41.166L2159.576,413.488z M1654.772,341.071l-17.463-5.26
		c12.921-15.357,27.225-28.916,42.516-40.301l15.279,7.29C1680.657,313.557,1667.087,326.433,1654.772,341.071z M2076.421,335.125
		c-16.963-12.836-34.484-24.224-52.076-33.846l13.151-8.52c18.369,10.048,36.616,21.903,54.232,35.233L2076.421,335.125z
		 M1749.757,273.087l-10.453-9.852c23.178-8.642,48.687-14.189,75.819-16.486l2.891,11.495
		C1793.59,260.313,1770.625,265.306,1749.757,273.087z M1962.957,274.561c-22.681-7.449-46.326-12.598-70.277-15.303l3.501-11.407
		c25.995,2.937,51.602,8.507,76.108,16.555L1962.957,274.561z"/>
	<g id="_x37_">
		<path style="fill:#4F69B2;" d="M1164.095,1383.433v340.822c0,11.576-2.252,22.557-6.305,32.444H851.993
			c-4.063-9.887-6.315-20.869-6.315-32.444v-340.822c0-43.212,31.472-78.276,70.283-78.276h177.852
			C1132.644,1305.157,1164.095,1340.222,1164.095,1383.433z"/>
		<path style="fill:#F8FDFF;" d="M1459.593,1717.464c-16.266,0-32.09-8.43-40.827-23.521l-235.623-406.976
			c-13.041-22.524-5.352-51.354,17.171-64.395c22.523-13.038,51.353-5.353,64.395,17.171l235.623,406.976
			c13.041,22.524,5.352,51.354-17.171,64.393C1475.728,1715.417,1467.606,1717.464,1459.593,1717.464z"/>
		<path style="fill:#1D3F70;" d="M1296.61,1263.355c-0.427,95.055-144.954,95.047-145.367-0.005
			C1151.668,1168.301,1296.196,1168.308,1296.61,1263.355z"/>
		<rect x="996.208" y="677.901" style="fill:#F8FDFF;" width="17.327" height="105.281"/>
		<path style="fill:#4F69B2;" d="M960.025,793.277c0.611-10.287-4.075-33.033,12.532-32.719c-0.001-0.001,64.629-0.001,64.629-0.001
			c6.892,0,12.531,5.639,12.531,12.531c-0.611,10.287,4.074,33.032-12.532,32.719c0.001,0.001-64.629,0.001-64.629,0.001
			C965.664,805.809,960.025,800.169,960.025,793.277z"/>
		<path style="fill:#4F69B2;" d="M786.29,1052.579c-13.598-0.499-41.905,4.669-41.524-16.775
			c-0.001,0.001-0.001-91.196-0.001-91.196c-0.383-21.352,27.94-16.39,41.527-16.773c9.224-0.001,16.773,7.548,16.773,16.773v91.197
			C803.065,1045.031,795.516,1052.579,786.29,1052.579z"/>
		<path style="fill:#4F69B2;" d="M1248.204,1052.579c-13.598-0.499-41.906,4.669-41.524-16.775
			c-0.002,0.001-0.002-91.196-0.002-91.196c-0.382-21.352,27.94-16.39,41.527-16.773c9.225-0.001,16.773,7.548,16.773,16.773v91.197
			C1264.978,1045.031,1257.43,1052.579,1248.204,1052.579z"/>
		<path style="fill:#F8FDFF;" d="M936.481,833.081c0.932-15.688-6.214-50.374,19.111-49.896c-0.001-0.002,98.56-0.002,98.56-0.002
			c25.219-0.484,18.311,34.229,19.109,49.9c0.001,10.509-8.599,19.108-19.109,19.108h-98.561
			C945.081,852.191,936.481,843.591,936.481,833.081z"/>
		<path style="fill:#4F69B2;" d="M989.477,1094.336c15.688,0.932,50.374-6.214,49.897,19.111c0.001-0.001,0.001,98.56,0.001,98.56
			c0.484,25.219-34.229,18.312-49.9,19.109c-10.509,0-19.108-8.599-19.108-19.109v-98.561
			C970.367,1102.936,978.967,1094.336,989.477,1094.336z"/>
		<path style="fill:#F8FDFF;" d="M1137.273,1162.727H872.47c-54.206,0-98.555-44.35-98.555-98.555
			c4.321-84.134-31.38-243.728,98.559-246.481c-0.004-0.003,264.8-0.003,264.8-0.003c54.205,0,98.555,44.35,98.555,98.555
			C1231.507,1000.376,1267.208,1159.97,1137.273,1162.727z"/>
		<path style="fill:#1D3F70;" d="M1111.825,1105.22H897.918c-36.137,0-65.703-29.567-65.703-65.704
			c2.886-56.091-20.928-162.479,65.706-164.321c-0.002-0.002,213.905-0.002,213.905-0.002c36.137,0,65.703,29.567,65.703,65.704
			C1174.642,996.988,1198.457,1103.376,1111.825,1105.22z"/>
		<path style="fill:#4F69B2;" d="M1037.606,677.902c-0.192,42.81-65.283,42.806-65.469-0.002
			C972.329,635.092,1037.419,635.096,1037.606,677.902z"/>
		<path style="fill:#FFDE00;" d="M960.931,990.206c-0.157,34.979-53.342,34.976-53.493-0.001
			C907.594,955.228,960.779,955.231,960.931,990.206z"/>
		<path style="fill:#FFDE00;" d="M1102.305,990.206c-0.157,34.979-53.342,34.976-53.494-0.001
			C1048.969,955.228,1102.153,955.231,1102.305,990.206z"/>
		<path style="fill:#1D3F70;" d="M1164.096,1370.347v207.49H845.675v-207.49c0-35.99,31.479-65.186,70.286-65.186h177.848
			C1132.641,1305.161,1164.096,1334.357,1164.096,1370.347z"/>
		<path style="fill:#F8FDFF;" d="M1264.978,1285.906v166.708c0,41.898-33.965,75.863-75.864,75.863h-368.45
			c-41.898,0-75.864-33.965-75.864-75.863v-166.708c0-41.898,33.965-75.864,75.864-75.864h368.45
			C1231.013,1210.043,1264.978,1244.008,1264.978,1285.906z"/>
		<path style="fill:#1D3F70;" d="M831.276,1242.149c-0.427,95.055-144.954,95.047-145.368-0.005
			C686.335,1147.094,830.862,1147.102,831.276,1242.149z"/>
		<path style="fill:#F8FDFF;" d="M522.924,1696.259c-35.076,0.823-59.407-40.49-40.738-70.745
			c-0.001,0,235.622-406.977,235.622-406.977c31.823-52.96,111.745-7.032,81.565,47.225
			c0.001-0.002-235.622,406.976-235.622,406.976C555.016,1687.826,539.19,1696.259,522.924,1696.259z"/>
		<path style="fill:#1D3F70;" d="M595.653,1649.126c-0.427,95.055-144.954,95.047-145.368-0.005
			C450.711,1554.071,595.239,1554.079,595.653,1649.126z"/>
		<path style="fill:#F8FDFF;" d="M953.506,1601.292l-72.922,0.123l15.311-16.778c20.933-22.281-14.533-54.652-34.812-31.766
			c0.001-0.001-44.396,48.652-44.396,48.652l-291.862,0.478c-26.026,0-47.125,21.1-47.125,47.125
			c0,26.026,21.099,47.125,47.125,47.125l428.842-0.097C1016.014,1694.988,1015.842,1602.24,953.506,1601.292z"/>
		<polygon style="fill:#163260;" points="1807.087,1669.698 1277.115,1669.698 1382.633,1281.227 1909.403,1281.227 		"/>
		<rect x="1277.115" y="1667.775" style="fill:#234270;" width="529.973" height="26.38"/>
		<polygon style="fill:#0B274F;" points="1390.596,1281.227 1371.636,1281.227 1268.286,1667.775 1016.78,1667.775 
			1016.78,1694.155 1285.939,1694.155 1285.939,1670.559 		"/>
	</g>
	<g id="_x36_">
		<path style="fill:#CE4ABF;" d="M3089.391,1069.374c0,0-98.294,0-193.732,96.264c-79.93,80.621-152.152,209.826-152.152,209.826
			l258.309,41.159C3001.816,1416.623,3101.354,1128.828,3089.391,1069.374z"/>
		<path style="fill:#CE4ABF;" d="M3520.402,1692.773c-1.279,21.084-3.469,42.403-6.612,63.927h-641.84
			c-1.76-17.85-2.067-39.619-1.156-63.927c4.247-112.993,34.788-280.804,67.785-364.075
			c43.816-112.911,123.197-204.585,185.579-259.516c0.021-0.021,97.835-6.683,97.866-6.704
			C3385.854,1158.041,3538.119,1402.818,3520.402,1692.773z"/>
		<path style="fill:#A523A2;" d="M2930.678,1354.169c1.547,0,2.949-1.055,3.323-2.627c9.583-46.648,43.085-86.154,37.338-92.378
			c-8.386-1.783-31.036,46.313-43.993,90.789C2926.814,1352.067,2928.505,1354.195,2930.678,1354.169z"/>
		<path style="fill:#F99370;" d="M3309.572,1309.819c66.254,53.333,215.37,166.094,164.968,256.198
			c-64.227,36.659-179.036,35.086-265.604,47.394c-24.953,1.748-28.47,39.437-4.682,46.008
			c81.578,24.119,166.353,39.227,252.24,34.763c38.836-2.803,81.213-11.431,110.954-40.168
			c39.601-39.619,62.708-99.269,58.536-155.724c-12.057-135.792-116.377-239.936-220.045-316.078
			C3318.931,1115.474,3221.153,1245.19,3309.572,1309.819z"/>
		<path style="fill:#CE4ABF;" d="M3287.62,1296.304c163.87,201.018,184.083,232.291-51.534,314.52
			c25.516,30.187,8.17,59.703,8.17,59.703c659.588,193.432,445.167-619.542-22.233-608.053
			C3225.291,1113.603,3248.882,1242.783,3287.62,1296.304z"/>
		<path style="fill:#F99370;" d="M3068.724,1666.916c0,0,27.672-83.817,142.668-53.6l22.218,53.679L3068.724,1666.916z"/>
		<path style="fill:#E57D61;" d="M3074.888,1665.269c3.402-0.1,30.888-29.438,71.86-33.703c1.762-0.18,3.045-1.754,2.866-3.518
			C3129.87,1615.389,3054.506,1665.478,3074.888,1665.269z"/>
		<path style="fill:#E57D61;" d="M3105.812,1666.396c30.911-11.507,33.73-13.281,56.596-17.645
			c-0.202-1.589-0.771-4.758-1.133-6.318c-24.012,4.968-24.012,4.968-56.005,17.52
			C3101.508,1660.693,3101.973,1666.44,3105.812,1666.396z"/>
		<path style="fill:#A523A2;" d="M3271.064,1678.835c-9.048-2.701-18.949-5.941-26.813-8.304c0,0,17.345-29.51-8.168-59.698
			c0,0,12.728-4.133,30.829-10.516C3266.912,1600.317,3298.129,1640.343,3271.064,1678.835z"/>
		<path style="fill:#A523A2;" d="M3266.304,1607.491c-4.891,0.698,154.613-51.025,152.584-118.488
			c0.034-78.815-129.023-193.956-134.517-198.822c-3.256-2.875-7.918,2.15-4.533,5.123c-0.28,1.519,187.111,162.484,115.483,231.732
			C3341.976,1579.311,3246.799,1600.012,3266.304,1607.491z"/>
		<path style="fill:#A523A2;" d="M3323.768,1692.527c3.983,0.105,4.656-6.095,0.653-6.776
			c-28.845-5.654-54.978-14.885-55.239-14.978C3249.896,1675.828,3294.21,1686.295,3323.768,1692.527z"/>
		<path style="fill:#A523A2;" d="M3087.065,1132.661c27.397,66.471,162.71,26.507,184-66.76c0,0-0.024,0-0.024-0.024
			c-30.139-4.049-49.018-3.402-49.018-3.402c-0.024,0.024-97.844,6.684-97.869,6.708c-11.907-0.599-23.479-0.503-34.763,0.192
			C3077.46,1085.714,3081.483,1119.119,3087.065,1132.661z"/>
		<path style="fill:#F99370;" d="M3124.155,1069.182c-11.568-51.727-11.401-128.114-7.403-159.997
			c6.651-62.702,106.387-49.307,96.634,12.669c-3.343-1.641-1.574,110.521,8.628,140.615
			C3234.687,1107.785,3085.841,1167.323,3124.155,1069.182z"/>
		<path style="fill:#E57D61;" d="M3213.781,916.7c-0.06,1.714-0.177,3.46-0.395,5.155c-2.419-1.257-2.233,60.706,2.437,105.197
			c-39.782,23.45-87.274,20.041-95.99,19.196c-6.9-56.253-7.179-108.138-2.327-141.256
			C3129.713,848.387,3215.478,858.917,3213.781,916.7z"/>
		<path style="fill:#1D3F70;" d="M3050.974,841.191c0,0,0.756-50.678,16.5-85.65l29.012,14.14L3050.974,841.191z"/>
		<path style="fill:#F99370;" d="M3050.475,989.463c34.518,34.911,87.715,44.728,130.198,35.474
			c13.261-2.682,25.872-7.353,37.097-14.377l0.017,0.002c3.795-2.371,7.387-4.96,10.816-7.813l0.052,0.006
			c161.388-163.198-58.911-429.245-158.63-196.411C3036.289,871.919,2977.379,907.159,3050.475,989.463z"/>
		<path style="fill:#C16256;" d="M3119.855,857.286c-1.633-3.186-0.371-7.09,2.818-8.721c3.19-1.63,7.099-0.369,8.732,2.817
			c1.633,3.186,0.372,7.09-2.818,8.721C3125.398,861.733,3121.488,860.472,3119.855,857.286z"/>
		<path style="fill:#C16256;" d="M3065.281,848.288c-1.633-3.186-0.372-7.091,2.818-8.721c3.189-1.63,7.099-0.369,8.732,2.817
			c1.633,3.186,0.372,7.09-2.818,8.721C3070.824,852.734,3066.914,851.474,3065.281,848.288z"/>
		<path style="fill:#C16256;" d="M3082.333,904.371c3.802,0.441,7.682,0.222,10.957-0.837c1.293-0.415,1.997-1.802,1.581-3.086
			c-0.415-1.299-1.821-1.982-3.09-1.579c-8.219,2.654-19.888-1.428-21.5-5.148c-0.565-1.308,1.193-2.611,2.771-3.467
			c13.896-7.569,23.155-33.912,23.541-35.028c0.443-1.281-0.231-2.678-1.515-3.121c-1.326-0.463-2.682,0.239-3.125,1.513
			c-0.09,0.253-9.021,25.663-21.251,32.325c-6.666,3.633-5.666,8.005-4.929,9.718
			C3067.696,900.125,3074.876,903.505,3082.333,904.371z"/>
		<path style="fill:#E57D61;" d="M3077.501,790.246c35.138-18.617,98.973-1.878,130.294-2.196c0,0-6.538,53.573,47.615,91.606
			c4.681,49.237,12.83,70.719-37.64,130.904l0.017,0.002c3.795-2.371,7.387-4.96,10.816-7.813l0.052,0.006
			C3384.072,847.139,3180.619,582.553,3077.501,790.246z"/>
		<path style="fill:#1D3F70;" d="M3050.667,683.579c20.106-39.852,79.949-61.624,131.764-12.525
			c39.893,37.805,82.884,37.413,82.098,77.322c79.948,36.085,40.5,124.129,40.5,124.129l-40.04-4.65
			c-45.813-36.901-44.542-91.291-44.542-91.291l0.011-0.008c-10.197,0.524-20.936,0.109-30.45-2.299
			c-29.48-7.463-73.085-11.009-106.284,1.293C3050.525,787.852,3028.195,728.118,3050.667,683.579z"/>
		<path style="fill:#F99370;" d="M3310.801,904.758c-4.283,20.563-21.184,34.44-37.749,30.993
			c-16.565-3.446-26.522-22.91-22.239-43.473c4.283-20.564,21.184-34.44,37.75-30.993
			C3305.127,864.731,3315.084,884.195,3310.801,904.758z"/>
		<path style="fill:#C16256;" d="M3271.44,877.618c0.64-0.25,15.804-6.142,24.355,1.736c2.179,2.003,3.634,4.717,4.459,8.039
			c0.003,0.008,0.002,0.015,0.005,0.021c0.077,0.31,0.186,0.589,0.251,0.91c0.001,0.006,0.004,0.01,0.004,0.014
			c0,0.002-0.003,0.003-0.001,0.004c1.243,6.185,0.318,14.458-2.793,24.771c-0.352,1.149-1.476,1.862-2.637,1.727
			c-0.141-0.016-0.281-0.047-0.427-0.087c-1.297-0.392-2.035-1.765-1.643-3.061c2.528-8.36,3.483-15.154,2.962-20.282
			c-14.145,2.563-21.205,18.422-21.274,18.593c-0.436,1.026-1.491,1.604-2.548,1.482c-0.223-0.026-0.449-0.09-0.672-0.184
			c-1.252-0.522-1.831-1.96-1.309-3.21c0.341-0.791,8.018-18.514,24.624-21.618c-0.589-1.388-1.33-2.595-2.316-3.504
			c-6.281-5.791-19.113-0.833-19.231-0.787c-1.279,0.492-2.685-0.131-3.188-1.387
			C3269.564,879.539,3270.182,878.119,3271.44,877.618z"/>
		<polygon style="fill:#163260;" points="2477.388,1668.847 3009.626,1668.847 2903.657,1278.716 2374.635,1278.716 		"/>
		<rect x="2477.388" y="1666.916" style="fill:#234270;" width="532.238" height="26.493"/>
		<polygon style="fill:#0B274F;" points="2895.659,1278.716 2914.701,1278.716 3018.492,1666.916 3271.074,1666.916 
			3271.074,1693.409 3000.764,1693.409 3000.764,1669.711 		"/>
		<path style="fill:#C16256;" d="M3150.745,846.462c-0.845,0-1.674-0.407-2.18-1.161c-0.373-0.549-9.29-13.268-32.896-13.578
			c-1.449-0.019-2.608-1.209-2.59-2.658c0.02-1.437,1.19-2.589,2.623-2.589c0.012,0,0.023,0,0.035,0
			c26.536,0.349,36.768,15.273,37.19,15.908c0.803,1.207,0.476,2.835-0.731,3.638C3151.75,846.32,3151.245,846.462,3150.745,846.462
			z"/>
		<path style="fill:#C16256;" d="M3091.25,828.04c-0.326,0-0.658-0.062-0.98-0.191c-0.184-0.074-13.329-5.199-26.171-0.001
			c-1.344,0.543-2.872-0.105-3.417-1.448c-0.543-1.343,0.104-2.873,1.448-3.417c14.881-6.024,29.491-0.249,30.105,0
			c1.344,0.544,1.991,2.073,1.448,3.417C3093.27,827.42,3092.287,828.04,3091.25,828.04z"/>
		<path style="fill:#C16256;" d="M3087.787,923.51c-2.745,0-5.64-0.218-8.68-0.711c-1.431-0.232-2.402-1.58-2.17-3.01
			c0.232-1.43,1.582-2.403,3.01-2.17c23.171,3.756,37.164-10.474,37.303-10.618c1.004-1.045,2.666-1.076,3.71-0.071
			c1.044,1.005,1.076,2.666,0.071,3.71C3120.463,911.231,3108.379,923.51,3087.787,923.51z"/>
	</g>
	<path id="_x35_" style="fill:#4D58AA;" d="M3835.115,1729.184c0,20.112-13.254,36.411-29.599,36.411H194.484
		c-8.168,0-15.577-4.081-20.93-10.668c-5.353-6.587-8.669-15.682-8.669-25.743c0-20.112,13.254-36.411,29.599-36.411h3611.031
		c8.167,0,15.578,4.081,20.93,10.668C3831.799,1710.028,3835.115,1719.122,3835.115,1729.184z"/>
	<g id="_x34_">
		<path style="fill:#8A9EDD;" d="M2187.893,1505.066h-47.99C2004.546,1009.57,2327.534,1110.865,2187.893,1505.066z"/>
		<path style="fill:#3A72AA;" d="M2187.893,1505.066c0,0-35.931,8.493-34.47,0c37.179-216.187,2.041-334.616,2.041-334.616
			C2286.185,1161.678,2187.893,1505.066,2187.893,1505.066z"/>
		<path style="fill:#7689D6;" d="M2321.248,1288.867c-7.287,79.593-56.927,150.804-98.127,216.182h-54.808
			c4.867-75.38,17.07-157.126,58.989-222.058C2246.823,1236.364,2321.369,1224.996,2321.248,1288.867z"/>
		<path style="fill:#8A9EDD;" d="M2321.248,1288.867c0,2.938-0.873,9.154-0.873,9.154c-38.987-6.215-61.808-24.975-74.088-39.665
			c2.179-2.595,4.373-4.348,6.822-6.043C2264.334,1265.722,2285.576,1283.066,2321.248,1288.867z"/>
		<path style="fill:#8A9EDD;" d="M2312.773,1334.785c-0.904,2.863-1.883,5.801-2.938,8.739
			c-55.73-6.775-80.175-38.656-87.957-51.832c1.695-2.938,3.541-5.839,5.424-8.702
			C2232.494,1293.24,2257.428,1328.78,2312.773,1334.785z"/>
		<path style="fill:#8A9EDD;" d="M2297.818,1373.735c-1.281,2.863-2.599,5.763-3.917,8.626c-53-2.411-81.478-27.8-94.135-44.487
			c1.281-3.391,2.599-6.78,4.031-10.095C2214.135,1343.616,2245.44,1371.859,2297.818,1373.735z"/>
		<path style="fill:#8A9EDD;" d="M2273.786,1422.177c-1.583,2.863-3.127,5.65-4.671,8.438
			c-44.035-3.239-70.979-21.838-85.708-37.998c0.47-3.803,2.27-6.602,3.099-9.879
			C2202.626,1399.141,2227.484,1419.201,2273.786,1422.177z"/>
		<path style="fill:#8A9EDD;" d="M2245.76,1469.602c-1.808,2.863-3.578,5.688-5.348,8.475
			c-32.847-5.349-54.017-19.738-66.561-32.018c0.527-3.842,1.055-7.684,1.695-11.564
			C2186.997,1446.549,2211.708,1464.592,2245.76,1469.602z"/>
		<path style="fill:#7689D6;" d="M2091.168,1505.066h-54.192C1866.463,1277.997,2077.497,1234.204,2091.168,1505.066z"/>
		<path style="fill:#8A9EDD;" d="M2091.168,1505.066h-32.938c-59.296-82.665-72.192-150.528-72.257-183.309
			C2063.339,1280.503,2091.343,1504.889,2091.168,1505.066z"/>
		<path style="fill:#3A72AA;" d="M2148.725,1505.049h-66.562c1.188,2.832-21.218-39.265-29.72-59.705h-0.038
			c-18.486-43.469-42.489-102.05-32.999-148.98c5.291-37.082,58.244-51.706,83.363-26.367
			C2152.324,1313.902,2150.762,1459.437,2148.725,1505.049z"/>
		<path style="fill:#7689D6;" d="M2148.386,1425.869c-0.289-4.636-0.543-9.562-0.979-14.314l-36.652,50.815l-14.654-58.311
			l41.361-62.041c-0.948-4.291-2.025-8.404-3.201-12.543l-41.172,62.644l-17.441-69.462l33.375-46.22
			c-1.959-2.335-4.069-4.52-6.253-6.441l-30.022,41.097l-12.845-52.963c-3.201,0.568-6.402,1.387-9.304,2.373l13.485,53.64
			l-44.788-17.177c-0.674,2.696-1.157,5.553-1.507,8.513l49.045,19.625l17.667,70.328l-59.442-25.314
			c0.979,3.814,2.095,7.617,3.239,11.414l58.99,25.012l14.766,58.801l-49.647-20.002c1.701,4.265,3.674,8.069,5.386,11.866
			l47.048,19.098c2.363,3.998,4.998,34.081,11.901,33.338c10.996,0.471-3.739-31.273-3.086-35.711l34.73-47.99
			C2148.386,1425.906,2148.386,1425.906,2148.386,1425.869z"/>
		<rect x="2036.418" y="1505.057" style="fill:#EB5648;" width="186.164" height="187.914"/>
		<path style="fill:#CE3932;" d="M2222.582,1505.057v187.914h-186.164C2036.418,1692.971,2222.582,1690.064,2222.582,1505.057z"/>
	</g>
	<g id="_x33_">
		<path style="fill:#8A9EDD;" d="M2524.84,790.916l-21.894-96.724l-55.531,12.57c-8.275-16.265-18.629-31.111-30.643-44.28
			l30.698-48.662l-83.876-52.913l-29.543,46.831c-19.573-6.887-40.327-10.815-61.606-11.356l-12.929-57.117l-96.724,21.894
			l12.929,57.117c-17.621,8.966-33.576,20.372-47.537,33.685l-44.059-27.794l-52.913,83.876l44.059,27.794
			c-6.003,18.333-9.427,37.645-9.93,57.409l-55.531,12.57l21.894,96.724l55.531-12.57c9.653,18.972,22.136,36.011,36.78,50.711
			l-29.543,46.831l83.876,52.913l30.698-48.662c17.058,5.172,34.916,8.123,53.159,8.587l12.928,57.117l96.724-21.894l-12.928-57.116
			c17.621-8.966,33.576-20.372,47.537-33.685l51.35,32.394l52.913-83.876l-51.35-32.394c6.003-18.333,9.427-37.645,9.93-57.41
			L2524.84,790.916z M2293.06,885.24c-113.953,33.011-164.693-139.511-51.463-173.751
			C2355.544,678.48,2406.284,851.001,2293.06,885.24z"/>
		<path style="fill:#667ECC;" d="M1940.785,758.696l-5.421-23.949l-21.166,4.791c-5.255-16.583-13.311-31.633-23.517-44.743
			l15.916-14.714l-16.669-18.03l-15.931,14.729c-12.549-11.421-27.035-20.559-42.747-26.967l6.432-20.721l-23.451-7.28
			l-6.426,20.701c-16.227-3.566-33.279-4.355-50.509-1.956l-4.791-21.166l-23.949,5.421l4.791,21.166
			c-16.583,5.255-31.633,13.31-44.743,23.516l-14.714-15.916l-18.03,16.669l14.729,15.931
			c-11.421,12.549-20.559,27.035-26.967,42.747l-20.72-6.432l-7.28,23.451l20.701,6.426c-3.566,16.227-4.355,33.279-1.956,50.509
			l-21.166,4.791l5.421,23.949l21.166-4.791c5.255,16.583,13.31,31.633,23.516,44.743l-15.916,14.714l16.67,18.03l15.931-14.729
			c12.55,11.421,27.035,20.559,42.747,26.967l-6.432,20.721l23.451,7.28l6.426-20.701c16.226,3.566,33.279,4.355,50.508,1.956
			l4.791,21.166l23.949-5.421l-4.791-21.166c16.583-5.255,31.633-13.31,44.743-23.516l14.714,15.916l18.03-16.669l-14.728-15.931
			c11.42-12.549,20.559-27.035,26.967-42.747l20.721,6.432l7.28-23.451l-20.701-6.426c3.566-16.227,4.355-33.279,1.956-50.509
			L1940.785,758.696z M1797.658,874.476c-120.469,25.114-160.855-153.394-41.325-182.587
			C1876.797,666.776,1917.183,845.285,1797.658,874.476z"/>
		<path style="fill:#EB5648;" d="M2103.169,428.815l-8.203-36.241l-27.757,6.283c-2.297-5.437-5.007-10.615-8.114-15.485
			l20.874-19.298l-25.225-27.284l-20.901,19.324c-4.659-3.511-9.601-6.629-14.776-9.321l8.439-27.186l-35.487-11.016l-8.428,27.15
			c-5.733-0.707-11.573-0.923-17.47-0.655l-6.283-27.757l-36.241,8.203l6.283,27.757c-5.437,2.297-10.615,5.007-15.485,8.114
			l-19.299-20.874l-27.284,25.225l19.324,20.901c-3.511,4.659-6.628,9.601-9.321,14.776l-27.185-8.439l-11.016,35.488l27.15,8.428
			c-0.708,5.733-0.923,11.574-0.655,17.47l-27.757,6.283l8.203,36.241l27.757-6.283c2.297,5.437,5.006,10.615,8.114,15.485
			l-20.874,19.299l25.225,27.284l20.901-19.324c4.659,3.511,9.601,6.629,14.776,9.321l-8.439,27.186l35.488,11.016l8.428-27.15
			c5.733,0.708,11.573,0.923,17.469,0.655l6.283,27.757l36.241-8.203l-6.283-27.757c5.437-2.297,10.615-5.007,15.485-8.114
			l19.298,20.874l27.284-25.225l-19.324-20.901c3.511-4.659,6.629-9.601,9.321-14.776l27.186,8.439l11.016-35.488l-27.15-8.428
			c0.707-5.733,0.923-11.573,0.655-17.469L2103.169,428.815z M1982.325,490.83c-67.421,14.055-90.023-85.848-23.128-102.186
			C2026.616,374.589,2049.218,474.492,1982.325,490.83z"/>
	</g>
	<g id="_x32_">
		<path style="fill:#7689D6;" d="M1659.12,335.442v178.805c0,29.702-24.081,53.77-53.77,53.77h-428.875
			c-29.689,0-53.77-24.068-53.77-53.77V335.442c0-29.689,24.081-53.77,53.77-53.77h428.875
			C1635.039,281.672,1659.12,305.753,1659.12,335.442z"/>
		<path style="fill:#677CC1;" d="M1122.705,514.247c0,29.702,24.081,53.77,53.77,53.77h21.949v76.747l103.624-76.747h303.303
			c29.689,0,53.77-24.068,53.77-53.77V335.442C1456.653,537.922,1122.705,514.247,1122.705,514.247z"/>
		<path style="fill:#FFFFFF;" d="M1462.69,369.079h-285.655c-8.224,0-14.892-6.667-14.892-14.892
			c0-8.225,6.667-14.892,14.892-14.892h285.655C1482.074,339.365,1482.236,368.992,1462.69,369.079z"/>
		<path style="fill:#FFFFFF;" d="M1292.27,439.737h-115.235c-19.44-0.08-19.501-29.698,0.001-29.784c-0.001,0,115.234,0,115.234,0
			C1311.71,410.034,1311.772,439.652,1292.27,439.737z"/>
		<path style="fill:#FFFFFF;" d="M1604.79,439.737h-243.26c-8.225,0-14.892-6.667-14.892-14.892c0-8.225,6.667-14.892,14.892-14.892
			h243.26C1624.189,410.026,1624.325,439.651,1604.79,439.737z"/>
		<path style="fill:#FFFFFF;" d="M1412.609,510.395h-235.574c-19.401-0.072-19.532-29.697,0.001-29.783
			c-0.001,0,235.573,0,235.573,0C1432.01,480.684,1432.142,510.309,1412.609,510.395z"/>
		<path style="fill:#8A9EDD;" d="M1580.267,281.672c-361.555,0-445.56,60.291-457.562,70.923
			c-4.464-35.683,14.79-70.646,53.771-70.923C1176.475,281.672,1580.267,281.672,1580.267,281.672z"/>
	</g>
	<g id="_x31_">
		<path style="fill:#7689D6;" d="M2521.277,297.07v178.805c0,29.702,24.081,53.77,53.77,53.77h428.875
			c29.689,0,53.77-24.068,53.77-53.77V297.07c0-29.689-24.081-53.77-53.77-53.77h-428.875
			C2545.357,243.3,2521.277,267.381,2521.277,297.07z"/>
		<path style="fill:#677CC1;" d="M3057.691,475.875c0,29.702-24.081,53.77-53.77,53.77h-21.949v76.747l-103.624-76.747h-303.303
			c-29.689,0-53.77-24.068-53.77-53.77V297.07C2723.744,499.549,3057.691,475.875,3057.691,475.875z"/>
		<path style="fill:#FFFFFF;" d="M2717.706,330.707h285.655c8.224,0,14.892-6.667,14.892-14.892c0-8.225-6.667-14.892-14.892-14.892
			h-285.655C2698.323,300.993,2698.161,330.62,2717.706,330.707z"/>
		<path style="fill:#FFFFFF;" d="M2888.126,401.365h115.235c19.44-0.08,19.501-29.698-0.001-29.783c0.001,0-115.234,0-115.234,0
			C2868.686,371.661,2868.625,401.279,2888.126,401.365z"/>
		<path style="fill:#FFFFFF;" d="M2575.606,401.365h243.261c8.224,0,14.892-6.667,14.892-14.892c0-8.224-6.667-14.892-14.892-14.892
			h-243.261C2556.208,371.653,2556.072,401.278,2575.606,401.365z"/>
		<path style="fill:#FFFFFF;" d="M2767.787,472.022h235.574c19.401-0.072,19.532-29.697-0.001-29.783c0.001,0-235.573,0-235.573,0
			C2748.386,442.312,2748.255,471.936,2767.787,472.022z"/>
		<path style="fill:#8A9EDD;" d="M2600.129,243.3c361.556,0,445.56,60.291,457.562,70.923c4.464-35.683-14.79-70.646-53.771-70.923
			C3003.922,243.3,2600.129,243.3,2600.129,243.3z"/>
	</g>
</g>
</svg>
