<svg width="94" height="94" viewBox="0 0 94 94" fill="none" xmlns="http://www.w3.org/2000/svg">
<path d="M47.0926 93.8244C73.0016 93.8244 93.9633 72.8211 93.9119 46.9122C93.8604 21.0033 72.8154 0 46.9064 0C20.9975 0 0.0358223 21.0033 0.0872393 46.9122C0.138656 72.8211 21.1837 93.8244 47.0926 93.8244Z" fill="url(#paint0_linear_3216_8429)"/>
<path d="M5.86914 46.7512C5.86914 24.091 24.3019 5.6582 46.9621 5.6582C69.6224 5.6582 88.0551 24.091 88.0551 46.7512C88.0551 69.4114 69.6224 87.8442 46.9621 87.8442C24.3019 87.8442 5.86914 69.4114 5.86914 46.7512Z" fill="#477FD3"/>
<path fill-rule="evenodd" clip-rule="evenodd" d="M31.7057 40.7757C31.4495 38.6099 30.7502 37.7789 30.2142 36.917C29.7541 36.1768 29.3919 35.4187 29.3919 34.0393C29.3919 30.852 31.9758 28.2668 35.1645 28.2668C38.3518 28.2668 40.937 30.852 40.937 34.0393C40.937 35.4187 40.5747 36.1768 40.1147 36.917C39.5787 37.779 38.8794 38.6099 38.6232 40.7758C39.1279 41.0075 39.4803 41.5182 39.4803 42.1061V43.9483C39.4803 44.7535 38.8218 45.412 38.0166 45.412H37.7494V45.6583C37.7494 46.4348 37.1133 47.0718 36.3347 47.0718H33.9942C33.2156 47.0718 32.5795 46.4348 32.5795 45.6583V45.412H32.3111C31.5077 45.412 30.8486 44.7538 30.8486 43.9483V42.1061C30.8486 41.5179 31.2015 41.0073 31.7057 40.7757ZM37.4113 40.6435C37.6475 38.6056 38.2282 37.6028 38.765 36.7649C39.2539 36.0018 39.7184 35.4086 39.7184 34.0393C39.7184 31.5248 37.6789 29.4854 35.1645 29.4854C32.6489 29.4854 30.6106 31.5248 30.6106 34.0393C30.6106 35.4086 31.075 36.0018 31.5639 36.7649C32.1007 37.6028 32.6814 38.6056 32.9177 40.6435H37.4113ZM32.3111 41.8622C32.1771 41.8622 32.0672 41.972 32.0672 42.1061V43.9483C32.0672 44.0828 32.1768 44.1934 32.3111 44.1934H33.1888C33.5253 44.1934 33.7981 44.4662 33.7981 44.8027V45.6583C33.7981 45.7657 33.8866 45.8532 33.9942 45.8532H36.3347C36.4424 45.8532 36.5308 45.7657 36.5308 45.6583V44.8027C36.5308 44.4662 36.8036 44.1934 37.1401 44.1934H38.0166C38.1514 44.1934 38.2617 44.0831 38.2617 43.9483V42.1061C38.2617 41.9717 38.1511 41.8622 38.0166 41.8622H32.3111ZM35.4205 37.2051C35.2477 37.4936 34.8731 37.5875 34.5847 37.4147C34.2962 37.2419 34.2023 36.8674 34.3751 36.5789L35.5313 34.6486H33.7224C33.503 34.6486 33.3005 34.5307 33.1923 34.3397C33.0841 34.1488 33.087 33.9145 33.1997 33.7262L34.9085 30.8735C35.0812 30.585 35.4558 30.4911 35.7443 30.6639C36.0327 30.8367 36.1267 31.2112 35.9539 31.4997L34.7977 33.43H36.6064C36.8259 33.43 37.0284 33.548 37.1366 33.7389C37.2447 33.9298 37.242 34.1641 37.1292 34.3524L35.4205 37.2051ZM43.0646 64.1275H31.1849C30.8486 64.1275 30.5756 63.8545 30.5756 63.5182C30.5756 54.4533 37.9351 47.0938 47 47.0938C56.0648 47.0938 63.4243 54.4533 63.4243 63.5182C63.4243 63.8545 63.1513 64.1275 62.815 64.1275H50.9354C50.6417 66.0363 48.9904 67.5 47 67.5C45.0095 67.5 43.3582 66.0363 43.0646 64.1275ZM50.9354 62.9089H55.7267C54.7663 59.4553 52.892 57.2516 50.7352 55.9624L49.0485 60.1039C50.0409 60.7009 50.7522 61.7183 50.9354 62.9089ZM56.9883 62.9089H62.1937C62.0443 59.1253 60.5096 55.6953 58.0834 53.1123L54.093 57.1717C55.3458 58.6049 56.367 60.487 56.9883 62.9089ZM57.2145 52.258C54.6546 49.9341 51.3001 48.4702 47.6093 48.3244V53.4739C48.4482 53.6401 49.2918 53.8964 50.1141 54.2567L51.0282 52.0122C51.1551 51.7008 51.511 51.5509 51.8224 51.6777C52.1339 51.8045 52.2837 52.1604 52.1568 52.4718L51.2062 54.8059C51.9172 55.2125 52.6022 55.7067 53.243 56.298L57.2145 52.258ZM46.3907 48.3244C42.6998 48.4702 39.3454 49.9341 36.7855 52.258L39.1252 54.6381C40.899 53.8157 42.8381 53.2833 44.8312 53.2356C45.3395 53.2234 45.8616 53.2416 46.3907 53.2938V48.3244ZM35.9165 53.1123C34.0654 55.083 32.7333 57.5467 32.1394 60.2843C32.6443 59.5924 33.2547 58.8896 33.955 58.2098C35.0913 57.1068 36.4619 56.0622 37.986 55.2176L35.9165 53.1123ZM32.015 62.9089H43.0646C43.3582 61.0001 45.0095 59.5364 47 59.5364C47.3167 59.5364 47.6248 59.5735 47.9201 59.6435L49.6492 55.3983C48.0678 54.6922 46.3969 54.417 44.8603 54.4538C40.9538 54.5474 37.2824 56.6781 34.8038 59.0842C33.478 60.3713 32.489 61.7338 32.015 62.9089ZM47 60.7551C45.475 60.7551 44.2368 61.9932 44.2368 63.5182C44.2368 65.0432 45.475 66.2813 47 66.2813C48.525 66.2813 49.7631 65.0432 49.7631 63.5182C49.7631 61.9932 48.525 60.7551 47 60.7551ZM34.5552 25.1093C34.5552 24.7731 34.8281 24.5 35.1645 24.5C35.5007 24.5 35.7738 24.7731 35.7738 25.1093V27.0649C35.7738 27.4012 35.5007 27.6743 35.1645 27.6743C34.8281 27.6743 34.5552 27.4012 34.5552 27.0649V25.1093ZM41.1372 27.3249C41.3753 27.0874 41.7614 27.0879 41.9988 27.3261C42.2363 27.5642 42.2358 27.9504 41.9976 28.1878L40.6107 29.5706C40.3726 29.808 39.9866 29.8074 39.7491 29.5693C39.5116 29.3311 39.5122 28.945 39.7503 28.7076L41.1372 27.3249ZM44.2196 33.5374C44.5559 33.5374 44.8289 33.8104 44.8289 34.1467C44.8289 34.483 44.5559 34.756 44.2196 34.756H42.2588C41.9225 34.756 41.6495 34.483 41.6495 34.1467C41.6495 33.8104 41.9225 33.5374 42.2588 33.5374H44.2196ZM41.9976 40.1056C42.2358 40.343 42.2363 40.7291 41.9988 40.9672C41.7614 41.2054 41.3753 41.2059 41.1372 40.9686L39.7503 39.5858C39.5122 39.3483 39.5116 38.9622 39.7491 38.724C39.9866 38.4859 40.3726 38.4853 40.6107 38.7228L41.9976 40.1056ZM28.3311 28.1876C28.0931 27.95 28.0927 27.5639 28.3303 27.3259C28.5678 27.0878 28.9539 27.0875 29.1919 27.325L30.5775 28.7078C30.8155 28.9454 30.8158 29.3315 30.5783 29.5696C30.3407 29.8075 29.9546 29.8079 29.7166 29.5703L28.3311 28.1876ZM26.1093 34.756C25.773 34.756 25.5 34.483 25.5 34.1467C25.5 33.8104 25.773 33.5374 26.1093 33.5374H28.0688C28.405 33.5374 28.6781 33.8104 28.6781 34.1467C28.6781 34.483 28.405 34.756 28.0688 34.756H26.1093ZM29.1919 40.9683C28.9539 41.2058 28.5678 41.2055 28.3303 40.9674C28.0927 40.7294 28.0931 40.3433 28.3311 40.1058L29.7166 38.723C29.9546 38.4854 30.3407 38.4858 30.5783 38.7238C30.8158 38.9618 30.8155 39.348 30.5775 39.5855L29.1919 40.9683ZM60.6704 29.7934H59.3598C59.1107 29.7934 58.8869 29.6419 58.7942 29.4108C58.7015 29.1797 58.7588 28.9155 58.9388 28.7435L63.2043 24.6687C63.4398 24.4438 63.8106 24.4438 64.0461 24.6687L68.3115 28.7435C68.4916 28.9155 68.5489 29.1797 68.4562 29.4108C68.3636 29.6419 68.1396 29.7934 67.8907 29.7934H66.5799V40.7241C66.5799 41.0606 66.3071 41.3334 65.9706 41.3334H61.2797C60.9432 41.3334 60.6704 41.0606 60.6704 40.7241V29.7934ZM61.889 29.1841V40.1148H65.3613V29.1841C65.3613 28.8476 65.6341 28.5748 65.9706 28.5748H66.3708L63.6252 25.952L60.8797 28.5748H61.2797C61.6162 28.5748 61.889 28.8476 61.889 29.1841ZM49.6823 33.5602H48.3715C48.1226 33.5602 47.8986 33.4087 47.806 33.1776C47.7134 32.9465 47.7707 32.6823 47.9507 32.5104L52.2161 28.4355C52.4517 28.2105 52.8224 28.2105 53.0579 28.4355L57.3234 32.5104C57.5034 32.6823 57.5607 32.9465 57.468 33.1776C57.3754 33.4087 57.1515 33.5602 56.9025 33.5602H55.5918V44.4909C55.5918 44.8274 55.319 45.1002 54.9825 45.1002H50.2916C49.9551 45.1002 49.6823 44.8274 49.6823 44.4909V33.5602ZM50.9009 32.9509V43.8816H54.3732V32.9509C54.3732 32.6144 54.646 32.3416 54.9825 32.3416H55.3825L52.637 29.7188L49.8915 32.3416H50.2916C50.6281 32.3416 50.9009 32.6144 50.9009 32.9509Z" fill="white"/>
<defs>
<linearGradient id="paint0_linear_3216_8429" x1="52.092" y1="-6.0847" x2="41.3907" y2="103.068" gradientUnits="userSpaceOnUse">
<stop stop-color="white"/>
<stop offset="1" stop-color="#D7D6D6"/>
</linearGradient>
</defs>
</svg>
