<svg width="95" height="94" viewBox="0 0 95 94" fill="none" xmlns="http://www.w3.org/2000/svg">
<path d="M47.5926 93.8244C73.5016 93.8244 94.4633 72.8211 94.4119 46.9122C94.3604 21.0033 73.3154 0 47.4064 0C21.4975 0 0.535822 21.0033 0.587239 46.9122C0.638656 72.8211 21.6837 93.8244 47.5926 93.8244Z" fill="url(#paint0_linear_3243_2372)"/>
<path d="M6.36914 46.7512C6.36914 24.091 24.8019 5.6582 47.4621 5.6582C70.1224 5.6582 88.5551 24.091 88.5551 46.7512C88.5551 69.4114 70.1224 87.8442 47.4621 87.8442C24.8019 87.8442 6.36914 69.4114 6.36914 46.7512Z" fill="#477FD3"/>
<path d="M34.4209 26.6123L36.1588 28.0806L35.6171 30.2911C35.5628 30.5129 35.648 30.7456 35.8328 30.8798C35.9311 30.9511 36.047 30.987 36.1631 30.987C36.2656 30.987 36.3683 30.9591 36.4593 30.9027L38.3931 29.7042L40.327 30.9028C40.5209 31.0231 40.7686 31.0141 40.9536 30.8799C41.1384 30.7456 41.2235 30.513 41.1693 30.2912L40.6275 28.0804L42.3631 26.6121C42.5374 26.4646 42.6052 26.2264 42.5347 26.0093C42.4642 25.7921 42.2693 25.6392 42.0416 25.6223L39.7733 25.4541L38.9136 23.3496C38.8272 23.1382 38.6216 23 38.3932 23C38.1648 23 37.9591 23.1381 37.8728 23.3496L37.013 25.454L34.7421 25.6223C34.5143 25.6392 34.3194 25.7922 34.249 26.0094C34.1785 26.2266 34.2465 26.4649 34.4209 26.6123ZM37.4432 26.5494C37.656 26.5337 37.8414 26.3989 37.922 26.2015L38.393 25.0485L38.864 26.2015C38.9446 26.3989 39.1301 26.5337 39.3428 26.5494L40.587 26.6417L39.6353 27.4467C39.4725 27.5844 39.4017 27.8025 39.4524 28.0097L39.7495 29.2221L38.6891 28.5649C38.5076 28.4525 38.2781 28.4524 38.0969 28.5649L37.0365 29.222L37.3336 28.0096C37.3844 27.8024 37.3134 27.5841 37.1504 27.4464L36.1978 26.6416L37.4432 26.5494L37.4432 26.5494ZM44.8161 28.6574C44.8161 28.347 45.0678 28.0953 45.3782 28.0953H60.2149C60.5254 28.0953 60.777 28.347 60.777 28.6574C60.777 28.9679 60.5253 29.2195 60.2149 29.2195H45.3782C45.0677 29.2195 44.8161 28.9679 44.8161 28.6574ZM44.8161 25.327C44.8161 25.0165 45.0678 24.7649 45.3782 24.7649H60.2149C60.5254 24.7649 60.777 25.0165 60.777 25.327C60.777 25.6375 60.5253 25.8891 60.2149 25.8891H45.3782C45.0677 25.8891 44.8161 25.6375 44.8161 25.327ZM34.4209 35.3277L36.1588 36.796L35.6171 39.0066C35.5628 39.2284 35.6481 39.4611 35.8328 39.5953C35.9311 39.6667 36.047 39.7026 36.1631 39.7026C36.2656 39.7026 36.3683 39.6746 36.4593 39.6183L38.3931 38.4196L40.327 39.6183C40.5209 39.7386 40.7686 39.7296 40.9536 39.5953C41.1384 39.461 41.2235 39.2284 41.1693 39.0066L40.6275 36.7958L42.3631 35.3275C42.5374 35.18 42.6052 34.9418 42.5347 34.7247C42.4642 34.5075 42.2693 34.3546 42.0416 34.3377L39.7733 34.1695L38.9136 32.065C38.8272 31.8536 38.6216 31.7154 38.3932 31.7154C38.1648 31.7154 37.9591 31.8535 37.8728 32.065L37.013 34.1694L34.7421 34.3376C34.5143 34.3545 34.3194 34.5075 34.249 34.7247C34.1785 34.9419 34.2465 35.1802 34.4209 35.3276V35.3277ZM37.4432 35.265C37.656 35.2492 37.8414 35.1144 37.922 34.917L38.393 33.764L38.864 34.917C38.9446 35.1144 39.1301 35.2492 39.3428 35.265L40.587 35.3572L39.6353 36.1623C39.4725 36.3001 39.4017 36.5182 39.4524 36.7253L39.7495 37.9376L38.6891 37.2805C38.5984 37.2242 38.4958 37.1962 38.393 37.1962C38.2902 37.1962 38.1876 37.2243 38.0969 37.2805L37.0365 37.9376L37.3336 36.7252C37.3844 36.518 37.3134 36.2997 37.1504 36.162L36.1978 35.3572L37.4432 35.265ZM44.8161 34.0424C44.8161 33.732 45.0678 33.4803 45.3782 33.4803H60.2149C60.5254 33.4803 60.777 33.732 60.777 34.0424C60.777 34.3529 60.5253 34.6046 60.2149 34.6046H45.3782C45.0677 34.6046 44.8161 34.3529 44.8161 34.0424ZM44.8161 37.3728C44.8161 37.0624 45.0678 36.8107 45.3782 36.8107H60.2149C60.5254 36.8107 60.777 37.0624 60.777 37.3728C60.777 37.6833 60.5253 37.935 60.2149 37.935H45.3782C45.0677 37.935 44.8161 37.6833 44.8161 37.3728ZM34.4205 44.0428L36.1588 45.5138L35.6172 47.7219C35.5628 47.9437 35.648 48.1764 35.8328 48.3106C35.931 48.382 36.047 48.418 36.1631 48.418C36.2656 48.418 36.3683 48.39 36.4593 48.3337L38.3931 47.1352L40.327 48.3337C40.5209 48.4539 40.7687 48.4449 40.9536 48.3107C41.1384 48.1764 41.2236 47.9438 41.1692 47.722L40.6275 45.5136L42.3635 44.0427C42.5376 43.8952 42.6053 43.6568 42.5345 43.4397C42.4638 43.2227 42.2688 43.0698 42.041 43.0531L39.7733 42.8872L38.9136 40.7806C38.8272 40.5691 38.6216 40.4308 38.3931 40.4308C38.1646 40.4308 37.959 40.5691 37.8726 40.7806L37.0129 42.8872L34.7426 43.0531C34.5148 43.0698 34.3197 43.2227 34.249 43.4398C34.1783 43.657 34.2461 43.8954 34.4204 44.0429L34.4205 44.0428ZM37.4427 43.983C37.6556 43.9674 37.8415 43.8325 37.9221 43.6348L38.393 42.4808L38.8639 43.6348C38.9445 43.8325 39.1304 43.9674 39.3433 43.983L40.587 44.074L39.6349 44.8805C39.4724 45.0184 39.4017 45.2363 39.4525 45.4433L39.7492 46.6527L38.6891 45.9958C38.5076 45.8835 38.2781 45.8834 38.0969 45.9958L37.037 46.6527L37.3335 45.4433C37.3844 45.2362 37.3136 45.0181 37.1508 44.8803L36.1978 44.0739L37.4426 43.9829L37.4427 43.983ZM44.8161 42.7605C44.8161 42.45 45.0678 42.1984 45.3782 42.1984H60.2149C60.5254 42.1984 60.777 42.45 60.777 42.7605C60.777 43.0709 60.5253 43.3226 60.2149 43.3226H45.3782C45.0677 43.3226 44.8161 43.0709 44.8161 42.7605ZM44.8161 46.0909C44.8161 45.7804 45.0678 45.5288 45.3782 45.5288H60.2149C60.5254 45.5288 60.777 45.7804 60.777 46.0909C60.777 46.4014 60.5253 46.653 60.2149 46.653H45.3782C45.0677 46.653 44.8161 46.4014 44.8161 46.0909ZM43.7476 64.5045C43.8506 60.7538 43.8822 56.9729 42.3838 54.9306C41.4331 53.6369 36.5005 48.7569 33.5096 48.7569C33.4598 48.7569 33.4104 48.7582 33.3619 48.7609C33.0443 48.7788 32.7558 48.8541 32.5012 48.9838C32.0215 46.2852 32.0534 42.4033 32.0754 39.7351C32.0777 39.441 32.0802 39.1589 32.0817 38.8911C32.095 36.6023 31.0714 35.5549 30.1038 35.3357C29.1041 35.0705 27.7344 35.3637 26.8642 38.2414C26.0165 41.0445 25.8842 52.5143 26.0785 53.7913C26.4031 55.9036 28.2193 58.013 31.0449 60.7323C31.2927 60.9702 31.5404 61.1936 31.7799 61.4095C32.8398 62.365 33.7012 63.1427 33.8398 64.5046C32.8193 64.5118 31.9913 65.3436 31.9913 66.3658V68.3938C31.9913 69.4204 32.8265 70.2556 33.8531 70.2556H43.7355C44.7621 70.2556 45.5973 69.4204 45.5973 68.3938V66.3658C45.5973 65.3432 44.7685 64.5111 43.7474 64.5045H43.7476ZM32.5328 60.5744C32.2998 60.3644 32.0588 60.1472 31.8243 59.9218C29.7427 57.9186 27.4962 55.6144 27.19 53.6213C27.0045 52.4029 27.1519 41.174 27.9404 38.5668C28.4323 36.94 29.0668 36.2197 29.8229 36.4242C29.8318 36.4266 29.8407 36.4288 29.8498 36.4308C30.4075 36.5527 30.9661 37.3587 30.9574 38.8844C30.9558 39.1512 30.9535 39.4325 30.9511 39.7257C30.9251 42.885 30.8902 47.1816 31.5627 49.9947C30.9609 51.3015 31.9851 53.1519 34.758 55.7828C34.8668 55.8859 35.0061 55.9371 35.1449 55.9371C35.2937 55.9371 35.4424 55.8784 35.5529 55.762C35.7665 55.5368 35.7572 55.1809 35.532 54.9671C32.2533 51.8563 32.4129 50.7178 32.6337 50.3726C32.637 50.3675 32.6396 50.3621 32.6428 50.3568C32.6443 50.3543 32.6462 50.3521 32.6477 50.3495C32.8211 50.0477 33.0608 49.9039 33.4252 49.8833C35.6272 49.7578 40.3931 54.1199 41.4776 55.5959C42.7563 57.3386 42.7172 61.0744 42.6228 64.5038H34.9692C34.8247 62.6409 33.6615 61.5916 32.533 60.5743L32.5328 60.5744ZM44.4731 68.3938C44.4731 68.8004 44.1422 69.1313 43.7356 69.1313H33.8533C33.4466 69.1313 33.1157 68.8004 33.1157 68.3938V66.3658C33.1157 65.9591 33.4466 65.6282 33.8533 65.6282H43.7356C44.1423 65.6282 44.4732 65.9591 44.4732 66.3658V68.3938H44.4731ZM68.1367 38.2414C67.2666 35.3631 65.8956 35.0699 64.8945 35.3356C63.927 35.5549 62.9035 36.6023 62.9167 38.8917C62.9185 39.1418 62.9208 39.4048 62.9231 39.6782C62.9467 42.3626 62.9809 46.2688 62.4992 48.9838C62.2438 48.8538 61.9543 48.7785 61.6358 48.7608C58.6514 48.5966 53.5808 53.6163 52.6172 54.9306C51.1136 56.9762 51.1474 60.7555 51.2531 64.5045C50.2322 64.5113 49.4037 65.3432 49.4037 66.3658V68.3938C49.4037 69.4204 50.2388 70.2556 51.2655 70.2556H61.145C62.1717 70.2556 63.0069 69.4204 63.0069 68.3938V66.3658C63.0069 65.3436 62.1788 64.5119 61.1583 64.5046C61.297 63.1427 62.1584 62.365 63.2183 61.4095C63.4579 61.1936 63.7055 60.9703 63.9534 60.7322C66.7806 58.0144 68.5976 55.9052 68.9196 53.7916C69.1158 52.5201 68.9885 41.058 68.1365 38.2414H68.1367ZM61.8828 66.3658V68.3938C61.8828 68.8004 61.5519 69.1313 61.1452 69.1313H51.2657C50.859 69.1313 50.5281 68.8004 50.5281 68.3938V66.3658C50.5281 65.9591 50.859 65.6282 51.2657 65.6282H61.1452C61.5519 65.6282 61.8828 65.9591 61.8828 66.3658ZM67.8085 53.6212C67.5045 55.6166 65.2571 57.9196 63.1744 59.9215C62.9396 60.1472 62.6987 60.3644 62.4656 60.5744C61.3371 61.5917 60.1739 62.641 60.0293 64.5038H52.3779C52.2814 61.0763 52.2399 57.3422 53.5236 55.5958C54.5905 54.1407 59.2304 49.8808 61.4801 49.8808C61.5116 49.8808 61.5429 49.8817 61.5733 49.8833C61.9389 49.9036 62.1796 50.0475 62.3534 50.35C62.3549 50.3526 62.3569 50.3547 62.3585 50.3574C62.3615 50.3624 62.364 50.3678 62.3673 50.3727C62.5878 50.7174 62.7467 51.855 59.4663 54.9672C59.2411 55.1809 59.2317 55.5368 59.4453 55.762C59.556 55.8785 59.7044 55.9372 59.8533 55.9372C59.9922 55.9372 60.1314 55.886 60.2401 55.7829C63.0141 53.1509 64.0393 51.3005 63.4381 49.9946C64.1126 47.1649 64.075 42.8448 64.0473 39.6682C64.0449 39.3956 64.0426 39.1334 64.0409 38.8845C64.0321 37.3588 64.5908 36.5528 65.1484 36.4309C65.1575 36.4289 65.1664 36.4267 65.1753 36.4243C65.9337 36.2188 66.5685 36.9395 67.0605 38.5669C67.8529 41.1868 67.9958 52.4066 67.8084 53.6212H67.8085Z" fill="white"/>
<defs>
<linearGradient id="paint0_linear_3243_2372" x1="52.592" y1="-6.0847" x2="41.8907" y2="103.068" gradientUnits="userSpaceOnUse">
<stop stop-color="white"/>
<stop offset="1" stop-color="#D7D6D6"/>
</linearGradient>
</defs>
</svg>
