<svg width="95" height="94" viewBox="0 0 95 94" fill="none" xmlns="http://www.w3.org/2000/svg">
<path d="M47.5926 93.8244C73.5016 93.8244 94.4633 72.8211 94.4119 46.9122C94.3604 21.0033 73.3154 0 47.4064 0C21.4975 0 0.535822 21.0033 0.587239 46.9122C0.638656 72.8211 21.6837 93.8244 47.5926 93.8244Z" fill="url(#paint0_linear_3218_8949)"/>
<path d="M6.36914 46.7492C6.36914 24.089 24.8019 5.65625 47.4621 5.65625C70.1224 5.65625 88.5551 24.089 88.5551 46.7492C88.5551 69.4095 70.1224 87.8422 47.4621 87.8422C24.8019 87.8422 6.36914 69.4095 6.36914 46.7492Z" fill="#1EBBD7"/>
<path d="M68.8453 55.2964C68.4629 54.6356 67.8343 54.1531 67.097 53.9547C66.3598 53.7562 65.5739 53.8578 64.9114 54.2373L57.8867 58.2937C57.5031 57.7189 56.9249 57.3019 56.2584 57.1193L45.5087 54.2445C44.6815 54.0213 43.8108 54.0138 42.9798 54.2229L39.1973 55.1668V53.9275C39.1973 53.7364 39.1214 53.5532 38.9862 53.4181C38.8511 53.2829 38.6679 53.207 38.4768 53.207H32.7129C32.5218 53.207 32.3386 53.2829 32.2034 53.4181C32.0683 53.5532 31.9924 53.7364 31.9924 53.9275V54.648H26.949C26.7579 54.648 26.5747 54.7239 26.4395 54.859C26.3044 54.9941 26.2285 55.1774 26.2285 55.3685V65.4553C26.2285 65.6464 26.3044 65.8296 26.4395 65.9648C26.5747 66.0999 26.7579 66.1758 26.949 66.1758H31.9924V66.8963C31.9924 67.0874 32.0683 67.2706 32.2034 67.4057C32.3386 67.5409 32.5218 67.6168 32.7129 67.6168H38.4768C38.6679 67.6168 38.8511 67.5409 38.9862 67.4057C39.1214 67.2706 39.1973 67.0874 39.1973 66.8963V65.902L40.1267 66.3631C40.8274 66.7119 41.5991 66.8944 42.3818 66.8963H53.1675C54.0533 66.8982 54.9236 66.6645 55.6892 66.219L67.7934 59.2303C68.4527 58.8464 68.9334 58.2173 69.1305 57.4803C69.3276 56.7432 69.225 55.9582 68.8453 55.2964ZM31.9924 64.7348H27.6695V56.089H31.9924V64.7348ZM37.7563 66.1758H33.4334V54.648H37.7563V66.1758ZM67.0729 57.9839L54.9687 64.9726C54.4213 65.2894 53.8 65.4559 53.1675 65.4553H42.3818C41.8213 65.4564 41.2685 65.3256 40.7679 65.0734L39.1973 64.2881V56.651L43.3257 55.6207C43.9198 55.4705 44.5425 55.4754 45.1341 55.6351L55.8837 58.517C56.1603 58.5888 56.4091 58.7416 56.5983 58.9557C56.7875 59.1699 56.9084 59.4356 56.9455 59.7189C56.9827 60.0022 56.9344 60.2902 56.8068 60.5459C56.6793 60.8015 56.4783 61.0133 56.2296 61.154C56.0672 61.2498 55.8872 61.3119 55.7003 61.3367C55.5134 61.3614 55.3234 61.3483 55.1416 61.2981L46.5462 58.9925C46.3609 58.9429 46.1634 58.9688 45.9972 59.0648C45.831 59.1607 45.7097 59.3187 45.66 59.5041C45.6104 59.6894 45.6363 59.8869 45.7323 60.0531C45.8282 60.2193 45.9862 60.3406 46.1716 60.3903L54.767 62.6886C55.0114 62.7544 55.2632 62.7883 55.5163 62.7895C56.0204 62.7902 56.5155 62.6559 56.9501 62.4004C57.2794 62.2124 57.568 61.9607 57.7993 61.6602C58.0306 61.3596 58.1999 61.0162 58.2974 60.6497C58.3773 60.332 58.4041 60.0034 58.3766 59.677L65.6319 55.491C65.963 55.3072 66.3525 55.2593 66.7182 55.3575C67.0839 55.4556 67.3971 55.6921 67.5917 56.0169C67.783 56.3467 67.8358 56.7389 67.7386 57.1076C67.6414 57.4762 67.402 57.7913 67.0729 57.9839Z" fill="white"/>
<path d="M35.5955 65.4544C35.7866 65.4544 35.9698 65.3785 36.1049 65.2434C36.2401 65.1083 36.316 64.925 36.316 64.7339V64.0135C36.316 63.8224 36.2401 63.6391 36.1049 63.504C35.9698 63.3689 35.7866 63.293 35.5955 63.293C35.4044 63.293 35.2211 63.3689 35.086 63.504C34.9509 63.6391 34.875 63.8224 34.875 64.0135V64.7339C34.875 64.925 34.9509 65.1083 35.086 65.2434C35.2211 65.3785 35.4044 65.4544 35.5955 65.4544Z" fill="white"/>
<path d="M57.9293 35.1949H55.2274L55.0978 34.8923L57.0142 32.983C57.1492 32.847 57.225 32.6631 57.225 32.4714C57.225 32.2798 57.1492 32.0959 57.0142 31.9599L53.9594 28.905C53.8234 28.7701 53.6395 28.6943 53.4478 28.6943C53.2562 28.6943 53.0723 28.7701 52.9363 28.905L51.027 30.8215L50.7244 30.6918V27.99C50.7244 27.7989 50.6485 27.6157 50.5134 27.4806C50.3783 27.3454 50.195 27.2695 50.0039 27.2695H45.681C45.4899 27.2695 45.3067 27.3454 45.1715 27.4806C45.0364 27.6157 44.9605 27.7989 44.9605 27.99V30.6918L44.6579 30.8215L42.7486 28.905C42.6126 28.7701 42.4287 28.6943 42.2371 28.6943C42.0454 28.6943 41.8616 28.7701 41.7255 28.905L38.6707 31.9599C38.5357 32.0959 38.4599 32.2798 38.4599 32.4714C38.4599 32.6631 38.5357 32.847 38.6707 32.983L40.5872 34.8923L40.4575 35.1949H37.7556C37.5646 35.1949 37.3813 35.2708 37.2462 35.4059C37.1111 35.541 37.0352 35.7243 37.0352 35.9154V40.2383C37.0352 40.4294 37.1111 40.6126 37.2462 40.7478C37.3813 40.8829 37.5646 40.9588 37.7556 40.9588H40.4575L40.5872 41.2614L38.6707 43.1707C38.538 43.3081 38.4631 43.4912 38.4617 43.6822C38.4645 43.8729 38.5391 44.0556 38.6707 44.1938L41.7255 47.2486C41.8629 47.3813 42.0461 47.4561 42.2371 47.4576C42.4278 47.4548 42.6105 47.3802 42.7486 47.2486L44.6579 45.3321L44.9605 45.4618V48.1636C44.9605 48.3547 45.0364 48.538 45.1715 48.6731C45.3067 48.8082 45.4899 48.8841 45.681 48.8841H50.0039C50.195 48.8841 50.3783 48.8082 50.5134 48.6731C50.6485 48.538 50.7244 48.3547 50.7244 48.1636V45.4618L51.027 45.3321L52.9363 47.2486C53.0756 47.3772 53.2583 47.4486 53.4478 47.4486C53.6374 47.4486 53.8201 47.3772 53.9594 47.2486L57.0142 44.1938C57.1458 44.0556 57.2204 43.8729 57.2232 43.6822C57.2218 43.4912 57.147 43.3081 57.0142 43.1707L55.0978 41.2614L55.2274 40.9588H57.9293C58.1204 40.9588 58.3036 40.8829 58.4387 40.7478C58.5738 40.6126 58.6498 40.4294 58.6498 40.2383V35.9154C58.6498 35.7243 58.5738 35.541 58.4387 35.4059C58.3036 35.2708 58.1204 35.1949 57.9293 35.1949ZM57.2088 39.5178H54.7159C54.564 39.5179 54.416 39.5661 54.293 39.6553C54.1701 39.7446 54.0785 39.8705 54.0314 40.0149C53.92 40.3769 53.7728 40.7269 53.5919 41.0596C53.5185 41.197 53.4907 41.3542 53.5128 41.5084C53.5348 41.6626 53.6054 41.8057 53.7144 41.917L55.4868 43.6822L53.4478 45.7212L51.6826 43.9488C51.5714 43.8398 51.4282 43.7692 51.274 43.7472C51.1198 43.7251 50.9626 43.7529 50.8253 43.8263C50.4925 44.0072 50.1425 44.1544 49.7806 44.2658C49.6361 44.3129 49.5103 44.4045 49.421 44.5274C49.3317 44.6503 49.2835 44.7983 49.2834 44.9503V47.4432H46.4015V44.9503C46.4014 44.7983 46.3532 44.6503 46.2639 44.5274C46.1747 44.4045 46.0488 44.3129 45.9043 44.2658C45.5424 44.1544 45.1924 44.0072 44.8596 43.8263C44.7223 43.7529 44.5651 43.7251 44.4109 43.7472C44.2567 43.7692 44.1136 43.8398 44.0023 43.9488L42.2371 45.7212L40.1981 43.6822L41.9705 41.917C42.0795 41.8057 42.1501 41.6626 42.1721 41.5084C42.1942 41.3542 42.1664 41.197 42.093 41.0596C41.9121 40.7269 41.7649 40.3769 41.6535 40.0149C41.6064 39.8705 41.5148 39.7446 41.3919 39.6553C41.269 39.5661 41.1209 39.5179 40.969 39.5178H38.4761V36.6359H40.969C41.1209 36.6357 41.269 36.5876 41.3919 36.4983C41.5148 36.409 41.6064 36.2832 41.6535 36.1387C41.7649 35.7767 41.9121 35.4268 42.093 35.094C42.1664 34.9567 42.1942 34.7995 42.1721 34.6453C42.1501 34.4911 42.0795 34.3479 41.9705 34.2366L40.1981 32.4714L42.2371 30.4325L44.0023 32.2049C44.1136 32.3138 44.2567 32.3845 44.4109 32.4065C44.5651 32.4285 44.7223 32.4008 44.8596 32.3273C45.1924 32.1465 45.5424 31.9993 45.9043 31.8879C46.0488 31.8408 46.1747 31.7492 46.2639 31.6263C46.3532 31.5033 46.4014 31.3553 46.4015 31.2034V28.7105H49.2834V31.2034C49.2835 31.3553 49.3317 31.5033 49.421 31.6263C49.5103 31.7492 49.6361 31.8408 49.7806 31.8879C50.1425 31.9993 50.4925 32.1465 50.8253 32.3273C50.9626 32.4008 51.1198 32.4285 51.274 32.4065C51.4282 32.3845 51.5714 32.3138 51.6826 32.2049L53.4478 30.4325L55.4868 32.4714L53.7144 34.2366C53.6054 34.3479 53.5348 34.4911 53.5128 34.6453C53.4907 34.7995 53.5185 34.9567 53.5919 35.094C53.7728 35.4268 53.92 35.7767 54.0314 36.1387C54.0785 36.2832 54.1701 36.409 54.293 36.4983C54.416 36.5876 54.564 36.6357 54.7159 36.6359H57.2088V39.5178Z" fill="white"/>
<path d="M52.1654 38.0768C52.1654 37.2218 51.9118 36.386 51.4368 35.6751C50.9618 34.9642 50.2867 34.4102 49.4968 34.083C48.7069 33.7558 47.8377 33.6702 46.9991 33.837C46.1605 34.0038 45.3903 34.4155 44.7857 35.0201C44.1811 35.6246 43.7694 36.3949 43.6026 37.2335C43.4358 38.072 43.5214 38.9412 43.8486 39.7311C44.1758 40.521 44.7299 41.1962 45.4408 41.6712C46.1517 42.1462 46.9875 42.3997 47.8425 42.3997C48.9886 42.3986 50.0875 41.9428 50.898 41.1323C51.7084 40.3219 52.1642 39.223 52.1654 38.0768ZM44.9605 38.0768C44.9605 37.5068 45.1295 36.9496 45.4462 36.4757C45.7629 36.0018 46.213 35.6324 46.7396 35.4143C47.2662 35.1961 47.8456 35.1391 48.4047 35.2503C48.9637 35.3615 49.4772 35.6359 49.8803 36.039C50.2833 36.442 50.5578 36.9555 50.669 37.5146C50.7802 38.0736 50.7232 38.6531 50.505 39.1797C50.2869 39.7063 49.9175 40.1564 49.4436 40.4731C48.9696 40.7898 48.4124 40.9588 47.8425 40.9588C47.0781 40.9588 46.3451 40.6551 45.8046 40.1147C45.2641 39.5742 44.9605 38.8412 44.9605 38.0768Z" fill="white"/>
<path d="M64.4145 39.5169H62.9735C62.9735 35.5042 61.3795 31.6557 58.542 28.8183C55.7045 25.9808 51.8561 24.3867 47.8433 24.3867C43.8305 24.3867 39.9821 25.9808 37.1446 28.8183C34.3072 31.6557 32.7131 35.5042 32.7131 39.5169H31.2721C30.1256 39.5169 29.0261 39.9724 28.2154 40.7831C27.4047 41.5938 26.9492 42.6933 26.9492 43.8399C26.9492 44.9864 27.4047 46.0859 28.2154 46.8966C29.0261 47.7073 30.1256 48.1628 31.2721 48.1628H34.8746C35.0657 48.1628 35.2489 48.0869 35.384 47.9518C35.5191 47.8166 35.5951 47.6334 35.5951 47.4423V40.2374C35.5951 40.0463 35.5191 39.8631 35.384 39.728C35.2489 39.5928 35.0657 39.5169 34.8746 39.5169H34.1541C34.1541 35.8863 35.5963 32.4044 38.1636 29.8372C40.7308 27.2699 44.2127 25.8277 47.8433 25.8277C51.4739 25.8277 54.9559 27.2699 57.5231 29.8372C60.0903 32.4044 61.5326 35.8863 61.5326 39.5169H60.8121C60.621 39.5169 60.4377 39.5928 60.3026 39.728C60.1675 39.8631 60.0916 40.0463 60.0916 40.2374V47.4423C60.0916 47.6334 60.1675 47.8166 60.3026 47.9518C60.4377 48.0869 60.621 48.1628 60.8121 48.1628H61.5326V50.3242C61.5326 50.5153 61.4567 50.6986 61.3215 50.8337C61.1864 50.9688 61.0032 51.0447 60.8121 51.0447H55.639C55.4894 50.6249 55.2142 50.2613 54.8506 50.0034C54.4871 49.7456 54.0529 49.606 53.6072 49.6037H52.1662C51.593 49.6037 51.0432 49.8315 50.6379 50.2368C50.2325 50.6422 50.0048 51.192 50.0048 51.7652C50.0048 52.3385 50.2325 52.8882 50.6379 53.2936C51.0432 53.6989 51.593 53.9267 52.1662 53.9267H53.6072C54.0529 53.9244 54.4871 53.7848 54.8506 53.527C55.2142 53.2691 55.4894 52.9056 55.639 52.4857H60.8121C61.3848 52.484 61.9336 52.2557 62.3386 51.8507C62.7436 51.4457 62.9718 50.897 62.9735 50.3242V48.1628H64.4145C65.561 48.1628 66.6606 47.7073 67.4713 46.8966C68.282 46.0859 68.7374 44.9864 68.7374 43.8399C68.7374 42.6933 68.282 41.5938 67.4713 40.7831C66.6606 39.9724 65.561 39.5169 64.4145 39.5169ZM31.2721 46.7218C30.5078 46.7218 29.7748 46.4182 29.2343 45.8777C28.6938 45.3372 28.3902 44.6042 28.3902 43.8399C28.3902 43.0755 28.6938 42.3425 29.2343 41.802C29.7748 41.2615 30.5078 40.9579 31.2721 40.9579V46.7218ZM34.1541 46.7218H32.7131V40.9579H34.1541V46.7218ZM53.6072 52.4857H52.1662C51.9752 52.4857 51.7919 52.4098 51.6568 52.2747C51.5217 52.1396 51.4458 51.9563 51.4458 51.7652C51.4458 51.5741 51.5217 51.3909 51.6568 51.2557C51.7919 51.1206 51.9752 51.0447 52.1662 51.0447H53.6072C53.7983 51.0447 53.9816 51.1206 54.1167 51.2557C54.2518 51.3909 54.3277 51.5741 54.3277 51.7652C54.3277 51.9563 54.2518 52.1396 54.1167 52.2747C53.9816 52.4098 53.7983 52.4857 53.6072 52.4857ZM62.9735 46.7218H61.5326V40.9579H62.9735V46.7218ZM64.4145 46.7218V40.9579C65.1789 40.9579 65.9119 41.2615 66.4524 41.802C66.9928 42.3425 67.2965 43.0755 67.2965 43.8399C67.2965 44.6042 66.9928 45.3372 66.4524 45.8777C65.9119 46.4182 65.1789 46.7218 64.4145 46.7218Z" fill="white"/>
<defs>
<linearGradient id="paint0_linear_3218_8949" x1="52.592" y1="-6.0847" x2="41.8907" y2="103.068" gradientUnits="userSpaceOnUse">
<stop stop-color="white"/>
<stop offset="1" stop-color="#D7D6D6"/>
</linearGradient>
</defs>
</svg>
