<svg xmlns="http://www.w3.org/2000/svg" width="95" height="94" viewBox="0 0 95 94" fill="none">
  <path d="M47.0985 93.8244C73.0075 93.8244 93.9691 72.8211 93.9177 46.9122C93.8663 21.0033 72.8213 0 46.9123 0C21.0034 0 0.0416817 21.0033 0.0930987 46.9122C0.144516 72.8211 21.1896 93.8244 47.0985 93.8244Z" fill="url(#paint0_linear_365_9999)"/>
  <path d="M5.58936 46.7502C5.58936 24.09 24.1852 5.65723 47.046 5.65723C69.9068 5.65723 88.5026 24.09 88.5026 46.7502C88.5026 69.4104 69.9068 87.8432 47.046 87.8432C24.1852 87.8432 5.58936 69.4104 5.58936 46.7502Z" fill="#47ACD3"/>
  <path d="M47.0442 35.4775C41.9052 35.4775 38.3184 38.6847 38.3184 43.2771C38.3184 46.6357 40.5165 50.2793 41.4597 51.6899C41.8013 52.1986 42.1132 53.5225 42.2171 54.511C42.2988 55.2686 42.9375 55.8422 43.7061 55.8422H50.3823C51.1472 55.8422 51.7859 55.2686 51.8713 54.511C51.9753 53.5262 52.2909 52.1986 52.6325 51.6899C53.5756 50.2793 55.7738 46.6321 55.7738 43.2771C55.7738 38.6847 52.1869 35.4775 47.0479 35.4775H47.0442ZM45.481 45.4308C45.8374 45.4308 46.1271 45.7843 46.1271 46.2208C46.1271 46.6574 45.8374 47.0109 45.481 47.0109C45.1245 47.0109 44.8312 46.6574 44.8312 46.2208C44.8312 45.7843 45.1208 45.4308 45.481 45.4308ZM44.2965 46.2208C44.2965 46.9424 44.8275 47.5304 45.481 47.5304C46.1345 47.5304 46.6655 46.9424 46.6655 46.2208C46.6655 45.5859 46.257 45.0592 45.7149 44.9366C45.8337 44.7454 46.1939 44.3305 47.0442 44.3305C47.8945 44.3305 48.2547 44.749 48.3735 44.9366C47.8314 45.0556 47.4229 45.5859 47.4229 46.2208C47.4229 46.9424 47.9539 47.5304 48.6074 47.5304C49.2609 47.5304 49.7919 46.9424 49.7919 46.2208C49.7919 45.6797 49.4949 45.2143 49.0716 45.0159C49.6137 44.6552 50.0964 44.7634 50.3526 44.8788C50.8427 45.0953 51.1992 45.6003 51.1992 46.0838C51.1992 47.0073 50.0444 48.4792 49.1978 49.5506C49.0493 49.7418 48.9082 49.9222 48.782 50.0882C48.3735 50.6221 48.1507 51.2859 48.1507 51.9605V54.1467H45.9451V51.9605C45.9451 51.2895 45.7186 50.6221 45.3139 50.0882C45.1876 49.9222 45.0465 49.7418 44.8943 49.5506C44.0514 48.4756 42.8929 47.0037 42.8929 46.0838C42.8929 45.6003 43.2494 45.0953 43.7432 44.8788C43.9957 44.767 44.4822 44.6552 45.0243 45.0159C44.601 45.2143 44.3002 45.6797 44.3002 46.2208H44.2965ZM48.6074 45.4308C48.9639 45.4308 49.2535 45.7843 49.2535 46.2208C49.2535 46.6574 48.9639 47.0109 48.6074 47.0109C48.251 47.0109 47.9576 46.6574 47.9576 46.2208C47.9576 45.7843 48.2473 45.4308 48.6074 45.4308ZM51.1658 50.7592C50.5123 51.7368 50.2338 53.5262 50.1558 54.1394H48.73V51.9533C48.73 51.4013 48.9156 50.8566 49.2498 50.42C49.3761 50.2541 49.5134 50.0773 49.662 49.8897C50.6051 48.6884 51.7822 47.1913 51.7822 46.0765C51.7822 45.3731 51.292 44.666 50.594 44.3557C49.9999 44.0924 49.3538 44.1501 48.7857 44.5109C48.5406 44.1934 48.0245 43.7569 47.0479 43.7569C46.0714 43.7569 45.5553 44.1934 45.3102 44.5109C44.7421 44.1537 44.0997 44.0924 43.5019 44.3557C42.8001 44.666 42.31 45.3731 42.31 46.0765C42.31 47.1913 43.4833 48.6848 44.4302 49.8897C44.5787 50.0773 44.7161 50.2577 44.8423 50.42C45.1765 50.8566 45.3622 51.4049 45.3622 51.9533V54.1394H43.9363C43.8175 53.2015 43.4982 51.6105 42.9263 50.7592C42.0649 49.4749 40.0672 46.1776 40.0672 43.2735C40.0672 39.6803 42.9375 37.1731 47.0479 37.1731C51.1584 37.1731 54.0249 39.6803 54.0249 43.2735C54.0249 46.1739 52.0272 49.4749 51.1658 50.7592Z" fill="white"/>
  <path d="M45.0035 66.2397C46.2424 66.9218 47.85 66.9218 49.0889 66.2397C49.693 65.9056 50.2903 65.3802 50.6828 64.5693H43.4097C43.8022 65.3802 44.3994 65.9091 45.0035 66.2397Z" fill="white"/>
  <path d="M42.6858 62.1583C42.6858 62.5036 42.7149 62.8148 42.7587 63.1145H51.3369C51.3807 62.8186 51.4098 62.5036 51.4098 62.1583V60.9326H42.6821V62.1583H42.6858Z" fill="white"/>
  <path d="M42.6821 59.4788H51.4098V57.2969H42.6821V59.4788Z" fill="white"/>
  <path d="M39.2126 34.2349C39.428 34.569 39.7741 34.7494 40.1201 34.7494C40.3391 34.7494 40.5615 34.6803 40.7558 34.5306C41.2572 34.1504 41.3773 33.3979 41.0277 32.8526L37.4258 27.2621C37.0726 26.7169 36.3805 26.5863 35.8826 26.9665C35.3812 27.3466 35.2576 28.0992 35.6107 28.6444L39.2126 34.2349Z" fill="white"/>
  <path d="M34.9743 42.0233C35.5033 42.0233 35.9805 41.6763 36.1063 41.1629C36.2506 40.5646 35.8622 39.9698 35.237 39.8317L28.8297 38.4155C28.2008 38.2774 27.5831 38.6492 27.4388 39.2475C27.2945 39.8459 27.6829 40.4407 28.3081 40.5787L34.7154 41.9949C34.8042 42.0126 34.8892 42.0233 34.978 42.0233H34.9743Z" fill="white"/>
  <path d="M36.3887 49.5328L30.818 53.6226C30.2756 54.0218 30.1555 54.7889 30.5507 55.3368C30.787 55.6695 31.1589 55.8417 31.5347 55.8417C31.7826 55.8417 32.0344 55.7673 32.2475 55.6069L37.8182 51.517C38.3605 51.1178 38.4806 50.3508 38.0855 49.8028C37.6903 49.2549 36.9272 49.1297 36.3848 49.5328H36.3887Z" fill="white"/>
  <path d="M53.3367 34.5306C53.531 34.6765 53.7536 34.7494 53.9726 34.7494C54.3223 34.7494 54.6649 34.569 54.8803 34.2349L58.4832 28.6444C58.8329 28.0992 58.7128 27.3466 58.2112 26.9665C57.7096 26.5863 57.0173 26.7169 56.6676 27.2621L53.0648 32.8526C52.7151 33.3979 52.8352 34.1504 53.3367 34.5306Z" fill="white"/>
  <path d="M66.6532 39.2475C66.5089 38.6492 65.8874 38.2774 65.2622 38.4155L58.855 39.8317C58.2298 39.9698 57.8414 40.5681 57.9857 41.1629C58.1077 41.6763 58.5886 42.0233 59.1139 42.0233C59.199 42.0233 59.2878 42.0126 59.3766 41.9949L65.7838 40.5787C66.409 40.4407 66.7975 39.8459 66.6532 39.2475Z" fill="white"/>
  <path d="M62.5959 53.622L57.5316 49.5312C57.0386 49.1319 56.3448 49.2532 55.9856 49.8013C55.6264 50.3493 55.7355 51.1205 56.2286 51.5159L61.2928 55.6068C61.4901 55.7673 61.7154 55.8417 61.9408 55.8417C62.2824 55.8417 62.6205 55.6655 62.8354 55.3367C63.1946 54.7886 63.0854 54.0174 62.5924 53.622H62.5959Z" fill="white"/>
  <defs>
    <linearGradient id="paint0_linear_365_9999" x1="52.0979" y1="-6.08466" x2="41.3966" y2="103.068" gradientUnits="userSpaceOnUse">
      <stop stop-color="white"/>
      <stop offset="1" stop-color="#D7D6D6"/>
    </linearGradient>
  </defs>
</svg>