<svg width="24" height="24" viewBox="0 0 24 24" fill="none" xmlns="http://www.w3.org/2000/svg">
<path d="M12 24C18.6274 24 24 18.6274 24 12C24 5.37258 18.6274 0 12 0C5.37258 0 0 5.37258 0 12C0 18.6274 5.37258 24 12 24Z" fill="#666AE5"/>
<mask id="mask0_1_3202" style="mask-type:luminance" maskUnits="userSpaceOnUse" x="5" y="5" width="14" height="14">
<path d="M18.1255 5.97363H5.87256V18.0235H18.1255V5.97363Z" fill="white"/>
</mask>
<g mask="url(#mask0_1_3202)">
<path d="M10.1333 13.1767L17.5752 6.069C17.6321 6.01023 17.7092 5.97525 17.7909 5.97112C17.8726 5.96698 17.9529 5.994 18.0154 6.04673C18.078 6.09945 18.1182 6.17395 18.128 6.25518C18.1378 6.33641 18.1164 6.41832 18.0681 6.48439L10.4287 17.8733C10.3973 17.9213 10.3545 17.9607 10.304 17.988C10.2536 18.0153 10.1972 18.0296 10.1398 18.0296C10.0825 18.0296 10.026 18.0153 9.97557 17.988C9.92512 17.9607 9.88227 17.9213 9.85088 17.8733L5.92411 11.6868C5.88548 11.6269 5.86775 11.5559 5.87368 11.4849C5.87962 11.4138 5.90888 11.3467 5.95692 11.2941C6.00496 11.2414 6.06908 11.2061 6.13928 11.1936C6.20948 11.1812 6.28182 11.1923 6.34503 11.2253L10.1333 13.1767Z" fill="white"/>
</g>
</svg>
