<svg xmlns="http://www.w3.org/2000/svg" width="33" height="44" viewBox="0 0 33 44" fill="none">
  <path d="M26.6387 22C16.7304 22.1441 16.6146 22.2599 16.4705 32.1682C16.3263 22.2599 16.2105 22.1441 6.30225 22C16.2105 21.8558 16.3263 21.7401 16.4705 11.8318C16.6146 21.7401 16.7304 21.8558 26.6387 22Z" fill="black"/>
  <path d="M16.4705 32.9409L0 16.4705L16.4705 0L32.9409 16.4705L16.4705 32.9409ZM1.03738 16.4705L16.4728 31.9059L31.9083 16.4705L16.4705 1.03738L1.03738 16.4705Z" fill="black"/>
  <path d="M16.4705 44L0 27.5295L16.4705 11.0591L32.9409 27.5295L16.4705 44ZM1.03738 27.5295L16.4728 42.965L31.9083 27.5295L16.4705 12.0941L1.03738 27.5295Z" fill="black"/>
</svg>