<svg width="114" height="114" viewBox="0 0 114 114" fill="none" xmlns="http://www.w3.org/2000/svg">
<g id="Group 139349">
<g id="Group 744">
<g id="Group 743">
<path id="Path 735" d="M93.6107 92.1691C114.649 70.3941 118.533 41.8961 100.572 36.2421C99.7732 35.9823 98.9212 35.9343 98.0985 36.1027C97.2759 36.2712 96.5109 36.6503 95.8788 37.2031C90.0668 42.3911 86.9407 55.1631 88.2577 61.0091C88.3792 61.5498 88.653 62.0444 89.0468 62.4343C89.4406 62.8242 89.938 63.0931 90.4799 63.2092C92.1784 63.541 93.9041 63.7121 95.6347 63.7202C95.9006 63.723 96.1625 63.7869 96.3998 63.907C96.6371 64.0271 96.8435 64.2002 97.0033 64.4128C97.1632 64.6254 97.2722 64.8719 97.3217 65.1332C97.3711 65.3946 97.3601 65.6638 97.289 65.9201C95.413 72.3781 91.1199 78.8491 85.6889 84.5601C80.1989 90.2101 73.9047 94.7601 67.5267 96.8901C67.2734 96.9717 67.0045 96.994 66.7411 96.9551C66.4778 96.9163 66.2272 96.8175 66.0082 96.6662C65.7892 96.5149 65.6075 96.3152 65.4779 96.0827C65.3483 95.8502 65.274 95.591 65.2606 95.3251C65.1836 93.5964 64.944 91.8789 64.5448 90.1951C64.4071 89.658 64.1185 89.1714 63.7128 88.7934C63.3071 88.4153 62.8013 88.1616 62.2558 88.0621C56.3618 86.9791 43.7258 90.6121 38.7738 96.6271C38.2467 97.2809 37.8984 98.0603 37.7631 98.8891C37.6277 99.7179 37.71 100.568 38.0018 101.355C44.3738 119.079 72.6947 114.059 93.6107 92.1691Z" stroke="#141414" stroke-width="3" stroke-miterlimit="10" stroke-linecap="round"/>
</g>
</g>
<g id="Group 746">
<g id="Group 745">
<path id="Path 736" d="M24.6553 42.4072C24.6553 39.4479 25.8313 36.6099 27.9238 34.5173C30.0164 32.4248 32.8542 31.2493 35.8135 31.2493C36.0061 31.2493 36.1977 31.2539 36.3877 31.2632C44.3437 31.6632 48.4977 41.0202 43.6987 47.3782C39.5107 52.9252 32.6514 60.4342 25.8984 67.8682C25.7929 67.985 25.7233 68.1299 25.6982 68.2853C25.6732 68.4407 25.6939 68.6 25.7573 68.744C25.8207 68.8881 25.9241 69.0107 26.0557 69.0972C26.1872 69.1836 26.3411 69.2301 26.4985 69.2312H46.9717" stroke="#141414" stroke-width="3" stroke-miterlimit="10" stroke-linecap="round"/>
<path id="Path 737" d="M73.2194 69.2311V31.7631C73.2198 31.7253 73.2083 31.6884 73.1867 31.6575C73.165 31.6265 73.1344 31.6033 73.0988 31.5907C73.0632 31.5781 73.0247 31.5769 72.9884 31.5874C72.9522 31.5979 72.92 31.6195 72.8966 31.6492L52.6764 56.8491C52.6537 56.8758 52.6395 56.9085 52.6349 56.9432C52.6303 56.978 52.6355 57.0134 52.6505 57.045C52.6655 57.0767 52.6896 57.1034 52.7194 57.1218C52.7492 57.1403 52.7835 57.1498 52.8185 57.1492H77.6066" stroke="#141414" stroke-width="3" stroke-miterlimit="10" stroke-linecap="round"/>
</g>
</g>
<path id="Path 738" d="M30.896 94.5482C22.3242 90.7762 15.0312 84.5978 9.90137 76.7627C4.77154 68.9275 2.02536 59.7723 1.99609 50.4072C1.99609 23.6732 23.9621 2.00024 51.0591 2.00024C60.1663 1.97181 69.1023 4.47519 76.8691 9.23095C84.636 13.9867 90.928 20.8076 95.043 28.9321" stroke="#141414" stroke-width="3" stroke-miterlimit="10" stroke-linecap="round"/>
<path id="Line 56" d="M51.064 2.00024V7.42524" stroke="#141414" stroke-width="3" stroke-miterlimit="10" stroke-linecap="round"/>
<path id="Line 57" d="M26.8511 8.49121L29.5651 13.1882" stroke="#141414" stroke-width="3" stroke-miterlimit="10" stroke-linecap="round"/>
<path id="Line 58" d="M9.13086 26.2231L13.8299 28.9331" stroke="#141414" stroke-width="3" stroke-miterlimit="10" stroke-linecap="round"/>
<path id="Line 59" d="M2.65723 50.441L8.08223 50.437" stroke="#141414" stroke-width="3" stroke-miterlimit="10" stroke-linecap="round"/>
<path id="Line 60" d="M9.16504 74.6503L13.861 71.9333" stroke="#141414" stroke-width="3" stroke-miterlimit="10" stroke-linecap="round"/>
<path id="Line 61" d="M26.9092 92.3563L29.6162 87.6553" stroke="#141414" stroke-width="3" stroke-miterlimit="10" stroke-linecap="round"/>
<path id="Line 62" d="M92.9293 26.1062L88.2373 28.8292" stroke="#141414" stroke-width="3" stroke-miterlimit="10" stroke-linecap="round"/>
<path id="Line 63" d="M75.16 8.42432L72.46 13.1293" stroke="#141414" stroke-width="3" stroke-miterlimit="10" stroke-linecap="round"/>
</g>
</svg>
