<svg width="17" height="18" viewBox="0 0 17 18" fill="none" xmlns="http://www.w3.org/2000/svg">
<path d="M2.90915 8.43164H13.9276C14.3443 8.43299 14.7435 8.59946 15.0376 8.89458C15.3318 9.1897 15.497 9.58939 15.497 10.0061V15.5153C15.497 15.9329 15.3311 16.3333 15.0358 16.6286C14.7406 16.9239 14.3401 17.0897 13.9225 17.0897H2.90915C2.49158 17.0897 2.09112 16.9239 1.79586 16.6286C1.50059 16.3333 1.33472 15.9329 1.33472 15.5153V10.0061C1.33472 9.79932 1.37544 9.59458 1.45456 9.40356C1.53369 9.21255 1.64966 9.03898 1.79586 8.89278C1.94206 8.74658 2.11562 8.63061 2.30664 8.55149C2.49766 8.47237 2.70239 8.43164 2.90915 8.43164Z" stroke="#757575" stroke-width="1.2" stroke-linecap="round" stroke-linejoin="round"/>
<path d="M4.48535 8.43099V5.28213C4.48535 4.23838 4.89998 3.23738 5.63802 2.49934C6.37606 1.76131 7.37705 1.34668 8.4208 1.34668C9.46454 1.34668 10.4655 1.76131 11.2036 2.49934C11.9416 3.23738 12.3562 4.23838 12.3562 5.28213V8.43099" stroke="#757575" stroke-width="1.2" stroke-linecap="round" stroke-linejoin="round"/>
</svg>
