<svg width="69" height="19" viewBox="0 0 69 19" fill="none" xmlns="http://www.w3.org/2000/svg">
<g id="Slider Pattern">
<g id="XXX">
<path id="Vector" d="M65.53 18.69L68.94 15.28L63.01 9.34L68.94 3.41L65.53 0L59.6 5.93L53.67 0L50.25 3.41L56.19 9.34L50.25 15.28L53.67 18.69L59.6 12.76L65.53 18.69Z" fill="#202020"/>
<path id="Vector_2" d="M43.8099 15.28L37.8799 9.34L43.8099 3.41L40.3999 0L34.4699 5.93L28.5399 0L25.1299 3.41L31.0599 9.34L25.1299 15.28L28.5399 18.69L34.4699 12.76L40.3999 18.69L43.8099 15.28Z" fill="#202020"/>
<path id="Vector_3" d="M18.69 15.28L12.76 9.34L18.69 3.41L15.28 0L9.34 5.93L3.41 0L0 3.41L5.93 9.34L0 15.28L3.41 18.69L9.34 12.76L15.28 18.69L18.69 15.28Z" fill="#202020"/>
</g>
</g>
</svg>
