<svg xmlns="http://www.w3.org/2000/svg" width="33" height="44" viewBox="0 0 33 44" fill="none">
  <path d="M26.6385 22.0002C16.7302 22.1444 16.6144 22.2602 16.4703 32.1684C16.3261 22.2602 16.2103 22.1444 6.30206 22.0002C16.2103 21.8561 16.3261 21.7403 16.4703 11.832C16.6144 21.7403 16.7302 21.8561 26.6385 22.0002Z" fill="black"/>
  <path d="M16.4705 32.9409L0 16.4705L16.4705 0L32.9409 16.4705L16.4705 32.9409ZM1.03738 16.4705L16.4728 31.9059L31.9083 16.4705L16.4705 1.03738L1.03738 16.4705Z" fill="black"/>
  <path d="M16.4705 44L0 27.5295L16.4705 11.0591L32.9409 27.5295L16.4705 44ZM1.03738 27.5295L16.4728 42.965L31.9083 27.5295L16.4705 12.0941L1.03738 27.5295Z" fill="black"/>
</svg>