<svg xmlns="http://www.w3.org/2000/svg" width="39" height="46" viewBox="0 0 39 46" fill="none">
  <path d="M19.6486 17.8653C19.5784 17.8653 19.5113 17.847 19.4502 17.8135L5.09477 9.81631C4.96657 9.74624 4.88721 9.6122 4.88416 9.46596C4.88416 9.31973 4.95741 9.18264 5.08256 9.10952L18.971 0.838181C19.0962 0.762018 19.2518 0.762018 19.38 0.832088L33.7324 8.83228C33.8606 8.90236 33.94 9.0364 33.943 9.18264C33.943 9.32887 33.8698 9.46596 33.7416 9.53908L19.8562 17.8043C19.7921 17.8439 19.7188 17.8622 19.6456 17.8622L19.6486 17.8653ZM6.11427 9.44768L19.6395 16.9848L32.7129 9.20396L19.1877 1.66075L6.11427 9.44768Z" fill="black"/>
  <path d="M19.6485 12.2353C19.5783 12.2353 19.5111 12.217 19.4501 12.1835L9.98149 6.90688C9.85329 6.83681 9.77393 6.70276 9.77087 6.55652C9.77087 6.41029 9.84413 6.2732 9.97233 6.20008L18.9708 0.838181C19.096 0.762018 19.2516 0.762018 19.3798 0.832088L28.8454 6.10868C28.9736 6.17875 29.0529 6.3128 29.056 6.45903C29.056 6.60527 28.9827 6.74236 28.8545 6.81548L19.856 12.1743C19.7919 12.2139 19.7187 12.2322 19.6454 12.2322L19.6485 12.2353ZM10.9979 6.53824L19.6424 11.3548L27.8289 6.48036L19.1875 1.66075L10.9979 6.5352V6.53824Z" fill="black"/>
  <path d="M19.648 6.2671C19.5778 6.2671 19.5107 6.24882 19.4466 6.21531L15.1549 3.82378C15.0267 3.75371 14.9473 3.61967 14.9443 3.47343C14.9443 3.3272 15.0175 3.1901 15.1457 3.11699L18.9704 0.838181C19.0955 0.762018 19.2512 0.762018 19.3794 0.832088L23.6711 3.22362C23.7993 3.29369 23.8787 3.42773 23.8817 3.57397C23.8817 3.7202 23.8085 3.8573 23.6803 3.93041L19.8556 6.20617C19.7915 6.24578 19.7182 6.26406 19.645 6.26406L19.648 6.2671ZM16.1744 3.45211L19.6389 5.38361L22.6516 3.59225L19.1871 1.66075L16.1744 3.45211Z" fill="black"/>
  <path d="M19.4927 23.413C19.4225 23.413 19.3553 23.3947 19.2912 23.3612L0.210616 12.7227C0.0824149 12.6526 0.0030524 12.5186 0 12.3724C0 12.2261 0.0732577 12.089 0.201459 12.0159L18.9707 0.838181C19.0958 0.762018 19.2515 0.762018 19.3797 0.832088L38.4603 11.4675C38.5885 11.5376 38.6679 11.6717 38.6709 11.8179C38.6709 11.9641 38.5977 12.1012 38.4695 12.1743L19.7002 23.349C19.6361 23.3886 19.5629 23.4069 19.4896 23.4069L19.4927 23.413ZM1.23012 12.3541L19.4866 22.5295L37.4438 11.8392L19.1874 1.66075L1.23012 12.3541Z" fill="black"/>
  <path d="M19.804 45.2199C19.7338 45.2199 19.6666 45.2017 19.6025 45.1682L0.521961 34.5327C0.39376 34.4626 0.314398 34.3286 0.311345 34.1824L0 12.3722C0 12.226 0.0732577 12.0889 0.201459 12.0158C0.326607 11.9427 0.48228 11.9396 0.610481 12.0097L19.6911 22.6451C19.8193 22.7152 19.8986 22.8493 19.9017 22.9955L20.213 44.8056C20.213 44.9518 20.1398 45.0889 20.0116 45.1621C19.9475 45.2017 19.8742 45.2199 19.801 45.2199H19.804ZM1.12939 33.9356L19.3828 44.111L19.0836 23.2453L0.830254 13.0699L1.12939 33.9356Z" fill="black"/>
  <path d="M19.8044 45.2201C19.7341 45.2201 19.667 45.2018 19.6029 45.1683C19.4747 45.0983 19.3953 44.9642 19.3923 44.818L19.0809 23.0078C19.0809 22.8616 19.1542 22.7245 19.2824 22.6514L38.0516 11.4767C38.1768 11.4036 38.3325 11.4006 38.4607 11.4706C38.5889 11.5407 38.6682 11.6747 38.6713 11.821L38.9826 33.6311C38.9826 33.7773 38.9094 33.9144 38.7812 33.9876L20.0119 45.1622C19.9478 45.2018 19.8746 45.2201 19.8013 45.2201H19.8044ZM19.9051 23.2302L20.2042 44.0959L38.1615 33.4057L37.8624 12.54L19.9051 23.2302Z" fill="black"/>
  <path d="M24.5781 42.3777C24.3523 42.3777 24.1691 42.1949 24.1691 41.9694V25.835C24.1691 25.6918 24.2424 25.5608 24.3645 25.4846L38.1278 17.1036C38.3201 16.9848 38.5734 17.0458 38.6925 17.2407C38.8115 17.4327 38.7505 17.6855 38.5551 17.8043L24.9872 26.0635V41.9664C24.9872 42.1918 24.804 42.3746 24.5781 42.3746V42.3777Z" fill="black"/>
  <path d="M24.5781 42.3777C24.3523 42.3777 24.1691 42.1949 24.1691 41.9694V25.835C24.1691 25.6918 24.2424 25.5608 24.3645 25.4846L38.1278 17.1036C38.3201 16.9848 38.5734 17.0458 38.6925 17.2407C38.8115 17.4327 38.7505 17.6855 38.5551 17.8043L24.9872 26.0635V41.9664C24.9872 42.1918 24.804 42.3746 24.5781 42.3746V42.3777Z" fill="black"/>
  <path d="M30.2069 39.0262C29.981 39.0262 29.7979 38.8434 29.7979 38.6179V28.6801C29.7979 28.537 29.8711 28.406 29.9932 28.3298L38.2164 23.3243C38.4087 23.2055 38.662 23.2665 38.7811 23.4614C38.9001 23.6534 38.8391 23.9062 38.6437 24.025L30.6189 28.9117V38.6179C30.6189 38.8434 30.4358 39.0262 30.2099 39.0262H30.2069Z" fill="black"/>
  <path d="M35.0507 36.1411C34.8249 36.1411 34.6417 35.9583 34.6417 35.7328V31.3824C34.6417 31.2392 34.715 31.1082 34.8371 31.032L38.2955 28.9269C38.4878 28.8081 38.7411 28.869 38.8601 29.064C38.9792 29.2559 38.9181 29.5088 38.7228 29.6276L35.4598 31.6139V35.7359C35.4598 35.9613 35.2766 36.1441 35.0507 36.1441V36.1411Z" fill="black"/>
  <path d="M14.7427 42.2494C14.5168 42.2494 14.3336 42.0696 14.3336 41.8442L14.1871 25.9413L0.542878 17.807C0.347524 17.6913 0.286476 17.4415 0.402467 17.2465C0.518458 17.0515 0.771808 16.9906 0.96411 17.1063L14.8037 25.3594C14.9258 25.4325 15.0021 25.5635 15.0021 25.7067L15.1517 41.8381C15.1517 42.0635 14.9716 42.2494 14.7457 42.2524H14.7427V42.2494Z" fill="black"/>
  <path d="M9.08357 38.9498C8.8577 38.9498 8.67455 38.77 8.67455 38.5446L8.58603 28.8383L0.512421 24.0248C0.317067 23.909 0.256019 23.6592 0.37201 23.4642C0.488002 23.2693 0.741351 23.2083 0.933653 23.3241L9.20262 28.2534C9.32471 28.3265 9.40102 28.4575 9.40102 28.6007L9.4926 38.5385C9.4926 38.7639 9.3125 38.9498 9.08663 38.9528H9.08357V38.9498Z" fill="black"/>
  <path d="M4.21518 36.3179C3.9893 36.3179 3.80615 36.1382 3.80615 35.9127L3.76647 31.5836L0.485138 29.6277C0.289784 29.512 0.228736 29.2621 0.344728 29.0672C0.460719 28.8722 0.714069 28.8082 0.90637 28.927L4.38306 31.0017C4.50516 31.0748 4.58147 31.2058 4.58147 31.349L4.6242 35.9066C4.6242 36.1321 4.44411 36.3179 4.21823 36.321H4.21518V36.3179Z" fill="black"/>
</svg>