<svg xmlns="http://www.w3.org/2000/svg" width="37" height="32" viewBox="0 0 37 32" fill="none">
  <path d="M18.1538 31.9998C7.97426 31.9998 0 29.5641 0 26.4548C0 23.3455 7.97426 20.9097 18.1538 20.9097C28.3334 20.9097 36.3076 23.3455 36.3076 26.4548C36.3076 29.5641 28.3334 31.9998 18.1538 31.9998ZM18.1538 21.546C7.67149 21.546 0.630085 24.083 0.630085 26.4548C0.630085 28.8265 7.67149 31.3635 18.1538 31.3635C28.6361 31.3635 35.6776 28.8265 35.6776 26.4548C35.6776 24.083 28.6361 21.546 18.1538 21.546Z" fill="black"/>
  <path d="M18.1538 26.7728C7.97426 26.7728 0 24.337 0 21.2277C0 18.1184 7.97426 15.6826 18.1538 15.6826C28.3334 15.6826 36.3076 18.1184 36.3076 21.2277C36.3076 24.337 28.3334 26.7728 18.1538 26.7728ZM18.1538 16.3189C7.67149 16.3189 0.630085 18.856 0.630085 21.2277C0.630085 23.5994 7.67149 26.1365 18.1538 26.1365C28.6361 26.1365 35.6776 23.5994 35.6776 21.2277C35.6776 18.856 28.6361 16.3189 18.1538 16.3189Z" fill="black"/>
  <path d="M18.1538 21.5462C7.97426 21.5462 0 19.1104 0 16.0011C0 12.8918 7.97426 10.4561 18.1538 10.4561C28.3334 10.4561 36.3076 12.8918 36.3076 16.0011C36.3076 19.1104 28.3334 21.5462 18.1538 21.5462ZM18.1538 11.0924C7.67149 11.0924 0.630085 13.6294 0.630085 16.0011C0.630085 18.3729 7.67149 20.9099 18.1538 20.9099C28.6361 20.9099 35.6776 18.3729 35.6776 16.0011C35.6776 13.6294 28.6361 11.0924 18.1538 11.0924Z" fill="black"/>
  <path d="M18.1538 16.3193C7.97426 16.3193 0 13.8835 0 10.7721C0 7.66077 7.97426 5.22705 18.1538 5.22705C28.3334 5.22705 36.3076 7.66284 36.3076 10.7721C36.3076 13.8814 28.3334 16.3172 18.1538 16.3172V16.3193ZM18.1538 5.86544C7.67149 5.86544 0.632131 8.40246 0.632131 10.7721C0.632131 13.1418 7.67354 15.6809 18.1559 15.6809C28.6382 15.6809 35.6796 13.1439 35.6796 10.7721C35.6796 8.40039 28.6382 5.86337 18.1559 5.86337L18.1538 5.86544Z" fill="black"/>
  <path d="M18.1538 11.0922C7.97426 11.0922 0 8.65645 0 5.54509C0 2.43372 7.97426 0 18.1538 0C28.3334 0 36.3076 2.43579 36.3076 5.54509C36.3076 8.65439 28.3334 11.0902 18.1538 11.0902V11.0922ZM18.1538 0.638388C7.67149 0.638388 0.632131 3.17541 0.632131 5.54509C0.632131 7.91477 7.67354 10.4539 18.1559 10.4539C28.6382 10.4539 35.6796 7.91477 35.6796 5.54509C35.6796 3.17541 28.6361 0.638388 18.1538 0.638388Z" fill="black"/>
</svg>