<svg xmlns="http://www.w3.org/2000/svg" width="41" height="36" viewBox="0 0 41 36" fill="none">
  <path d="M20.413 34.3269C20.3571 34.3269 20.3036 34.3124 20.2525 34.2858L11.1805 29.2453C11.0783 29.1897 11.0151 29.0833 11.0127 28.9672C11.0127 28.8511 11.0711 28.7423 11.1732 28.6842L20.0969 23.3898C20.1966 23.3318 20.3206 23.3294 20.4227 23.385L29.4948 28.4254C29.5969 28.4811 29.6602 28.5875 29.6626 28.7036C29.6626 28.8197 29.6042 28.9285 29.5021 28.9865L20.5784 34.2809C20.5273 34.3124 20.4689 34.3269 20.4106 34.3269H20.413ZM11.995 28.9527L20.4082 33.6255L28.6851 28.7157L20.272 24.0428L11.995 28.9527Z" fill="black"/>
  <path d="M29.3364 29.0324C29.2805 29.0324 29.227 29.0179 29.176 28.9913L20.1039 23.9508C20.0018 23.8952 19.9385 23.7888 19.9361 23.6727L19.7878 13.3378C19.7878 13.2217 19.8461 13.1129 19.9483 13.0549C20.048 12.9968 20.172 12.9944 20.2741 13.05L29.3462 18.0905C29.4483 18.1461 29.5115 18.2525 29.5139 18.3686L29.6623 28.7034C29.6623 28.8195 29.6039 28.9284 29.5018 28.9864C29.4507 29.0179 29.3924 29.0324 29.334 29.0324H29.3364ZM20.5878 23.4768L29.0009 28.1496L28.8623 18.5645L20.4492 13.8917L20.5878 23.4768Z" fill="black"/>
  <path d="M11.3405 29.2863C11.2846 29.2863 11.2311 29.2718 11.1801 29.2452C11.0779 29.1896 11.0147 29.0832 11.0123 28.9671L10.864 18.6322C10.864 18.5161 10.9223 18.4073 11.0244 18.3493L19.9482 13.0549C20.0479 12.9968 20.1719 12.9944 20.274 13.05C20.3761 13.1056 20.4394 13.2121 20.4418 13.3282L20.5901 23.663C20.5901 23.7791 20.5317 23.8879 20.4296 23.946L11.5059 29.2404C11.4548 29.2718 11.3965 29.2863 11.3381 29.2863H11.3405ZM11.5205 18.8088L11.6591 28.3939L19.936 23.4816L19.7974 13.8965L11.5229 18.8088H11.5205Z" fill="black"/>
  <path d="M40.2006 35.4974H0.325826C0.209112 35.4974 0.102125 35.4346 0.0437677 35.3354C-0.0145892 35.2338 -0.0145892 35.1105 0.0437677 35.0113L19.98 0.661791C20.0967 0.461044 20.4298 0.461044 20.5465 0.661791L40.4827 35.0113C40.541 35.1129 40.541 35.2362 40.4827 35.3354C40.4243 35.437 40.3173 35.4974 40.2006 35.4974ZM0.892375 34.8468H39.6341L20.2644 1.47445L0.892375 34.8492V34.8468Z" fill="black"/>
  <path d="M40.2005 35.4977C40.1446 35.4977 40.0886 35.4832 40.0376 35.4542L20.1014 23.9487C20.0017 23.8907 19.9385 23.7842 19.9385 23.6681V0.824098C19.9385 0.645118 20.0844 0.5 20.2643 0.5C20.4442 0.5 20.5901 0.645118 20.5901 0.824098V23.4795L40.3634 34.8906C40.519 34.9801 40.5725 35.1784 40.4825 35.3357C40.4218 35.4397 40.3123 35.4977 40.2005 35.4977Z" fill="black"/>
  <path d="M0.325743 35.4978C0.213892 35.4978 0.104473 35.4397 0.0436844 35.3357C-0.0462825 35.1809 0.00721132 34.9826 0.16283 34.8907L20.099 23.3852C20.2546 23.2958 20.454 23.349 20.5464 23.5038C20.6364 23.6586 20.5829 23.8569 20.4273 23.9488L0.491087 35.4543C0.440025 35.4833 0.3841 35.4978 0.328174 35.4978H0.325743Z" fill="black"/>
  <path d="M20.4033 35.5002C20.2258 35.5002 20.0799 35.3575 20.0774 35.1785L19.9364 23.6731C19.9364 23.557 19.9948 23.4506 20.0969 23.3901L29.9616 17.537C30.1173 17.4451 30.3166 17.4959 30.409 17.6507C30.5014 17.8055 30.4504 18.0038 30.2948 18.0957L20.5929 23.8521L20.7315 35.1713C20.7315 35.3503 20.5905 35.4978 20.4081 35.5002H20.4033Z" fill="black"/>
  <path d="M20.2618 23.9949C20.2083 23.9949 20.1548 23.9828 20.1037 23.9537L10.0663 18.4054C9.90827 18.3183 9.85234 18.12 9.93988 17.9628C10.0274 17.8056 10.2268 17.7499 10.3848 17.837L20.4222 23.3854C20.5803 23.4724 20.6362 23.6708 20.5487 23.828C20.4879 23.9344 20.3785 23.9949 20.2618 23.9949Z" fill="black"/>
</svg>